%TF.GenerationSoftware,KiCad,Pcbnew,(7.0.0)*%
%TF.CreationDate,2023-04-15T15:54:35-07:00*%
%TF.ProjectId,FaultSignalGenerator_Isaiah_16Channel,4661756c-7453-4696-976e-616c47656e65,rev?*%
%TF.SameCoordinates,Original*%
%TF.FileFunction,Paste,Top*%
%TF.FilePolarity,Positive*%
%FSLAX46Y46*%
G04 Gerber Fmt 4.6, Leading zero omitted, Abs format (unit mm)*
G04 Created by KiCad (PCBNEW (7.0.0)) date 2023-04-15 15:54:35*
%MOMM*%
%LPD*%
G01*
G04 APERTURE LIST*
G04 Aperture macros list*
%AMRoundRect*
0 Rectangle with rounded corners*
0 $1 Rounding radius*
0 $2 $3 $4 $5 $6 $7 $8 $9 X,Y pos of 4 corners*
0 Add a 4 corners polygon primitive as box body*
4,1,4,$2,$3,$4,$5,$6,$7,$8,$9,$2,$3,0*
0 Add four circle primitives for the rounded corners*
1,1,$1+$1,$2,$3*
1,1,$1+$1,$4,$5*
1,1,$1+$1,$6,$7*
1,1,$1+$1,$8,$9*
0 Add four rect primitives between the rounded corners*
20,1,$1+$1,$2,$3,$4,$5,0*
20,1,$1+$1,$4,$5,$6,$7,0*
20,1,$1+$1,$6,$7,$8,$9,0*
20,1,$1+$1,$8,$9,$2,$3,0*%
G04 Aperture macros list end*
%ADD10RoundRect,0.250000X-1.075000X0.375000X-1.075000X-0.375000X1.075000X-0.375000X1.075000X0.375000X0*%
%ADD11RoundRect,0.150000X-0.150000X0.825000X-0.150000X-0.825000X0.150000X-0.825000X0.150000X0.825000X0*%
%ADD12RoundRect,0.250000X-0.312500X-0.625000X0.312500X-0.625000X0.312500X0.625000X-0.312500X0.625000X0*%
%ADD13RoundRect,0.250001X-0.899999X-1.924999X0.899999X-1.924999X0.899999X1.924999X-0.899999X1.924999X0*%
%ADD14RoundRect,0.100000X-0.637500X-0.100000X0.637500X-0.100000X0.637500X0.100000X-0.637500X0.100000X0*%
%ADD15RoundRect,0.250000X0.625000X-0.312500X0.625000X0.312500X-0.625000X0.312500X-0.625000X-0.312500X0*%
%ADD16RoundRect,0.250000X1.400000X1.000000X-1.400000X1.000000X-1.400000X-1.000000X1.400000X-1.000000X0*%
%ADD17RoundRect,0.250000X-0.412500X-0.650000X0.412500X-0.650000X0.412500X0.650000X-0.412500X0.650000X0*%
%ADD18RoundRect,0.250000X0.412500X0.650000X-0.412500X0.650000X-0.412500X-0.650000X0.412500X-0.650000X0*%
%ADD19RoundRect,0.250000X1.050000X0.550000X-1.050000X0.550000X-1.050000X-0.550000X1.050000X-0.550000X0*%
%ADD20RoundRect,0.250000X-0.625000X0.312500X-0.625000X-0.312500X0.625000X-0.312500X0.625000X0.312500X0*%
%ADD21RoundRect,0.100000X0.100000X-0.637500X0.100000X0.637500X-0.100000X0.637500X-0.100000X-0.637500X0*%
%ADD22RoundRect,0.250000X0.650000X-0.412500X0.650000X0.412500X-0.650000X0.412500X-0.650000X-0.412500X0*%
%ADD23RoundRect,0.250000X-0.650000X0.412500X-0.650000X-0.412500X0.650000X-0.412500X0.650000X0.412500X0*%
%ADD24RoundRect,0.250000X0.550000X-1.050000X0.550000X1.050000X-0.550000X1.050000X-0.550000X-1.050000X0*%
%ADD25RoundRect,0.250000X0.312500X0.625000X-0.312500X0.625000X-0.312500X-0.625000X0.312500X-0.625000X0*%
%ADD26RoundRect,0.250000X0.300000X-2.050000X0.300000X2.050000X-0.300000X2.050000X-0.300000X-2.050000X0*%
%ADD27RoundRect,0.250000X2.375000X-2.025000X2.375000X2.025000X-2.375000X2.025000X-2.375000X-2.025000X0*%
%ADD28RoundRect,0.150000X0.150000X-0.512500X0.150000X0.512500X-0.150000X0.512500X-0.150000X-0.512500X0*%
%ADD29RoundRect,0.250000X-0.550000X1.050000X-0.550000X-1.050000X0.550000X-1.050000X0.550000X1.050000X0*%
%ADD30RoundRect,0.200000X0.200000X0.275000X-0.200000X0.275000X-0.200000X-0.275000X0.200000X-0.275000X0*%
%ADD31RoundRect,0.150000X-0.825000X-0.150000X0.825000X-0.150000X0.825000X0.150000X-0.825000X0.150000X0*%
%ADD32R,3.000000X1.000000*%
%ADD33R,1.000000X3.000000*%
G04 APERTURE END LIST*
D10*
%TO.C,L1*%
X76795673Y-122225443D03*
X76795673Y-125025443D03*
%TD*%
D11*
%TO.C,U10*%
X124635500Y-104288000D03*
X123365500Y-104288000D03*
X122095500Y-104288000D03*
X120825500Y-104288000D03*
X119555500Y-104288000D03*
X118285500Y-104288000D03*
X117015500Y-104288000D03*
X117015500Y-109238000D03*
X118285500Y-109238000D03*
X119555500Y-109238000D03*
X120825500Y-109238000D03*
X122095500Y-109238000D03*
X123365500Y-109238000D03*
X124635500Y-109238000D03*
%TD*%
D12*
%TO.C,R50*%
X94843592Y-96518621D03*
X97768592Y-96518621D03*
%TD*%
D13*
%TO.C,U14*%
X78661113Y-104633812D03*
D14*
X75798613Y-100408812D03*
X75798613Y-101058812D03*
X75798613Y-101708812D03*
X75798613Y-102358812D03*
X75798613Y-103008812D03*
X75798613Y-103658812D03*
X75798613Y-104308812D03*
X75798613Y-104958812D03*
X75798613Y-105608812D03*
X75798613Y-106258812D03*
X75798613Y-106908812D03*
X75798613Y-107558812D03*
X75798613Y-108208812D03*
X75798613Y-108858812D03*
X81523613Y-108858812D03*
X81523613Y-108208812D03*
X81523613Y-107558812D03*
X81523613Y-106908812D03*
X81523613Y-106258812D03*
X81523613Y-105608812D03*
X81523613Y-104958812D03*
X81523613Y-104308812D03*
X81523613Y-103658812D03*
X81523613Y-103008812D03*
X81523613Y-102358812D03*
X81523613Y-101708812D03*
X81523613Y-101058812D03*
X81523613Y-100408812D03*
%TD*%
D12*
%TO.C,R127*%
X94758500Y-73074000D03*
X97683500Y-73074000D03*
%TD*%
%TO.C,R103*%
X94716082Y-62421099D03*
X97641082Y-62421099D03*
%TD*%
D15*
%TO.C,R11*%
X65890751Y-49002500D03*
X65890751Y-46077500D03*
%TD*%
%TO.C,R48*%
X140775500Y-63663000D03*
X140775500Y-60738000D03*
%TD*%
D16*
%TO.C,D1*%
X76710500Y-134805500D03*
X76710500Y-128005500D03*
%TD*%
D11*
%TO.C,U11*%
X125225500Y-55588000D03*
X123955500Y-55588000D03*
X122685500Y-55588000D03*
X121415500Y-55588000D03*
X120145500Y-55588000D03*
X118875500Y-55588000D03*
X117605500Y-55588000D03*
X117605500Y-60538000D03*
X118875500Y-60538000D03*
X120145500Y-60538000D03*
X121415500Y-60538000D03*
X122685500Y-60538000D03*
X123955500Y-60538000D03*
X125225500Y-60538000D03*
%TD*%
D12*
%TO.C,R52*%
X94774024Y-102088317D03*
X97699024Y-102088317D03*
%TD*%
D15*
%TO.C,R44*%
X115175500Y-100963000D03*
X115175500Y-98038000D03*
%TD*%
D12*
%TO.C,R74*%
X94857116Y-107663856D03*
X97782116Y-107663856D03*
%TD*%
%TO.C,R104*%
X94758500Y-65014992D03*
X97683500Y-65014992D03*
%TD*%
D17*
%TO.C,C45*%
X89470386Y-62586922D03*
X92595386Y-62586922D03*
%TD*%
D18*
%TO.C,C80*%
X65338000Y-134690500D03*
X62213000Y-134690500D03*
%TD*%
D15*
%TO.C,R24*%
X115165500Y-66975500D03*
X115165500Y-64050500D03*
%TD*%
D19*
%TO.C,C27*%
X97925500Y-86188000D03*
X94325500Y-86188000D03*
%TD*%
D15*
%TO.C,R14*%
X81190751Y-49052500D03*
X81190751Y-46127500D03*
%TD*%
%TO.C,R40*%
X141314205Y-77435948D03*
X141314205Y-74510948D03*
%TD*%
D12*
%TO.C,R76*%
X94504500Y-113714000D03*
X97429500Y-113714000D03*
%TD*%
D15*
%TO.C,R33*%
X107638285Y-115302965D03*
X107638285Y-112377965D03*
%TD*%
D12*
%TO.C,R53*%
X94766705Y-104867220D03*
X97691705Y-104867220D03*
%TD*%
D15*
%TO.C,R41*%
X108375500Y-100913000D03*
X108375500Y-97988000D03*
%TD*%
D20*
%TO.C,R6*%
X81140751Y-32327500D03*
X81140751Y-35252500D03*
%TD*%
D15*
%TO.C,R9*%
X55640751Y-49152500D03*
X55640751Y-46227500D03*
%TD*%
%TO.C,R42*%
X110675500Y-100963000D03*
X110675500Y-98038000D03*
%TD*%
D21*
%TO.C,U1*%
X134670500Y-117125500D03*
X135320500Y-117125500D03*
X135970500Y-117125500D03*
X136620500Y-117125500D03*
X137270500Y-117125500D03*
X137920500Y-117125500D03*
X138570500Y-117125500D03*
X139220500Y-117125500D03*
X139870500Y-117125500D03*
X140520500Y-117125500D03*
X140520500Y-111400500D03*
X139870500Y-111400500D03*
X139220500Y-111400500D03*
X138570500Y-111400500D03*
X137920500Y-111400500D03*
X137270500Y-111400500D03*
X136620500Y-111400500D03*
X135970500Y-111400500D03*
X135320500Y-111400500D03*
X134670500Y-111400500D03*
%TD*%
D12*
%TO.C,R102*%
X94712745Y-59979614D03*
X97637745Y-59979614D03*
%TD*%
D15*
%TO.C,R46*%
X136125500Y-63563000D03*
X136125500Y-60638000D03*
%TD*%
%TO.C,R27*%
X138909500Y-107914000D03*
X138909500Y-104989000D03*
%TD*%
D20*
%TO.C,R4*%
X71040751Y-32327500D03*
X71040751Y-35252500D03*
%TD*%
D15*
%TO.C,R17*%
X133782240Y-123560790D03*
X133782240Y-120635790D03*
%TD*%
%TO.C,R21*%
X107222558Y-66958598D03*
X107222558Y-64033598D03*
%TD*%
%TO.C,R43*%
X112925500Y-101013000D03*
X112925500Y-98088000D03*
%TD*%
D17*
%TO.C,C35*%
X89206980Y-110641551D03*
X92331980Y-110641551D03*
%TD*%
D22*
%TO.C,C81*%
X81745629Y-124844997D03*
X81745629Y-121719997D03*
%TD*%
D15*
%TO.C,R13*%
X76140751Y-49002500D03*
X76140751Y-46077500D03*
%TD*%
D12*
%TO.C,R51*%
X94840844Y-99217890D03*
X97765844Y-99217890D03*
%TD*%
D17*
%TO.C,C32*%
X89539936Y-96533812D03*
X92664936Y-96533812D03*
%TD*%
D15*
%TO.C,R18*%
X136182240Y-123623290D03*
X136182240Y-120698290D03*
%TD*%
D20*
%TO.C,R3*%
X65940751Y-32327500D03*
X65940751Y-35252500D03*
%TD*%
D17*
%TO.C,C37*%
X89470386Y-60046922D03*
X92595386Y-60046922D03*
%TD*%
D23*
%TO.C,C28*%
X80825500Y-88725500D03*
X80825500Y-91850500D03*
%TD*%
D24*
%TO.C,C79*%
X57425500Y-133950500D03*
X57425500Y-130350500D03*
%TD*%
D11*
%TO.C,U9*%
X151655500Y-111588000D03*
X150385500Y-111588000D03*
X149115500Y-111588000D03*
X147845500Y-111588000D03*
X146575500Y-111588000D03*
X145305500Y-111588000D03*
X144035500Y-111588000D03*
X144035500Y-116538000D03*
X145305500Y-116538000D03*
X146575500Y-116538000D03*
X147845500Y-116538000D03*
X149115500Y-116538000D03*
X150385500Y-116538000D03*
X151655500Y-116538000D03*
%TD*%
D25*
%TO.C,R140*%
X87297224Y-120612426D03*
X84372224Y-120612426D03*
%TD*%
D17*
%TO.C,C40*%
X89619025Y-93845568D03*
X92744025Y-93845568D03*
%TD*%
D15*
%TO.C,R19*%
X138995500Y-123663000D03*
X138995500Y-120738000D03*
%TD*%
%TO.C,R47*%
X138475500Y-63613000D03*
X138475500Y-60688000D03*
%TD*%
D12*
%TO.C,R125*%
X94870430Y-67589397D03*
X97795430Y-67589397D03*
%TD*%
%TO.C,R49*%
X94838274Y-93891669D03*
X97763274Y-93891669D03*
%TD*%
D21*
%TO.C,U4*%
X134650500Y-71850500D03*
X135300500Y-71850500D03*
X135950500Y-71850500D03*
X136600500Y-71850500D03*
X137250500Y-71850500D03*
X137900500Y-71850500D03*
X138550500Y-71850500D03*
X139200500Y-71850500D03*
X139850500Y-71850500D03*
X140500500Y-71850500D03*
X140500500Y-66125500D03*
X139850500Y-66125500D03*
X139200500Y-66125500D03*
X138550500Y-66125500D03*
X137900500Y-66125500D03*
X137250500Y-66125500D03*
X136600500Y-66125500D03*
X135950500Y-66125500D03*
X135300500Y-66125500D03*
X134650500Y-66125500D03*
%TD*%
D26*
%TO.C,U16*%
X64010500Y-128715500D03*
X66550500Y-128715500D03*
X69090500Y-128715500D03*
D27*
X63775500Y-121990500D03*
X69325500Y-121990500D03*
X63775500Y-117140500D03*
X69325500Y-117140500D03*
%TD*%
D23*
%TO.C,C83*%
X81790500Y-131680500D03*
X81790500Y-134805500D03*
%TD*%
D21*
%TO.C,U2*%
X109040500Y-60625500D03*
X109690500Y-60625500D03*
X110340500Y-60625500D03*
X110990500Y-60625500D03*
X111640500Y-60625500D03*
X112290500Y-60625500D03*
X112940500Y-60625500D03*
X113590500Y-60625500D03*
X114240500Y-60625500D03*
X114890500Y-60625500D03*
X114890500Y-54900500D03*
X114240500Y-54900500D03*
X113590500Y-54900500D03*
X112940500Y-54900500D03*
X112290500Y-54900500D03*
X111640500Y-54900500D03*
X110990500Y-54900500D03*
X110340500Y-54900500D03*
X109690500Y-54900500D03*
X109040500Y-54900500D03*
%TD*%
D15*
%TO.C,R23*%
X112915320Y-66969390D03*
X112915320Y-64044390D03*
%TD*%
%TO.C,R25*%
X134277500Y-107838000D03*
X134277500Y-104913000D03*
%TD*%
%TO.C,R34*%
X109888285Y-115302965D03*
X109888285Y-112377965D03*
%TD*%
%TO.C,R31*%
X112615500Y-51813000D03*
X112615500Y-48888000D03*
%TD*%
D17*
%TO.C,C84*%
X68563000Y-134690500D03*
X71688000Y-134690500D03*
%TD*%
%TO.C,C47*%
X89470386Y-72746922D03*
X92595386Y-72746922D03*
%TD*%
%TO.C,C34*%
X89346445Y-104903273D03*
X92471445Y-104903273D03*
%TD*%
D12*
%TO.C,R141*%
X84300485Y-129794954D03*
X87225485Y-129794954D03*
%TD*%
D17*
%TO.C,C43*%
X89213438Y-113653611D03*
X92338438Y-113653611D03*
%TD*%
D28*
%TO.C,U18*%
X84884724Y-125921075D03*
X85834724Y-125921075D03*
X86784724Y-125921075D03*
X86784724Y-123646075D03*
X84884724Y-123646075D03*
%TD*%
D15*
%TO.C,R26*%
X136577500Y-107888000D03*
X136577500Y-104963000D03*
%TD*%
%TO.C,R12*%
X70890751Y-49152500D03*
X70890751Y-46227500D03*
%TD*%
D17*
%TO.C,C42*%
X89252113Y-108189812D03*
X92377113Y-108189812D03*
%TD*%
D15*
%TO.C,R39*%
X139034662Y-77488889D03*
X139034662Y-74563889D03*
%TD*%
D18*
%TO.C,C82*%
X87455500Y-132265500D03*
X84330500Y-132265500D03*
%TD*%
D29*
%TO.C,C29*%
X84725500Y-89088000D03*
X84725500Y-92688000D03*
%TD*%
D12*
%TO.C,R126*%
X94877831Y-70387664D03*
X97802831Y-70387664D03*
%TD*%
D30*
%TO.C,R142*%
X86618000Y-134805500D03*
X84968000Y-134805500D03*
%TD*%
D15*
%TO.C,R45*%
X133707919Y-63571862D03*
X133707919Y-60646862D03*
%TD*%
D20*
%TO.C,R7*%
X86221428Y-32349567D03*
X86221428Y-35274567D03*
%TD*%
D12*
%TO.C,R101*%
X94679661Y-54966922D03*
X97604661Y-54966922D03*
%TD*%
D20*
%TO.C,R5*%
X76090751Y-32327500D03*
X76090751Y-35252500D03*
%TD*%
D15*
%TO.C,R37*%
X132092400Y-77639849D03*
X132092400Y-74714849D03*
%TD*%
%TO.C,R16*%
X91240751Y-49052500D03*
X91240751Y-46127500D03*
%TD*%
D21*
%TO.C,U3*%
X109100500Y-109675500D03*
X109750500Y-109675500D03*
X110400500Y-109675500D03*
X111050500Y-109675500D03*
X111700500Y-109675500D03*
X112350500Y-109675500D03*
X113000500Y-109675500D03*
X113650500Y-109675500D03*
X114300500Y-109675500D03*
X114950500Y-109675500D03*
X114950500Y-103950500D03*
X114300500Y-103950500D03*
X113650500Y-103950500D03*
X113000500Y-103950500D03*
X112350500Y-103950500D03*
X111700500Y-103950500D03*
X111050500Y-103950500D03*
X110400500Y-103950500D03*
X109750500Y-103950500D03*
X109100500Y-103950500D03*
%TD*%
D12*
%TO.C,R100*%
X94679661Y-57506922D03*
X97604661Y-57506922D03*
%TD*%
D20*
%TO.C,R1*%
X55790751Y-32327500D03*
X55790751Y-35252500D03*
%TD*%
D15*
%TO.C,R28*%
X141195500Y-107914000D03*
X141195500Y-104989000D03*
%TD*%
%TO.C,R29*%
X107965500Y-51713000D03*
X107965500Y-48788000D03*
%TD*%
D17*
%TO.C,C33*%
X89497165Y-99217589D03*
X92622165Y-99217589D03*
%TD*%
%TO.C,C36*%
X89470386Y-57506922D03*
X92595386Y-57506922D03*
%TD*%
D15*
%TO.C,R38*%
X135155383Y-77662500D03*
X135155383Y-74737500D03*
%TD*%
D17*
%TO.C,C46*%
X89640000Y-67579466D03*
X92765000Y-67579466D03*
%TD*%
%TO.C,C44*%
X89470386Y-54966922D03*
X92595386Y-54966922D03*
%TD*%
D31*
%TO.C,U13*%
X82425500Y-79038000D03*
X82425500Y-80308000D03*
X82425500Y-81578000D03*
X82425500Y-82848000D03*
X82425500Y-84118000D03*
X82425500Y-85388000D03*
X82425500Y-86658000D03*
X87375500Y-86658000D03*
X87375500Y-85388000D03*
X87375500Y-84118000D03*
X87375500Y-82848000D03*
X87375500Y-81578000D03*
X87375500Y-80308000D03*
X87375500Y-79038000D03*
%TD*%
D17*
%TO.C,C39*%
X89445192Y-70188162D03*
X92570192Y-70188162D03*
%TD*%
D15*
%TO.C,R30*%
X110365500Y-51763000D03*
X110365500Y-48838000D03*
%TD*%
D32*
%TO.C,J1*%
X61449999Y-56669999D03*
X56409999Y-56669999D03*
X61449999Y-59209999D03*
X56409999Y-59209999D03*
X61449999Y-61749999D03*
X56409999Y-61749999D03*
X61449999Y-64289999D03*
X56409999Y-64289999D03*
X61449999Y-66829999D03*
X56409999Y-66829999D03*
X61449999Y-69369999D03*
X56409999Y-69369999D03*
X61449999Y-71909999D03*
X56409999Y-71909999D03*
X61449999Y-74449999D03*
X56409999Y-74449999D03*
X61449999Y-76989999D03*
X56409999Y-76989999D03*
X61449999Y-79529999D03*
X56409999Y-79529999D03*
X61449999Y-82069999D03*
X56409999Y-82069999D03*
X61449999Y-84609999D03*
X56409999Y-84609999D03*
X61449999Y-87149999D03*
X56409999Y-87149999D03*
X61449999Y-89689999D03*
X56409999Y-89689999D03*
X61449999Y-92229999D03*
X56409999Y-92229999D03*
X61449999Y-94769999D03*
X56409999Y-94769999D03*
X61449999Y-97309999D03*
X56409999Y-97309999D03*
X61449999Y-99849999D03*
X56409999Y-99849999D03*
X61449999Y-102389999D03*
X56409999Y-102389999D03*
X61449999Y-104929999D03*
X56409999Y-104929999D03*
%TD*%
D15*
%TO.C,R22*%
X110121921Y-66918249D03*
X110121921Y-63993249D03*
%TD*%
D17*
%TO.C,C41*%
X89447557Y-102017996D03*
X92572557Y-102017996D03*
%TD*%
D15*
%TO.C,R10*%
X60840751Y-49002500D03*
X60840751Y-46077500D03*
%TD*%
D20*
%TO.C,R8*%
X91290751Y-32327500D03*
X91290751Y-35252500D03*
%TD*%
D13*
%TO.C,U15*%
X78502500Y-65126922D03*
D14*
X75640000Y-60901922D03*
X75640000Y-61551922D03*
X75640000Y-62201922D03*
X75640000Y-62851922D03*
X75640000Y-63501922D03*
X75640000Y-64151922D03*
X75640000Y-64801922D03*
X75640000Y-65451922D03*
X75640000Y-66101922D03*
X75640000Y-66751922D03*
X75640000Y-67401922D03*
X75640000Y-68051922D03*
X75640000Y-68701922D03*
X75640000Y-69351922D03*
X81365000Y-69351922D03*
X81365000Y-68701922D03*
X81365000Y-68051922D03*
X81365000Y-67401922D03*
X81365000Y-66751922D03*
X81365000Y-66101922D03*
X81365000Y-65451922D03*
X81365000Y-64801922D03*
X81365000Y-64151922D03*
X81365000Y-63501922D03*
X81365000Y-62851922D03*
X81365000Y-62201922D03*
X81365000Y-61551922D03*
X81365000Y-60901922D03*
%TD*%
D12*
%TO.C,R75*%
X94700490Y-110655228D03*
X97625490Y-110655228D03*
%TD*%
D15*
%TO.C,R32*%
X114915500Y-51763000D03*
X114915500Y-48838000D03*
%TD*%
%TO.C,R35*%
X112825500Y-115263000D03*
X112825500Y-112338000D03*
%TD*%
D11*
%TO.C,U12*%
X150305500Y-66438000D03*
X149035500Y-66438000D03*
X147765500Y-66438000D03*
X146495500Y-66438000D03*
X145225500Y-66438000D03*
X143955500Y-66438000D03*
X142685500Y-66438000D03*
X142685500Y-71388000D03*
X143955500Y-71388000D03*
X145225500Y-71388000D03*
X146495500Y-71388000D03*
X147765500Y-71388000D03*
X149035500Y-71388000D03*
X150305500Y-71388000D03*
%TD*%
D20*
%TO.C,R2*%
X60865067Y-32372307D03*
X60865067Y-35297307D03*
%TD*%
D15*
%TO.C,R15*%
X86140751Y-49052500D03*
X86140751Y-46127500D03*
%TD*%
D33*
%TO.C,J2*%
X55770750Y-38139999D03*
X55770750Y-43179999D03*
X58310750Y-38139999D03*
X58310750Y-43179999D03*
X60850750Y-38139999D03*
X60850750Y-43179999D03*
X63390750Y-38139999D03*
X63390750Y-43179999D03*
X65930750Y-38139999D03*
X65930750Y-43179999D03*
X68470750Y-38139999D03*
X68470750Y-43179999D03*
X71010750Y-38139999D03*
X71010750Y-43179999D03*
X73550750Y-38139999D03*
X73550750Y-43179999D03*
X76090750Y-38139999D03*
X76090750Y-43179999D03*
X78630750Y-38139999D03*
X78630750Y-43179999D03*
X81170750Y-38139999D03*
X81170750Y-43179999D03*
X83710750Y-38139999D03*
X83710750Y-43179999D03*
X86250750Y-38139999D03*
X86250750Y-43179999D03*
X88790750Y-38139999D03*
X88790750Y-43179999D03*
X91330750Y-38139999D03*
X91330750Y-43179999D03*
X93870750Y-38139999D03*
X93870750Y-43179999D03*
%TD*%
D15*
%TO.C,R20*%
X141445500Y-123625500D03*
X141445500Y-120700500D03*
%TD*%
D17*
%TO.C,C38*%
X89471542Y-65020650D03*
X92596542Y-65020650D03*
%TD*%
D15*
%TO.C,R36*%
X115075500Y-115213000D03*
X115075500Y-112288000D03*
%TD*%
M02*
