M48
; DRILL file {KiCad (7.0.0)} date Sat Apr 15 15:55:13 2023
; FORMAT={-:-/ absolute / inch / decimal}
; #@! TF.CreationDate,2023-04-15T15:55:13-07:00
; #@! TF.GenerationSoftware,Kicad,Pcbnew,(7.0.0)
; #@! TF.FileFunction,Plated,1,4,PTH
FMAT,2
INCH
; #@! TA.AperFunction,Plated,PTH,ViaDrill
T1C0.0118
; #@! TA.AperFunction,Plated,PTH,ComponentDrill
T2C0.0394
%
G90
G05
T1
X2.1916Y-3.1325
X2.1928Y-1.9349
X2.1947Y-1.273
X2.2189Y-2.4309
X2.2189Y-2.8324
X2.2218Y-2.3298
X2.2225Y-2.2309
X2.2227Y-4.1258
X2.2237Y-2.7281
X2.2472Y-3.8319
X2.2677Y-5.1378
X2.3936Y-1.9291
X2.3944Y-1.272
X2.4153Y-4.1341
X2.4175Y-2.6327
X2.4192Y-2.2316
X2.4196Y-3.928
X2.4403Y-2.4313
X2.4414Y-2.3309
X2.4603Y-3.032
X2.4902Y-4.5768
X2.498Y-4.8071
X2.5Y-4.6988
X2.5197Y-4.9961
X2.5709Y-5.3091
X2.593Y-1.273
X2.5936Y-1.9306
X2.6215Y-5.067
X2.628Y-4.8248
X2.628Y-4.6928
X2.6398Y-4.5984
X2.6709Y-2.3309
X2.7008Y-5.3012
X2.7028Y-4.815
X2.7374Y-2.7242
X2.7382Y-4.2727
X2.744Y-4.1717
X2.7457Y-4.0866
X2.7473Y-3.9917
X2.752Y-4.7165
X2.7776Y-4.5886
X2.7915Y-1.9335
X2.7959Y-1.273
X2.8116Y-2.2306
X2.8598Y-4.2692
X2.8603Y-3.9011
X2.8603Y-3.9936
X2.8603Y-4.0861
X2.8603Y-4.1767
X2.8637Y-2.5384
X2.8656Y-2.3595
X2.8656Y-2.6325
X2.8656Y-2.7267
X2.8674Y-2.4518
X2.8848Y-3.8387
X2.9185Y-2.2692
X2.9337Y-3.8378
X2.9901Y-1.2709
X2.9945Y-3.3465
X2.9956Y-3.1894
X3.001Y-1.9284
X3.0235Y-4.812
X3.0906Y-2.5641
X3.0964Y-4.1102
X3.1193Y-3.3397
X3.1218Y-3.1928
X3.18Y-3.6171
X3.1952Y-1.932
X3.1963Y-1.2741
X3.2067Y-4.9134
X3.2183Y-4.7921
X3.2244Y-5.1811
X3.244Y-3.26
X3.2462Y-3.3612
X3.3Y-4.2341
X3.3022Y-4.0806
X3.3074Y-3.8822
X3.3081Y-2.5207
X3.3097Y-2.68
X3.31Y-4.0127
X3.3218Y-4.744
X3.3227Y-5.1062
X3.3228Y-2.4657
X3.3356Y-3.6491
X3.3419Y-4.868
X3.3793Y-4.9575
X3.3858Y-3.3858
X3.3909Y-1.9335
X3.396Y-1.2752
X3.4328Y-3.4919
X3.4362Y-3.359
X3.4389Y-3.6069
X3.4398Y-3.2632
X3.4533Y-3.4085
X3.5215Y-3.5983
X3.5924Y-1.2709
X3.5946Y-1.932
X3.5967Y-3.3788
X3.6083Y-2.9662
X3.6116Y-3.0305
X3.7136Y-3.3932
X3.7528Y-4.4236
X3.7705Y-4.6963
X3.7739Y-4.8168
X3.8338Y-4.4782
X3.8426Y-2.4533
X3.8442Y-2.265
X3.8631Y-3.7027
X3.8734Y-3.3937
X3.886Y-4.4203
X4.0038Y-2.5126
X4.0039Y-2.874
X4.0054Y-2.9302
X4.02Y-2.004
X4.0276Y-2.3468
X4.0676Y-3.6084
X4.0811Y-4.0008
X4.115Y-2.3297
X4.1311Y-3.9995
X4.1316Y-3.9015
X4.1324Y-4.2862
X4.1876Y-3.7996
X4.3035Y-2.4603
X4.304Y-4.5386
X4.3189Y-1.9961
X4.3436Y-4.5853
X4.3472Y-1.9248
X4.3845Y-2.1626
X4.3894Y-3.6
X4.3913Y-4.3676
X4.3993Y-4.0364
X4.3999Y-4.2599
X4.4104Y-2.4566
X4.4169Y-1.8048
X4.4337Y-1.9247
X4.4394Y-4.2589
X4.4656Y-2.6485
X4.4844Y-4.4799
X4.5Y-3.0
X4.5498Y-4.6138
X4.5855Y-3.8948
X4.6067Y-4.2843
X4.614Y-2.7063
X4.6303Y-2.4024
X4.6389Y-3.8929
X4.6714Y-3.8624
X4.6752Y-3.8129
X4.7Y-3.3
X4.7072Y-4.3102
X4.715Y-4.083
X4.7351Y-2.7123
X4.7409Y-2.5179
X4.7412Y-4.0359
X4.7493Y-4.431
X4.7686Y-4.6977
X4.7699Y-4.8959
X4.7796Y-2.3858
X4.7801Y-2.1885
X4.8Y-3.3
X4.8105Y-3.8893
X4.8116Y-2.4884
X4.8292Y-2.19
X4.8326Y-2.3859
X4.8477Y-4.5865
X4.8512Y-2.9316
X4.8517Y-2.8989
X4.9069Y-4.291
X4.9186Y-4.4278
X4.9186Y-4.4605
X4.9228Y-3.7763
X4.9283Y-2.1893
X4.9295Y-2.3588
X4.9727Y-3.1425
X4.9752Y-3.3512
X4.981Y-4.1245
X4.9858Y-3.0396
X4.9927Y-2.3598
X4.9981Y-4.0324
X5.0183Y-3.9495
X5.0895Y-4.2281
X5.1569Y-4.3814
X5.1693Y-2.8862
X5.1851Y-2.358
X5.2625Y-4.8644
X5.2726Y-2.1674
X5.2872Y-4.0391
X5.3055Y-4.9161
X5.3116Y-4.4653
X5.3131Y-4.4999
X5.3288Y-2.5541
X5.3449Y-2.753
X5.3587Y-2.3857
X5.3957Y-4.3568
X5.4016Y-2.6121
X5.4043Y-4.4873
X5.4062Y-4.0356
X5.4315Y-4.5246
X5.4456Y-4.6861
X5.4705Y-2.8858
X5.4789Y-2.2713
X5.4789Y-2.1676
X5.5069Y-3.1413
X5.5228Y-4.4947
X5.5394Y-3.5098
X5.5433Y-3.3937
X5.5533Y-4.1318
X5.5675Y-4.8675
X5.593Y-2.7091
X5.6711Y-4.5642
X5.7033Y-2.9465
X5.7172Y-2.6166
X5.7185Y-2.8115
X5.7467Y-4.1553
X5.7677Y-2.6339
X5.7681Y-2.8329
X5.7707Y-4.3932
X5.7707Y-4.5881
X5.7772Y-4.19
X5.8209Y-4.5886
X5.8209Y-4.3888
X5.9163Y-2.7919
X5.919Y-2.6059
X5.9312Y-4.4598
X6.0689Y-2.2874
X6.1299Y-2.3661
X6.4784Y-2.3263
X6.4803Y-3.0842
X6.4869Y-2.0384
X6.4869Y-2.9892
X6.4878Y-2.7985
X6.4887Y-2.6113
X6.4895Y-2.2299
X6.4895Y-2.4206
X6.4904Y-4.1324
X6.4913Y-3.3705
X6.4913Y-3.94
X6.4922Y-3.1781
X6.4922Y-3.7484
X6.4922Y-4.6205
X6.4939Y-4.3222
X6.4939Y-4.5111
X6.4939Y-4.9047
X6.4948Y-3.563
X6.6014Y-2.1354
X6.6014Y-2.3263
X6.6063Y-1.9488
T2
X5.1073Y-1.5524
X5.1618Y-1.4524
X5.2163Y-1.5524
X5.2709Y-1.4524
X5.3254Y-1.5524
X5.3799Y-1.4524
X5.4344Y-1.5524
X5.489Y-1.4524
X5.5435Y-1.5524
X5.598Y-1.4524
X5.6526Y-1.5524
X5.7071Y-1.4524
X5.7616Y-1.5524
X5.8161Y-1.4524
X5.8707Y-1.5524
X5.9252Y-1.4524
X5.9797Y-1.5524
X6.0343Y-1.4524
X6.0888Y-1.5524
X6.1433Y-1.4524
X6.1978Y-1.5524
X6.2524Y-1.4524
X6.3069Y-1.5524
X6.3614Y-1.4524
X6.4159Y-1.5524
T0
M30
