%TF.GenerationSoftware,KiCad,Pcbnew,(7.0.0)*%
%TF.CreationDate,2023-04-15T15:55:12-07:00*%
%TF.ProjectId,FaultSignalGenerator_Isaiah_16Channel,4661756c-7453-4696-976e-616c47656e65,rev?*%
%TF.SameCoordinates,Original*%
%TF.FileFunction,Drillmap*%
%TF.FilePolarity,Positive*%
%FSLAX45Y45*%
G04 Gerber Fmt 4.5, Leading zero omitted, Abs format (unit mm)*
G04 Created by KiCad (PCBNEW (7.0.0)) date 2023-04-15 15:55:12*
%MOMM*%
%LPD*%
G01*
G04 APERTURE LIST*
%ADD10C,0.050000*%
%ADD11C,0.200000*%
%ADD12C,0.030000*%
%ADD13C,0.100000*%
G04 APERTURE END LIST*
D10*
X4975000Y-2740000D02*
X17600000Y-2740000D01*
X17600000Y-2740000D02*
X17600000Y-14070000D01*
X17600000Y-14070000D02*
X4975000Y-14070000D01*
X4975000Y-14070000D02*
X4975000Y-2740000D01*
D11*
D12*
X5551658Y-7941456D02*
X5581658Y-7971456D01*
X5581658Y-7941456D02*
X5551658Y-7971456D01*
X5554831Y-4899686D02*
X5584831Y-4929686D01*
X5584831Y-4899686D02*
X5554831Y-4929686D01*
X5559545Y-3218543D02*
X5589545Y-3248543D01*
X5589545Y-3218543D02*
X5559545Y-3248543D01*
X5620943Y-6159429D02*
X5650943Y-6189429D01*
X5650943Y-6159429D02*
X5620943Y-6189429D01*
X5620943Y-7179314D02*
X5650943Y-7209314D01*
X5650943Y-7179314D02*
X5620943Y-7209314D01*
X5628428Y-5902752D02*
X5658428Y-5932752D01*
X5658428Y-5902752D02*
X5628428Y-5932752D01*
X5630276Y-5651476D02*
X5660276Y-5681476D01*
X5660276Y-5651476D02*
X5630276Y-5681476D01*
X5630575Y-10464475D02*
X5660575Y-10494475D01*
X5660575Y-10464475D02*
X5630575Y-10494475D01*
X5633272Y-6914500D02*
X5663272Y-6944500D01*
X5663272Y-6914500D02*
X5633272Y-6944500D01*
X5693000Y-9717940D02*
X5723000Y-9747940D01*
X5723000Y-9717940D02*
X5693000Y-9747940D01*
X5745000Y-13035000D02*
X5775000Y-13065000D01*
X5775000Y-13035000D02*
X5745000Y-13065000D01*
X6064774Y-4884905D02*
X6094774Y-4914905D01*
X6094774Y-4884905D02*
X6064774Y-4914905D01*
X6066716Y-3215772D02*
X6096716Y-3245772D01*
X6096716Y-3215772D02*
X6066716Y-3245772D01*
X6119800Y-10485625D02*
X6149800Y-10515625D01*
X6149800Y-10485625D02*
X6119800Y-10515625D01*
X6125343Y-6672143D02*
X6155343Y-6702143D01*
X6155343Y-6672143D02*
X6125343Y-6702143D01*
X6129772Y-5653229D02*
X6159772Y-5683229D01*
X6159772Y-5653229D02*
X6129772Y-5683229D01*
X6130886Y-9962086D02*
X6160886Y-9992086D01*
X6160886Y-9962086D02*
X6130886Y-9992086D01*
X6183400Y-6160400D02*
X6213400Y-6190400D01*
X6213400Y-6160400D02*
X6183400Y-6190400D01*
X6186172Y-5905429D02*
X6216172Y-5935429D01*
X6216172Y-5905429D02*
X6186172Y-5935429D01*
X6234162Y-7686390D02*
X6264162Y-7716390D01*
X6264162Y-7686390D02*
X6234162Y-7716390D01*
X6310000Y-11610000D02*
X6340000Y-11640000D01*
X6340000Y-11610000D02*
X6310000Y-11640000D01*
X6330000Y-12195000D02*
X6360000Y-12225000D01*
X6360000Y-12195000D02*
X6330000Y-12225000D01*
X6335000Y-11920000D02*
X6365000Y-11950000D01*
X6365000Y-11920000D02*
X6335000Y-11950000D01*
X6385000Y-12675000D02*
X6415000Y-12705000D01*
X6415000Y-12675000D02*
X6385000Y-12705000D01*
X6515000Y-13470000D02*
X6545000Y-13500000D01*
X6545000Y-13470000D02*
X6515000Y-13500000D01*
X6571116Y-3218543D02*
X6601116Y-3248543D01*
X6601116Y-3218543D02*
X6571116Y-3248543D01*
X6572868Y-4888600D02*
X6602868Y-4918600D01*
X6602868Y-4888600D02*
X6572868Y-4918600D01*
X6643599Y-12855195D02*
X6673599Y-12885195D01*
X6673599Y-12855195D02*
X6643599Y-12885195D01*
X6660000Y-12240000D02*
X6690000Y-12270000D01*
X6690000Y-12240000D02*
X6660000Y-12270000D01*
X6660228Y-11904596D02*
X6690228Y-11934596D01*
X6690228Y-11904596D02*
X6660228Y-11934596D01*
X6690000Y-11665000D02*
X6720000Y-11695000D01*
X6720000Y-11665000D02*
X6690000Y-11695000D01*
X6769000Y-5905476D02*
X6799000Y-5935476D01*
X6799000Y-5905476D02*
X6769000Y-5935476D01*
X6845000Y-13450000D02*
X6875000Y-13480000D01*
X6875000Y-13450000D02*
X6845000Y-13480000D01*
X6850000Y-12215000D02*
X6880000Y-12245000D01*
X6880000Y-12215000D02*
X6850000Y-12245000D01*
X6938105Y-6904587D02*
X6968105Y-6934587D01*
X6968105Y-6904587D02*
X6938105Y-6934587D01*
X6940142Y-10837597D02*
X6970142Y-10867597D01*
X6970142Y-10837597D02*
X6940142Y-10867597D01*
X6954828Y-10581085D02*
X6984828Y-10611085D01*
X6984828Y-10581085D02*
X6954828Y-10611085D01*
X6958985Y-10364914D02*
X6988985Y-10394914D01*
X6988985Y-10364914D02*
X6958985Y-10394914D01*
X6963142Y-10123800D02*
X6993142Y-10153800D01*
X6993142Y-10123800D02*
X6963142Y-10153800D01*
X6975000Y-11965000D02*
X7005000Y-11995000D01*
X7005000Y-11965000D02*
X6975000Y-11995000D01*
X7040000Y-11640000D02*
X7070000Y-11670000D01*
X7070000Y-11640000D02*
X7040000Y-11670000D01*
X7075420Y-4895990D02*
X7105420Y-4925990D01*
X7105420Y-4895990D02*
X7075420Y-4925990D01*
X7086601Y-3218543D02*
X7116601Y-3248543D01*
X7116601Y-3218543D02*
X7086601Y-3248543D01*
X7126562Y-5650600D02*
X7156562Y-5680600D01*
X7156562Y-5650600D02*
X7126562Y-5680600D01*
X7248800Y-10828800D02*
X7278800Y-10858800D01*
X7278800Y-10828800D02*
X7248800Y-10858800D01*
X7250050Y-9893800D02*
X7280050Y-9923800D01*
X7280050Y-9893800D02*
X7250050Y-9923800D01*
X7250050Y-10128800D02*
X7280050Y-10158800D01*
X7280050Y-10128800D02*
X7250050Y-10158800D01*
X7250050Y-10363800D02*
X7280050Y-10393800D01*
X7280050Y-10363800D02*
X7250050Y-10393800D01*
X7250050Y-10593800D02*
X7280050Y-10623800D01*
X7280050Y-10593800D02*
X7250050Y-10623800D01*
X7258736Y-6432501D02*
X7288736Y-6462501D01*
X7288736Y-6432501D02*
X7258736Y-6462501D01*
X7263519Y-5978157D02*
X7293519Y-6008157D01*
X7293519Y-5978157D02*
X7263519Y-6008157D01*
X7263519Y-6671630D02*
X7293519Y-6701630D01*
X7293519Y-6671630D02*
X7263519Y-6701630D01*
X7263519Y-6910758D02*
X7293519Y-6940758D01*
X7293519Y-6910758D02*
X7263519Y-6940758D01*
X7268302Y-6212503D02*
X7298302Y-6242503D01*
X7298302Y-6212503D02*
X7268302Y-6242503D01*
X7312379Y-9735216D02*
X7342379Y-9765216D01*
X7342379Y-9735216D02*
X7312379Y-9765216D01*
X7398067Y-5748689D02*
X7428067Y-5778689D01*
X7428067Y-5748689D02*
X7398067Y-5778689D01*
X7436648Y-9733026D02*
X7466648Y-9763026D01*
X7466648Y-9733026D02*
X7436648Y-9763026D01*
X7579915Y-3213000D02*
X7609915Y-3243000D01*
X7609915Y-3213000D02*
X7579915Y-3243000D01*
X7591001Y-8485200D02*
X7621001Y-8515200D01*
X7621001Y-8485200D02*
X7591001Y-8515200D01*
X7593772Y-8086115D02*
X7623772Y-8116115D01*
X7623772Y-8086115D02*
X7593772Y-8116115D01*
X7607534Y-4883057D02*
X7637534Y-4913057D01*
X7637534Y-4883057D02*
X7607534Y-4913057D01*
X7664567Y-12207544D02*
X7694567Y-12237544D01*
X7694567Y-12207544D02*
X7664567Y-12237544D01*
X7835250Y-6497692D02*
X7865250Y-6527692D01*
X7865250Y-6497692D02*
X7835250Y-6527692D01*
X7849879Y-10424978D02*
X7879879Y-10454978D01*
X7879879Y-10424978D02*
X7849879Y-10454978D01*
X7908095Y-8467712D02*
X7938095Y-8497712D01*
X7938095Y-8467712D02*
X7908095Y-8497712D01*
X7914472Y-8094672D02*
X7944472Y-8124672D01*
X7944472Y-8094672D02*
X7914472Y-8124672D01*
X8062143Y-9172514D02*
X8092143Y-9202514D01*
X8092143Y-9172514D02*
X8062143Y-9202514D01*
X8100848Y-4892295D02*
X8130848Y-4922295D01*
X8130848Y-4892295D02*
X8100848Y-4922295D01*
X8103714Y-3221315D02*
X8133714Y-3251315D01*
X8133714Y-3221315D02*
X8103714Y-3251315D01*
X8130000Y-12465000D02*
X8160000Y-12495000D01*
X8160000Y-12465000D02*
X8130000Y-12495000D01*
X8159563Y-12157000D02*
X8189563Y-12187000D01*
X8189563Y-12157000D02*
X8159563Y-12187000D01*
X8175000Y-13145000D02*
X8205000Y-13175000D01*
X8205000Y-13145000D02*
X8175000Y-13175000D01*
X8224697Y-8265493D02*
X8254697Y-8295493D01*
X8254697Y-8265493D02*
X8224697Y-8295493D01*
X8230293Y-8522429D02*
X8260293Y-8552429D01*
X8260293Y-8522429D02*
X8230293Y-8552429D01*
X8367000Y-10739548D02*
X8397000Y-10769548D01*
X8397000Y-10739548D02*
X8367000Y-10769548D01*
X8372543Y-10349700D02*
X8402543Y-10379700D01*
X8402543Y-10349700D02*
X8372543Y-10379700D01*
X8385838Y-9845839D02*
X8415839Y-9875839D01*
X8415839Y-9845839D02*
X8385838Y-9875839D01*
X8387557Y-6387592D02*
X8417557Y-6417592D01*
X8417557Y-6387592D02*
X8387557Y-6417592D01*
X8391519Y-6792286D02*
X8421519Y-6822286D01*
X8421519Y-6792286D02*
X8391519Y-6822286D01*
X8392333Y-10177205D02*
X8422333Y-10207205D01*
X8422333Y-10177205D02*
X8392333Y-10207205D01*
X8422429Y-12034828D02*
X8452429Y-12064828D01*
X8452429Y-12034828D02*
X8422429Y-12064828D01*
X8424772Y-12954772D02*
X8454772Y-12984772D01*
X8454772Y-12954772D02*
X8424772Y-12984772D01*
X8424794Y-6247752D02*
X8454794Y-6277752D01*
X8454794Y-6247752D02*
X8424794Y-6277752D01*
X8457550Y-9253800D02*
X8487550Y-9283800D01*
X8487550Y-9253800D02*
X8457550Y-9283800D01*
X8473472Y-12349607D02*
X8503472Y-12379607D01*
X8503472Y-12349607D02*
X8473472Y-12379607D01*
X8568472Y-12577107D02*
X8598472Y-12607107D01*
X8598472Y-12577107D02*
X8568472Y-12607107D01*
X8585000Y-8585000D02*
X8615000Y-8615000D01*
X8615000Y-8585000D02*
X8585000Y-8615000D01*
X8597857Y-4895990D02*
X8627857Y-4925990D01*
X8627857Y-4895990D02*
X8597857Y-4925990D01*
X8610886Y-3224086D02*
X8640886Y-3254086D01*
X8640886Y-3224086D02*
X8610886Y-3254086D01*
X8704303Y-8854333D02*
X8734303Y-8884333D01*
X8734303Y-8854333D02*
X8704303Y-8884333D01*
X8712880Y-8516984D02*
X8742880Y-8546984D01*
X8742880Y-8516984D02*
X8712880Y-8546984D01*
X8719892Y-9146541D02*
X8749892Y-9176541D01*
X8749892Y-9146541D02*
X8719892Y-9176541D01*
X8722003Y-8273648D02*
X8752003Y-8303648D01*
X8752003Y-8273648D02*
X8722003Y-8303648D01*
X8756383Y-8642495D02*
X8786383Y-8672495D01*
X8786383Y-8642495D02*
X8756383Y-8672495D01*
X8929661Y-9124661D02*
X8959661Y-9154661D01*
X8959661Y-9124661D02*
X8929661Y-9154661D01*
X9109742Y-3213000D02*
X9139742Y-3243000D01*
X9139742Y-3213000D02*
X9109742Y-3243000D01*
X9115190Y-4892295D02*
X9145190Y-4922295D01*
X9145190Y-4892295D02*
X9115190Y-4922295D01*
X9120535Y-8567057D02*
X9150535Y-8597057D01*
X9150535Y-8567057D02*
X9120535Y-8597057D01*
X9150103Y-7519234D02*
X9180103Y-7549234D01*
X9180103Y-7519234D02*
X9150103Y-7549234D01*
X9158474Y-7682459D02*
X9188474Y-7712459D01*
X9188474Y-7682459D02*
X9158474Y-7712459D01*
X9417550Y-8603800D02*
X9447550Y-8633800D01*
X9447550Y-8603800D02*
X9417550Y-8633800D01*
X9517000Y-11221000D02*
X9547000Y-11251000D01*
X9547000Y-11221000D02*
X9517000Y-11251000D01*
X9562029Y-11913714D02*
X9592029Y-11943714D01*
X9592029Y-11913714D02*
X9562029Y-11943714D01*
X9570770Y-12219685D02*
X9600770Y-12249685D01*
X9600770Y-12219685D02*
X9570770Y-12249685D01*
X9722931Y-11359746D02*
X9752931Y-11389746D01*
X9752931Y-11359746D02*
X9722931Y-11389746D01*
X9745228Y-6216444D02*
X9775228Y-6246444D01*
X9775228Y-6216444D02*
X9745228Y-6246444D01*
X9749228Y-5738038D02*
X9779228Y-5768038D01*
X9779228Y-5738038D02*
X9749228Y-5768038D01*
X9797380Y-9389840D02*
X9827380Y-9419840D01*
X9827380Y-9389840D02*
X9797380Y-9419840D01*
X9823535Y-8604960D02*
X9853535Y-8634960D01*
X9853535Y-8604960D02*
X9823535Y-8634960D01*
X9855369Y-11212666D02*
X9885369Y-11242666D01*
X9885369Y-11212666D02*
X9855369Y-11242666D01*
X10154740Y-6366940D02*
X10184740Y-6396940D01*
X10184740Y-6366940D02*
X10154740Y-6396940D01*
X10155000Y-7285000D02*
X10185000Y-7315000D01*
X10185000Y-7285000D02*
X10155000Y-7315000D01*
X10158590Y-7427590D02*
X10188590Y-7457590D01*
X10188590Y-7427590D02*
X10158590Y-7457590D01*
X10195857Y-5075114D02*
X10225857Y-5105114D01*
X10225857Y-5075114D02*
X10195857Y-5105114D01*
X10215040Y-5945870D02*
X10245040Y-5975870D01*
X10245040Y-5945870D02*
X10215040Y-5975870D01*
X10316626Y-9150305D02*
X10346626Y-9180305D01*
X10346626Y-9150305D02*
X10316626Y-9180305D01*
X10350933Y-10146931D02*
X10380933Y-10176931D01*
X10380933Y-10146931D02*
X10350933Y-10176931D01*
X10437184Y-5902353D02*
X10467184Y-5932353D01*
X10467184Y-5902353D02*
X10437184Y-5932353D01*
X10478109Y-10143801D02*
X10508109Y-10173801D01*
X10508109Y-10143801D02*
X10478109Y-10173801D01*
X10479324Y-9894695D02*
X10509324Y-9924695D01*
X10509324Y-9894695D02*
X10479324Y-9924695D01*
X10481172Y-10871895D02*
X10511172Y-10901895D01*
X10511172Y-10871895D02*
X10481172Y-10901895D01*
X10621515Y-9635868D02*
X10651515Y-9665868D01*
X10651515Y-9635868D02*
X10621515Y-9665868D01*
X10915897Y-6234052D02*
X10945897Y-6264052D01*
X10945897Y-6234052D02*
X10915897Y-6264052D01*
X10917114Y-11512924D02*
X10947114Y-11542924D01*
X10947114Y-11512924D02*
X10917114Y-11542924D01*
X10954950Y-5055212D02*
X10984950Y-5085212D01*
X10984950Y-5055212D02*
X10954950Y-5085212D01*
X11017860Y-11631618D02*
X11047860Y-11661618D01*
X11047860Y-11631618D02*
X11017860Y-11661618D01*
X11026975Y-4874073D02*
X11056975Y-4904073D01*
X11056975Y-4874073D02*
X11026975Y-4904073D01*
X11121584Y-5478110D02*
X11151584Y-5508110D01*
X11151584Y-5478110D02*
X11121584Y-5508110D01*
X11134128Y-9128975D02*
X11164128Y-9158975D01*
X11164128Y-9128975D02*
X11134128Y-9158975D01*
X11138923Y-11078828D02*
X11168923Y-11108828D01*
X11168923Y-11078828D02*
X11138923Y-11108828D01*
X11159247Y-10237381D02*
X11189247Y-10267381D01*
X11189247Y-10237381D02*
X11159247Y-10267381D01*
X11160744Y-10805099D02*
X11190744Y-10835099D01*
X11190744Y-10805099D02*
X11160744Y-10835099D01*
X11187538Y-6224703D02*
X11217538Y-6254703D01*
X11217538Y-6224703D02*
X11187538Y-6254703D01*
X11203889Y-4569304D02*
X11233889Y-4599304D01*
X11233889Y-4569304D02*
X11203889Y-4599304D01*
X11246550Y-4873800D02*
X11276550Y-4903800D01*
X11276550Y-4873800D02*
X11246550Y-4903800D01*
X11261190Y-10802619D02*
X11291190Y-10832619D01*
X11291190Y-10802619D02*
X11261190Y-10832619D01*
X11327617Y-6712086D02*
X11357617Y-6742086D01*
X11357617Y-6712086D02*
X11327617Y-6742086D01*
X11375324Y-11363977D02*
X11405324Y-11393977D01*
X11405324Y-11363977D02*
X11375324Y-11393977D01*
X11415000Y-7605000D02*
X11445000Y-7635000D01*
X11445000Y-7605000D02*
X11415000Y-7635000D01*
X11541505Y-11704026D02*
X11571505Y-11734026D01*
X11571505Y-11704026D02*
X11541505Y-11734026D01*
X11632086Y-9877875D02*
X11662086Y-9907875D01*
X11662086Y-9877875D02*
X11632086Y-9907875D01*
X11686050Y-10867149D02*
X11716050Y-10897149D01*
X11716050Y-10867149D02*
X11686050Y-10897149D01*
X11704550Y-6859061D02*
X11734550Y-6889061D01*
X11734550Y-6859061D02*
X11704550Y-6889061D01*
X11745941Y-6086982D02*
X11775941Y-6116982D01*
X11775941Y-6086982D02*
X11745941Y-6116982D01*
X11767867Y-9872856D02*
X11797867Y-9902856D01*
X11797867Y-9872856D02*
X11767867Y-9902856D01*
X11850401Y-9795593D02*
X11880401Y-9825593D01*
X11880401Y-9795593D02*
X11850401Y-9825593D01*
X11860055Y-9669724D02*
X11890055Y-9699724D01*
X11890055Y-9669724D02*
X11860055Y-9699724D01*
X11923000Y-8367000D02*
X11953000Y-8397000D01*
X11953000Y-8367000D02*
X11923000Y-8397000D01*
X11941302Y-10933006D02*
X11971302Y-10963006D01*
X11971302Y-10933006D02*
X11941302Y-10963006D01*
X11961151Y-10355857D02*
X11991151Y-10385857D01*
X11991151Y-10355857D02*
X11961151Y-10385857D01*
X12012120Y-6874148D02*
X12042120Y-6904148D01*
X12042120Y-6874148D02*
X12012120Y-6904148D01*
X12026915Y-6380561D02*
X12056915Y-6410561D01*
X12056915Y-6380561D02*
X12026915Y-6410561D01*
X12027550Y-10236300D02*
X12057550Y-10266300D01*
X12057550Y-10236300D02*
X12027550Y-10266300D01*
X12048294Y-11239652D02*
X12078294Y-11269652D01*
X12078294Y-11239652D02*
X12048294Y-11269652D01*
X12097171Y-11917268D02*
X12127171Y-11947268D01*
X12127171Y-11917268D02*
X12097171Y-11947268D01*
X12100494Y-12420532D02*
X12130494Y-12450532D01*
X12130494Y-12420532D02*
X12100494Y-12450532D01*
X12125267Y-6044924D02*
X12155267Y-6074924D01*
X12155267Y-6044924D02*
X12125267Y-6074924D01*
X12126550Y-5543800D02*
X12156550Y-5573800D01*
X12156550Y-5543800D02*
X12126550Y-5573800D01*
X12177000Y-8367000D02*
X12207000Y-8397000D01*
X12207000Y-8367000D02*
X12177000Y-8397000D01*
X12203657Y-9863934D02*
X12233657Y-9893934D01*
X12233657Y-9863934D02*
X12203657Y-9893934D01*
X12206562Y-6305438D02*
X12236562Y-6335438D01*
X12236562Y-6305438D02*
X12206562Y-6335438D01*
X12251056Y-5547599D02*
X12281056Y-5577599D01*
X12281056Y-5547599D02*
X12251056Y-5577599D01*
X12259842Y-6045158D02*
X12289842Y-6075158D01*
X12289842Y-6045158D02*
X12259842Y-6075158D01*
X12298172Y-11634685D02*
X12328172Y-11664685D01*
X12328172Y-11634685D02*
X12298172Y-11664685D01*
X12306993Y-7431390D02*
X12336993Y-7461390D01*
X12336993Y-7431390D02*
X12306993Y-7461390D01*
X12308233Y-7348305D02*
X12338233Y-7378305D01*
X12338233Y-7348305D02*
X12308233Y-7378305D01*
X12448550Y-10884037D02*
X12478550Y-10914037D01*
X12478550Y-10884037D02*
X12448550Y-10914037D01*
X12478338Y-11231684D02*
X12508338Y-11261684D01*
X12508338Y-11231684D02*
X12478338Y-11261684D01*
X12478338Y-11314769D02*
X12508338Y-11344769D01*
X12508338Y-11314769D02*
X12478338Y-11344769D01*
X12488893Y-9576750D02*
X12518893Y-9606750D01*
X12518893Y-9576750D02*
X12488893Y-9606750D01*
X12502861Y-5545910D02*
X12532861Y-5575910D01*
X12532861Y-5545910D02*
X12502861Y-5575910D01*
X12506047Y-5976472D02*
X12536047Y-6006472D01*
X12536047Y-5976472D02*
X12506047Y-6006472D01*
X12615572Y-7966943D02*
X12645572Y-7996943D01*
X12645572Y-7966943D02*
X12615572Y-7996943D01*
X12621974Y-8497094D02*
X12651974Y-8527094D01*
X12651974Y-8497094D02*
X12621974Y-8527094D01*
X12636650Y-10461156D02*
X12666650Y-10491156D01*
X12666650Y-10461156D02*
X12636650Y-10491156D01*
X12649019Y-7705648D02*
X12679019Y-7735648D01*
X12679019Y-7705648D02*
X12649019Y-7735648D01*
X12666524Y-5978765D02*
X12696524Y-6008765D01*
X12696524Y-5978765D02*
X12666524Y-6008765D01*
X12680159Y-10227205D02*
X12710159Y-10257205D01*
X12710159Y-10227205D02*
X12680159Y-10257205D01*
X12731465Y-10016727D02*
X12761465Y-10046727D01*
X12761465Y-10016727D02*
X12731465Y-10046727D01*
X12912289Y-10724260D02*
X12942289Y-10754260D01*
X12942289Y-10724260D02*
X12912289Y-10754260D01*
X13083493Y-11113838D02*
X13113493Y-11143838D01*
X13113493Y-11113838D02*
X13083493Y-11143838D01*
X13115000Y-7315910D02*
X13145000Y-7345910D01*
X13145000Y-7315910D02*
X13115000Y-7345910D01*
X13155181Y-5974363D02*
X13185181Y-6004363D01*
X13185181Y-5974363D02*
X13155181Y-6004363D01*
X13351705Y-12340467D02*
X13381705Y-12370467D01*
X13381705Y-12340467D02*
X13351705Y-12370467D01*
X13377390Y-5490196D02*
X13407390Y-5520196D01*
X13407390Y-5490196D02*
X13377390Y-5520196D01*
X13414391Y-10244375D02*
X13444391Y-10274375D01*
X13444391Y-10244375D02*
X13414391Y-10274375D01*
X13461088Y-12471856D02*
X13491088Y-12501856D01*
X13491088Y-12471856D02*
X13461088Y-12501856D01*
X13476547Y-11326740D02*
X13506547Y-11356740D01*
X13506547Y-11326740D02*
X13476547Y-11356740D01*
X13480267Y-11414785D02*
X13510267Y-11444785D01*
X13510267Y-11414785D02*
X13480267Y-11444785D01*
X13520100Y-6472380D02*
X13550100Y-6502380D01*
X13550100Y-6472380D02*
X13520100Y-6502380D01*
X13561102Y-6977521D02*
X13591102Y-7007521D01*
X13591102Y-6977521D02*
X13561102Y-7007521D01*
X13596054Y-6044737D02*
X13626054Y-6074737D01*
X13626054Y-6044737D02*
X13596054Y-6074737D01*
X13690000Y-11051350D02*
X13720000Y-11081350D01*
X13720000Y-11051350D02*
X13690000Y-11081350D01*
X13705100Y-6619696D02*
X13735100Y-6649696D01*
X13735100Y-6619696D02*
X13705100Y-6649696D01*
X13711949Y-11382701D02*
X13741949Y-11412701D01*
X13741949Y-11382701D02*
X13711949Y-11412701D01*
X13716787Y-10235313D02*
X13746787Y-10265313D01*
X13746787Y-10235313D02*
X13716787Y-10265313D01*
X13780926Y-11477408D02*
X13810926Y-11507408D01*
X13810926Y-11477408D02*
X13780926Y-11507408D01*
X13816748Y-11887599D02*
X13846748Y-11917599D01*
X13846748Y-11887599D02*
X13816748Y-11917599D01*
X13880000Y-7315000D02*
X13910000Y-7345000D01*
X13910000Y-7315000D02*
X13880000Y-7345000D01*
X13901367Y-5754022D02*
X13931367Y-5784022D01*
X13931367Y-5754022D02*
X13901367Y-5784022D01*
X13901419Y-5490734D02*
X13931419Y-5520734D01*
X13931419Y-5490734D02*
X13901419Y-5520734D01*
X13972457Y-7964006D02*
X14002457Y-7994006D01*
X14002457Y-7964006D02*
X13972457Y-7994006D01*
X14012892Y-11401451D02*
X14042892Y-11431451D01*
X14042892Y-11401451D02*
X14012892Y-11431451D01*
X14055000Y-8900000D02*
X14085000Y-8930000D01*
X14085000Y-8900000D02*
X14055000Y-8930000D01*
X14065000Y-8605000D02*
X14095000Y-8635000D01*
X14095000Y-8605000D02*
X14065000Y-8635000D01*
X14090473Y-10479833D02*
X14120473Y-10509833D01*
X14120473Y-10479833D02*
X14090473Y-10509833D01*
X14126403Y-12348539D02*
X14156403Y-12378539D01*
X14156403Y-12348539D02*
X14126403Y-12378539D01*
X14191230Y-6866083D02*
X14221230Y-6896083D01*
X14221230Y-6866083D02*
X14191230Y-6896083D01*
X14389701Y-11578036D02*
X14419701Y-11608036D01*
X14419701Y-11578036D02*
X14389701Y-11608036D01*
X14471456Y-7469058D02*
X14501456Y-7499058D01*
X14501456Y-7469058D02*
X14471456Y-7499058D01*
X14506661Y-6631081D02*
X14536661Y-6661081D01*
X14536661Y-6631081D02*
X14506661Y-6661081D01*
X14510006Y-7126264D02*
X14540006Y-7156264D01*
X14540006Y-7126264D02*
X14510006Y-7156264D01*
X14581496Y-10539387D02*
X14611496Y-10569387D01*
X14611496Y-10539387D02*
X14581496Y-10569387D01*
X14635000Y-6675000D02*
X14665000Y-6705000D01*
X14665000Y-6675000D02*
X14635000Y-6705000D01*
X14635912Y-7180460D02*
X14665912Y-7210460D01*
X14665912Y-7180460D02*
X14635912Y-7210460D01*
X14642550Y-11143800D02*
X14672550Y-11173800D01*
X14672550Y-11143800D02*
X14642550Y-11173800D01*
X14642550Y-11638800D02*
X14672550Y-11668800D01*
X14672550Y-11638800D02*
X14642550Y-11668800D01*
X14659207Y-10627570D02*
X14689207Y-10657570D01*
X14689207Y-10627570D02*
X14659207Y-10657570D01*
X14770000Y-11640000D02*
X14800000Y-11670000D01*
X14800000Y-11640000D02*
X14770000Y-11670000D01*
X14770084Y-11132504D02*
X14800084Y-11162504D01*
X14800084Y-11132504D02*
X14770084Y-11162504D01*
X15012515Y-7076403D02*
X15042515Y-7106403D01*
X15042515Y-7076403D02*
X15012515Y-7106403D01*
X15019153Y-6603950D02*
X15049153Y-6633950D01*
X15049153Y-6603950D02*
X15019153Y-6633950D01*
X15050244Y-11312968D02*
X15080244Y-11342968D01*
X15080244Y-11312968D02*
X15050244Y-11342968D01*
X15400000Y-5795000D02*
X15430000Y-5825000D01*
X15430000Y-5795000D02*
X15400000Y-5825000D01*
X15555000Y-5995000D02*
X15585000Y-6025000D01*
X15585000Y-5995000D02*
X15555000Y-6025000D01*
X16440050Y-5893800D02*
X16470050Y-5923800D01*
X16470050Y-5893800D02*
X16440050Y-5923800D01*
X16445050Y-7818800D02*
X16475050Y-7848800D01*
X16475050Y-7818800D02*
X16445050Y-7848800D01*
X16461786Y-5162515D02*
X16491786Y-5192515D01*
X16491786Y-5162515D02*
X16461786Y-5192515D01*
X16461786Y-7577495D02*
X16491786Y-7607495D01*
X16491786Y-7577495D02*
X16461786Y-7607495D01*
X16464008Y-7093166D02*
X16494008Y-7123166D01*
X16494008Y-7093166D02*
X16464008Y-7123166D01*
X16466229Y-6617724D02*
X16496229Y-6647724D01*
X16496229Y-6617724D02*
X16466229Y-6647724D01*
X16468451Y-5649066D02*
X16498451Y-5679066D01*
X16498451Y-5649066D02*
X16468451Y-5679066D01*
X16468451Y-6133395D02*
X16498451Y-6163395D01*
X16498451Y-6133395D02*
X16468451Y-6163395D01*
X16470673Y-10481247D02*
X16500673Y-10511247D01*
X16500673Y-10481247D02*
X16470673Y-10511247D01*
X16472894Y-8546153D02*
X16502894Y-8576153D01*
X16502894Y-8546153D02*
X16472894Y-8576153D01*
X16472894Y-9992475D02*
X16502894Y-10022475D01*
X16502894Y-9992475D02*
X16472894Y-10022475D01*
X16475116Y-8057381D02*
X16505116Y-8087381D01*
X16505116Y-8057381D02*
X16475116Y-8087381D01*
X16475116Y-9505924D02*
X16505116Y-9535924D01*
X16505116Y-9505924D02*
X16475116Y-9535924D01*
X16475116Y-11720951D02*
X16505116Y-11750951D01*
X16505116Y-11720951D02*
X16475116Y-11750951D01*
X16479559Y-10963354D02*
X16509559Y-10993354D01*
X16509559Y-10963354D02*
X16479559Y-10993354D01*
X16479559Y-11443240D02*
X16509559Y-11473240D01*
X16509559Y-11443240D02*
X16479559Y-11473240D01*
X16479559Y-12443001D02*
X16509559Y-12473001D01*
X16509559Y-12443001D02*
X16479559Y-12473001D01*
X16481781Y-9034925D02*
X16511781Y-9064925D01*
X16511781Y-9034925D02*
X16481781Y-9064925D01*
X16752550Y-5408800D02*
X16782550Y-5438800D01*
X16782550Y-5408800D02*
X16752550Y-5438800D01*
X16752550Y-5893800D02*
X16782550Y-5923800D01*
X16782550Y-5893800D02*
X16752550Y-5923800D01*
X16765000Y-4935000D02*
X16795000Y-4965000D01*
X16795000Y-4935000D02*
X16765000Y-4965000D01*
D13*
X13022500Y-3943033D02*
G75*
G03*
X13022500Y-3943033I-50000J0D01*
G01*
X13161000Y-3689033D02*
G75*
G03*
X13161000Y-3689033I-50000J0D01*
G01*
X13299500Y-3943033D02*
G75*
G03*
X13299500Y-3943033I-50000J0D01*
G01*
X13438000Y-3689033D02*
G75*
G03*
X13438000Y-3689033I-50000J0D01*
G01*
X13576500Y-3943033D02*
G75*
G03*
X13576500Y-3943033I-50000J0D01*
G01*
X13715000Y-3689033D02*
G75*
G03*
X13715000Y-3689033I-50000J0D01*
G01*
X13853500Y-3943033D02*
G75*
G03*
X13853500Y-3943033I-50000J0D01*
G01*
X13992000Y-3689033D02*
G75*
G03*
X13992000Y-3689033I-50000J0D01*
G01*
X14130500Y-3943033D02*
G75*
G03*
X14130500Y-3943033I-50000J0D01*
G01*
X14269000Y-3689033D02*
G75*
G03*
X14269000Y-3689033I-50000J0D01*
G01*
X14407500Y-3943033D02*
G75*
G03*
X14407500Y-3943033I-50000J0D01*
G01*
X14546000Y-3689033D02*
G75*
G03*
X14546000Y-3689033I-50000J0D01*
G01*
X14684500Y-3943033D02*
G75*
G03*
X14684500Y-3943033I-50000J0D01*
G01*
X14823000Y-3689033D02*
G75*
G03*
X14823000Y-3689033I-50000J0D01*
G01*
X14961500Y-3943033D02*
G75*
G03*
X14961500Y-3943033I-50000J0D01*
G01*
X15100000Y-3689033D02*
G75*
G03*
X15100000Y-3689033I-50000J0D01*
G01*
X15238500Y-3943033D02*
G75*
G03*
X15238500Y-3943033I-50000J0D01*
G01*
X15377000Y-3689033D02*
G75*
G03*
X15377000Y-3689033I-50000J0D01*
G01*
X15515500Y-3943033D02*
G75*
G03*
X15515500Y-3943033I-50000J0D01*
G01*
X15654000Y-3689033D02*
G75*
G03*
X15654000Y-3689033I-50000J0D01*
G01*
X15792500Y-3943033D02*
G75*
G03*
X15792500Y-3943033I-50000J0D01*
G01*
X15931000Y-3689033D02*
G75*
G03*
X15931000Y-3689033I-50000J0D01*
G01*
X16069500Y-3943033D02*
G75*
G03*
X16069500Y-3943033I-50000J0D01*
G01*
X16208000Y-3689033D02*
G75*
G03*
X16208000Y-3689033I-50000J0D01*
G01*
X16346500Y-3943033D02*
G75*
G03*
X16346500Y-3943033I-50000J0D01*
G01*
D11*
X5220119Y-14365976D02*
X5220119Y-14165976D01*
X5220119Y-14165976D02*
X5267738Y-14165976D01*
X5267738Y-14165976D02*
X5296310Y-14175500D01*
X5296310Y-14175500D02*
X5315357Y-14194548D01*
X5315357Y-14194548D02*
X5324881Y-14213595D01*
X5324881Y-14213595D02*
X5334405Y-14251690D01*
X5334405Y-14251690D02*
X5334405Y-14280262D01*
X5334405Y-14280262D02*
X5324881Y-14318357D01*
X5324881Y-14318357D02*
X5315357Y-14337405D01*
X5315357Y-14337405D02*
X5296310Y-14356452D01*
X5296310Y-14356452D02*
X5267738Y-14365976D01*
X5267738Y-14365976D02*
X5220119Y-14365976D01*
X5420119Y-14365976D02*
X5420119Y-14232643D01*
X5420119Y-14270738D02*
X5429643Y-14251690D01*
X5429643Y-14251690D02*
X5439167Y-14242167D01*
X5439167Y-14242167D02*
X5458214Y-14232643D01*
X5458214Y-14232643D02*
X5477262Y-14232643D01*
X5543929Y-14365976D02*
X5543929Y-14232643D01*
X5543929Y-14165976D02*
X5534405Y-14175500D01*
X5534405Y-14175500D02*
X5543929Y-14185024D01*
X5543929Y-14185024D02*
X5553452Y-14175500D01*
X5553452Y-14175500D02*
X5543929Y-14165976D01*
X5543929Y-14165976D02*
X5543929Y-14185024D01*
X5667738Y-14365976D02*
X5648690Y-14356452D01*
X5648690Y-14356452D02*
X5639167Y-14337405D01*
X5639167Y-14337405D02*
X5639167Y-14165976D01*
X5772500Y-14365976D02*
X5753452Y-14356452D01*
X5753452Y-14356452D02*
X5743928Y-14337405D01*
X5743928Y-14337405D02*
X5743928Y-14165976D01*
X5968690Y-14365976D02*
X5968690Y-14165976D01*
X5968690Y-14165976D02*
X6035357Y-14308833D01*
X6035357Y-14308833D02*
X6102024Y-14165976D01*
X6102024Y-14165976D02*
X6102024Y-14365976D01*
X6282976Y-14365976D02*
X6282976Y-14261214D01*
X6282976Y-14261214D02*
X6273452Y-14242167D01*
X6273452Y-14242167D02*
X6254405Y-14232643D01*
X6254405Y-14232643D02*
X6216309Y-14232643D01*
X6216309Y-14232643D02*
X6197262Y-14242167D01*
X6282976Y-14356452D02*
X6263928Y-14365976D01*
X6263928Y-14365976D02*
X6216309Y-14365976D01*
X6216309Y-14365976D02*
X6197262Y-14356452D01*
X6197262Y-14356452D02*
X6187738Y-14337405D01*
X6187738Y-14337405D02*
X6187738Y-14318357D01*
X6187738Y-14318357D02*
X6197262Y-14299309D01*
X6197262Y-14299309D02*
X6216309Y-14289786D01*
X6216309Y-14289786D02*
X6263928Y-14289786D01*
X6263928Y-14289786D02*
X6282976Y-14280262D01*
X6378214Y-14232643D02*
X6378214Y-14432643D01*
X6378214Y-14242167D02*
X6397262Y-14232643D01*
X6397262Y-14232643D02*
X6435357Y-14232643D01*
X6435357Y-14232643D02*
X6454405Y-14242167D01*
X6454405Y-14242167D02*
X6463928Y-14251690D01*
X6463928Y-14251690D02*
X6473452Y-14270738D01*
X6473452Y-14270738D02*
X6473452Y-14327881D01*
X6473452Y-14327881D02*
X6463928Y-14346928D01*
X6463928Y-14346928D02*
X6454405Y-14356452D01*
X6454405Y-14356452D02*
X6435357Y-14365976D01*
X6435357Y-14365976D02*
X6397262Y-14365976D01*
X6397262Y-14365976D02*
X6378214Y-14356452D01*
X6559167Y-14346928D02*
X6568690Y-14356452D01*
X6568690Y-14356452D02*
X6559167Y-14365976D01*
X6559167Y-14365976D02*
X6549643Y-14356452D01*
X6549643Y-14356452D02*
X6559167Y-14346928D01*
X6559167Y-14346928D02*
X6559167Y-14365976D01*
X6559167Y-14242167D02*
X6568690Y-14251690D01*
X6568690Y-14251690D02*
X6559167Y-14261214D01*
X6559167Y-14261214D02*
X6549643Y-14251690D01*
X6549643Y-14251690D02*
X6559167Y-14242167D01*
X6559167Y-14242167D02*
X6559167Y-14261214D01*
D12*
X4942500Y-14697500D02*
X4972500Y-14727500D01*
X4972500Y-14697500D02*
X4942500Y-14727500D01*
D11*
X5258214Y-14585976D02*
X5277262Y-14585976D01*
X5277262Y-14585976D02*
X5296310Y-14595500D01*
X5296310Y-14595500D02*
X5305833Y-14605024D01*
X5305833Y-14605024D02*
X5315357Y-14624071D01*
X5315357Y-14624071D02*
X5324881Y-14662167D01*
X5324881Y-14662167D02*
X5324881Y-14709786D01*
X5324881Y-14709786D02*
X5315357Y-14747881D01*
X5315357Y-14747881D02*
X5305833Y-14766928D01*
X5305833Y-14766928D02*
X5296310Y-14776452D01*
X5296310Y-14776452D02*
X5277262Y-14785976D01*
X5277262Y-14785976D02*
X5258214Y-14785976D01*
X5258214Y-14785976D02*
X5239167Y-14776452D01*
X5239167Y-14776452D02*
X5229643Y-14766928D01*
X5229643Y-14766928D02*
X5220119Y-14747881D01*
X5220119Y-14747881D02*
X5210595Y-14709786D01*
X5210595Y-14709786D02*
X5210595Y-14662167D01*
X5210595Y-14662167D02*
X5220119Y-14624071D01*
X5220119Y-14624071D02*
X5229643Y-14605024D01*
X5229643Y-14605024D02*
X5239167Y-14595500D01*
X5239167Y-14595500D02*
X5258214Y-14585976D01*
X5410595Y-14766928D02*
X5420119Y-14776452D01*
X5420119Y-14776452D02*
X5410595Y-14785976D01*
X5410595Y-14785976D02*
X5401071Y-14776452D01*
X5401071Y-14776452D02*
X5410595Y-14766928D01*
X5410595Y-14766928D02*
X5410595Y-14785976D01*
X5486786Y-14585976D02*
X5610595Y-14585976D01*
X5610595Y-14585976D02*
X5543929Y-14662167D01*
X5543929Y-14662167D02*
X5572500Y-14662167D01*
X5572500Y-14662167D02*
X5591548Y-14671690D01*
X5591548Y-14671690D02*
X5601071Y-14681214D01*
X5601071Y-14681214D02*
X5610595Y-14700262D01*
X5610595Y-14700262D02*
X5610595Y-14747881D01*
X5610595Y-14747881D02*
X5601071Y-14766928D01*
X5601071Y-14766928D02*
X5591548Y-14776452D01*
X5591548Y-14776452D02*
X5572500Y-14785976D01*
X5572500Y-14785976D02*
X5515357Y-14785976D01*
X5515357Y-14785976D02*
X5496310Y-14776452D01*
X5496310Y-14776452D02*
X5486786Y-14766928D01*
X5734405Y-14585976D02*
X5753452Y-14585976D01*
X5753452Y-14585976D02*
X5772500Y-14595500D01*
X5772500Y-14595500D02*
X5782024Y-14605024D01*
X5782024Y-14605024D02*
X5791548Y-14624071D01*
X5791548Y-14624071D02*
X5801071Y-14662167D01*
X5801071Y-14662167D02*
X5801071Y-14709786D01*
X5801071Y-14709786D02*
X5791548Y-14747881D01*
X5791548Y-14747881D02*
X5782024Y-14766928D01*
X5782024Y-14766928D02*
X5772500Y-14776452D01*
X5772500Y-14776452D02*
X5753452Y-14785976D01*
X5753452Y-14785976D02*
X5734405Y-14785976D01*
X5734405Y-14785976D02*
X5715357Y-14776452D01*
X5715357Y-14776452D02*
X5705833Y-14766928D01*
X5705833Y-14766928D02*
X5696309Y-14747881D01*
X5696309Y-14747881D02*
X5686786Y-14709786D01*
X5686786Y-14709786D02*
X5686786Y-14662167D01*
X5686786Y-14662167D02*
X5696309Y-14624071D01*
X5696309Y-14624071D02*
X5705833Y-14605024D01*
X5705833Y-14605024D02*
X5715357Y-14595500D01*
X5715357Y-14595500D02*
X5734405Y-14585976D01*
X5924881Y-14585976D02*
X5943929Y-14585976D01*
X5943929Y-14585976D02*
X5962976Y-14595500D01*
X5962976Y-14595500D02*
X5972500Y-14605024D01*
X5972500Y-14605024D02*
X5982024Y-14624071D01*
X5982024Y-14624071D02*
X5991548Y-14662167D01*
X5991548Y-14662167D02*
X5991548Y-14709786D01*
X5991548Y-14709786D02*
X5982024Y-14747881D01*
X5982024Y-14747881D02*
X5972500Y-14766928D01*
X5972500Y-14766928D02*
X5962976Y-14776452D01*
X5962976Y-14776452D02*
X5943929Y-14785976D01*
X5943929Y-14785976D02*
X5924881Y-14785976D01*
X5924881Y-14785976D02*
X5905833Y-14776452D01*
X5905833Y-14776452D02*
X5896309Y-14766928D01*
X5896309Y-14766928D02*
X5886786Y-14747881D01*
X5886786Y-14747881D02*
X5877262Y-14709786D01*
X5877262Y-14709786D02*
X5877262Y-14662167D01*
X5877262Y-14662167D02*
X5886786Y-14624071D01*
X5886786Y-14624071D02*
X5896309Y-14605024D01*
X5896309Y-14605024D02*
X5905833Y-14595500D01*
X5905833Y-14595500D02*
X5924881Y-14585976D01*
X6077262Y-14785976D02*
X6077262Y-14652643D01*
X6077262Y-14671690D02*
X6086786Y-14662167D01*
X6086786Y-14662167D02*
X6105833Y-14652643D01*
X6105833Y-14652643D02*
X6134405Y-14652643D01*
X6134405Y-14652643D02*
X6153452Y-14662167D01*
X6153452Y-14662167D02*
X6162976Y-14681214D01*
X6162976Y-14681214D02*
X6162976Y-14785976D01*
X6162976Y-14681214D02*
X6172500Y-14662167D01*
X6172500Y-14662167D02*
X6191548Y-14652643D01*
X6191548Y-14652643D02*
X6220119Y-14652643D01*
X6220119Y-14652643D02*
X6239167Y-14662167D01*
X6239167Y-14662167D02*
X6248690Y-14681214D01*
X6248690Y-14681214D02*
X6248690Y-14785976D01*
X6343929Y-14785976D02*
X6343929Y-14652643D01*
X6343929Y-14671690D02*
X6353452Y-14662167D01*
X6353452Y-14662167D02*
X6372500Y-14652643D01*
X6372500Y-14652643D02*
X6401071Y-14652643D01*
X6401071Y-14652643D02*
X6420119Y-14662167D01*
X6420119Y-14662167D02*
X6429643Y-14681214D01*
X6429643Y-14681214D02*
X6429643Y-14785976D01*
X6429643Y-14681214D02*
X6439167Y-14662167D01*
X6439167Y-14662167D02*
X6458214Y-14652643D01*
X6458214Y-14652643D02*
X6486786Y-14652643D01*
X6486786Y-14652643D02*
X6505833Y-14662167D01*
X6505833Y-14662167D02*
X6515357Y-14681214D01*
X6515357Y-14681214D02*
X6515357Y-14785976D01*
X6873452Y-14576452D02*
X6702024Y-14833595D01*
X7098214Y-14585976D02*
X7117262Y-14585976D01*
X7117262Y-14585976D02*
X7136310Y-14595500D01*
X7136310Y-14595500D02*
X7145833Y-14605024D01*
X7145833Y-14605024D02*
X7155357Y-14624071D01*
X7155357Y-14624071D02*
X7164881Y-14662167D01*
X7164881Y-14662167D02*
X7164881Y-14709786D01*
X7164881Y-14709786D02*
X7155357Y-14747881D01*
X7155357Y-14747881D02*
X7145833Y-14766928D01*
X7145833Y-14766928D02*
X7136310Y-14776452D01*
X7136310Y-14776452D02*
X7117262Y-14785976D01*
X7117262Y-14785976D02*
X7098214Y-14785976D01*
X7098214Y-14785976D02*
X7079167Y-14776452D01*
X7079167Y-14776452D02*
X7069643Y-14766928D01*
X7069643Y-14766928D02*
X7060119Y-14747881D01*
X7060119Y-14747881D02*
X7050595Y-14709786D01*
X7050595Y-14709786D02*
X7050595Y-14662167D01*
X7050595Y-14662167D02*
X7060119Y-14624071D01*
X7060119Y-14624071D02*
X7069643Y-14605024D01*
X7069643Y-14605024D02*
X7079167Y-14595500D01*
X7079167Y-14595500D02*
X7098214Y-14585976D01*
X7250595Y-14766928D02*
X7260119Y-14776452D01*
X7260119Y-14776452D02*
X7250595Y-14785976D01*
X7250595Y-14785976D02*
X7241071Y-14776452D01*
X7241071Y-14776452D02*
X7250595Y-14766928D01*
X7250595Y-14766928D02*
X7250595Y-14785976D01*
X7383929Y-14585976D02*
X7402976Y-14585976D01*
X7402976Y-14585976D02*
X7422024Y-14595500D01*
X7422024Y-14595500D02*
X7431548Y-14605024D01*
X7431548Y-14605024D02*
X7441071Y-14624071D01*
X7441071Y-14624071D02*
X7450595Y-14662167D01*
X7450595Y-14662167D02*
X7450595Y-14709786D01*
X7450595Y-14709786D02*
X7441071Y-14747881D01*
X7441071Y-14747881D02*
X7431548Y-14766928D01*
X7431548Y-14766928D02*
X7422024Y-14776452D01*
X7422024Y-14776452D02*
X7402976Y-14785976D01*
X7402976Y-14785976D02*
X7383929Y-14785976D01*
X7383929Y-14785976D02*
X7364881Y-14776452D01*
X7364881Y-14776452D02*
X7355357Y-14766928D01*
X7355357Y-14766928D02*
X7345833Y-14747881D01*
X7345833Y-14747881D02*
X7336310Y-14709786D01*
X7336310Y-14709786D02*
X7336310Y-14662167D01*
X7336310Y-14662167D02*
X7345833Y-14624071D01*
X7345833Y-14624071D02*
X7355357Y-14605024D01*
X7355357Y-14605024D02*
X7364881Y-14595500D01*
X7364881Y-14595500D02*
X7383929Y-14585976D01*
X7641071Y-14785976D02*
X7526786Y-14785976D01*
X7583929Y-14785976D02*
X7583929Y-14585976D01*
X7583929Y-14585976D02*
X7564881Y-14614548D01*
X7564881Y-14614548D02*
X7545833Y-14633595D01*
X7545833Y-14633595D02*
X7526786Y-14643119D01*
X7831548Y-14785976D02*
X7717262Y-14785976D01*
X7774405Y-14785976D02*
X7774405Y-14585976D01*
X7774405Y-14585976D02*
X7755357Y-14614548D01*
X7755357Y-14614548D02*
X7736310Y-14633595D01*
X7736310Y-14633595D02*
X7717262Y-14643119D01*
X7945833Y-14671690D02*
X7926786Y-14662167D01*
X7926786Y-14662167D02*
X7917262Y-14652643D01*
X7917262Y-14652643D02*
X7907738Y-14633595D01*
X7907738Y-14633595D02*
X7907738Y-14624071D01*
X7907738Y-14624071D02*
X7917262Y-14605024D01*
X7917262Y-14605024D02*
X7926786Y-14595500D01*
X7926786Y-14595500D02*
X7945833Y-14585976D01*
X7945833Y-14585976D02*
X7983929Y-14585976D01*
X7983929Y-14585976D02*
X8002976Y-14595500D01*
X8002976Y-14595500D02*
X8012500Y-14605024D01*
X8012500Y-14605024D02*
X8022024Y-14624071D01*
X8022024Y-14624071D02*
X8022024Y-14633595D01*
X8022024Y-14633595D02*
X8012500Y-14652643D01*
X8012500Y-14652643D02*
X8002976Y-14662167D01*
X8002976Y-14662167D02*
X7983929Y-14671690D01*
X7983929Y-14671690D02*
X7945833Y-14671690D01*
X7945833Y-14671690D02*
X7926786Y-14681214D01*
X7926786Y-14681214D02*
X7917262Y-14690738D01*
X7917262Y-14690738D02*
X7907738Y-14709786D01*
X7907738Y-14709786D02*
X7907738Y-14747881D01*
X7907738Y-14747881D02*
X7917262Y-14766928D01*
X7917262Y-14766928D02*
X7926786Y-14776452D01*
X7926786Y-14776452D02*
X7945833Y-14785976D01*
X7945833Y-14785976D02*
X7983929Y-14785976D01*
X7983929Y-14785976D02*
X8002976Y-14776452D01*
X8002976Y-14776452D02*
X8012500Y-14766928D01*
X8012500Y-14766928D02*
X8022024Y-14747881D01*
X8022024Y-14747881D02*
X8022024Y-14709786D01*
X8022024Y-14709786D02*
X8012500Y-14690738D01*
X8012500Y-14690738D02*
X8002976Y-14681214D01*
X8002976Y-14681214D02*
X7983929Y-14671690D01*
X8098214Y-14585976D02*
X8098214Y-14624071D01*
X8174405Y-14585976D02*
X8174405Y-14624071D01*
X8437262Y-14862167D02*
X8427738Y-14852643D01*
X8427738Y-14852643D02*
X8408691Y-14824071D01*
X8408691Y-14824071D02*
X8399167Y-14805024D01*
X8399167Y-14805024D02*
X8389643Y-14776452D01*
X8389643Y-14776452D02*
X8380119Y-14728833D01*
X8380119Y-14728833D02*
X8380119Y-14690738D01*
X8380119Y-14690738D02*
X8389643Y-14643119D01*
X8389643Y-14643119D02*
X8399167Y-14614548D01*
X8399167Y-14614548D02*
X8408691Y-14595500D01*
X8408691Y-14595500D02*
X8427738Y-14566928D01*
X8427738Y-14566928D02*
X8437262Y-14557405D01*
X8503929Y-14605024D02*
X8513453Y-14595500D01*
X8513453Y-14595500D02*
X8532500Y-14585976D01*
X8532500Y-14585976D02*
X8580119Y-14585976D01*
X8580119Y-14585976D02*
X8599167Y-14595500D01*
X8599167Y-14595500D02*
X8608691Y-14605024D01*
X8608691Y-14605024D02*
X8618214Y-14624071D01*
X8618214Y-14624071D02*
X8618214Y-14643119D01*
X8618214Y-14643119D02*
X8608691Y-14671690D01*
X8608691Y-14671690D02*
X8494405Y-14785976D01*
X8494405Y-14785976D02*
X8618214Y-14785976D01*
X8789643Y-14652643D02*
X8789643Y-14785976D01*
X8742024Y-14576452D02*
X8694405Y-14719309D01*
X8694405Y-14719309D02*
X8818214Y-14719309D01*
X8980119Y-14585976D02*
X8942024Y-14585976D01*
X8942024Y-14585976D02*
X8922976Y-14595500D01*
X8922976Y-14595500D02*
X8913453Y-14605024D01*
X8913453Y-14605024D02*
X8894405Y-14633595D01*
X8894405Y-14633595D02*
X8884881Y-14671690D01*
X8884881Y-14671690D02*
X8884881Y-14747881D01*
X8884881Y-14747881D02*
X8894405Y-14766928D01*
X8894405Y-14766928D02*
X8903929Y-14776452D01*
X8903929Y-14776452D02*
X8922976Y-14785976D01*
X8922976Y-14785976D02*
X8961072Y-14785976D01*
X8961072Y-14785976D02*
X8980119Y-14776452D01*
X8980119Y-14776452D02*
X8989643Y-14766928D01*
X8989643Y-14766928D02*
X8999167Y-14747881D01*
X8999167Y-14747881D02*
X8999167Y-14700262D01*
X8999167Y-14700262D02*
X8989643Y-14681214D01*
X8989643Y-14681214D02*
X8980119Y-14671690D01*
X8980119Y-14671690D02*
X8961072Y-14662167D01*
X8961072Y-14662167D02*
X8922976Y-14662167D01*
X8922976Y-14662167D02*
X8903929Y-14671690D01*
X8903929Y-14671690D02*
X8894405Y-14681214D01*
X8894405Y-14681214D02*
X8884881Y-14700262D01*
X9204881Y-14785976D02*
X9204881Y-14585976D01*
X9290595Y-14785976D02*
X9290595Y-14681214D01*
X9290595Y-14681214D02*
X9281072Y-14662167D01*
X9281072Y-14662167D02*
X9262024Y-14652643D01*
X9262024Y-14652643D02*
X9233453Y-14652643D01*
X9233453Y-14652643D02*
X9214405Y-14662167D01*
X9214405Y-14662167D02*
X9204881Y-14671690D01*
X9414405Y-14785976D02*
X9395357Y-14776452D01*
X9395357Y-14776452D02*
X9385834Y-14766928D01*
X9385834Y-14766928D02*
X9376310Y-14747881D01*
X9376310Y-14747881D02*
X9376310Y-14690738D01*
X9376310Y-14690738D02*
X9385834Y-14671690D01*
X9385834Y-14671690D02*
X9395357Y-14662167D01*
X9395357Y-14662167D02*
X9414405Y-14652643D01*
X9414405Y-14652643D02*
X9442976Y-14652643D01*
X9442976Y-14652643D02*
X9462024Y-14662167D01*
X9462024Y-14662167D02*
X9471548Y-14671690D01*
X9471548Y-14671690D02*
X9481072Y-14690738D01*
X9481072Y-14690738D02*
X9481072Y-14747881D01*
X9481072Y-14747881D02*
X9471548Y-14766928D01*
X9471548Y-14766928D02*
X9462024Y-14776452D01*
X9462024Y-14776452D02*
X9442976Y-14785976D01*
X9442976Y-14785976D02*
X9414405Y-14785976D01*
X9595357Y-14785976D02*
X9576310Y-14776452D01*
X9576310Y-14776452D02*
X9566786Y-14757405D01*
X9566786Y-14757405D02*
X9566786Y-14585976D01*
X9747738Y-14776452D02*
X9728691Y-14785976D01*
X9728691Y-14785976D02*
X9690595Y-14785976D01*
X9690595Y-14785976D02*
X9671548Y-14776452D01*
X9671548Y-14776452D02*
X9662024Y-14757405D01*
X9662024Y-14757405D02*
X9662024Y-14681214D01*
X9662024Y-14681214D02*
X9671548Y-14662167D01*
X9671548Y-14662167D02*
X9690595Y-14652643D01*
X9690595Y-14652643D02*
X9728691Y-14652643D01*
X9728691Y-14652643D02*
X9747738Y-14662167D01*
X9747738Y-14662167D02*
X9757262Y-14681214D01*
X9757262Y-14681214D02*
X9757262Y-14700262D01*
X9757262Y-14700262D02*
X9662024Y-14719309D01*
X9833453Y-14776452D02*
X9852500Y-14785976D01*
X9852500Y-14785976D02*
X9890595Y-14785976D01*
X9890595Y-14785976D02*
X9909643Y-14776452D01*
X9909643Y-14776452D02*
X9919167Y-14757405D01*
X9919167Y-14757405D02*
X9919167Y-14747881D01*
X9919167Y-14747881D02*
X9909643Y-14728833D01*
X9909643Y-14728833D02*
X9890595Y-14719309D01*
X9890595Y-14719309D02*
X9862024Y-14719309D01*
X9862024Y-14719309D02*
X9842976Y-14709786D01*
X9842976Y-14709786D02*
X9833453Y-14690738D01*
X9833453Y-14690738D02*
X9833453Y-14681214D01*
X9833453Y-14681214D02*
X9842976Y-14662167D01*
X9842976Y-14662167D02*
X9862024Y-14652643D01*
X9862024Y-14652643D02*
X9890595Y-14652643D01*
X9890595Y-14652643D02*
X9909643Y-14662167D01*
X9985834Y-14862167D02*
X9995357Y-14852643D01*
X9995357Y-14852643D02*
X10014405Y-14824071D01*
X10014405Y-14824071D02*
X10023929Y-14805024D01*
X10023929Y-14805024D02*
X10033453Y-14776452D01*
X10033453Y-14776452D02*
X10042976Y-14728833D01*
X10042976Y-14728833D02*
X10042976Y-14690738D01*
X10042976Y-14690738D02*
X10033453Y-14643119D01*
X10033453Y-14643119D02*
X10023929Y-14614548D01*
X10023929Y-14614548D02*
X10014405Y-14595500D01*
X10014405Y-14595500D02*
X9995357Y-14566928D01*
X9995357Y-14566928D02*
X9985834Y-14557405D01*
D13*
X4972500Y-14976500D02*
G75*
G03*
X4972500Y-14976500I-50000J0D01*
G01*
D11*
X5324881Y-15049976D02*
X5210595Y-15049976D01*
X5267738Y-15049976D02*
X5267738Y-14849976D01*
X5267738Y-14849976D02*
X5248690Y-14878548D01*
X5248690Y-14878548D02*
X5229643Y-14897595D01*
X5229643Y-14897595D02*
X5210595Y-14907119D01*
X5410595Y-15030928D02*
X5420119Y-15040452D01*
X5420119Y-15040452D02*
X5410595Y-15049976D01*
X5410595Y-15049976D02*
X5401071Y-15040452D01*
X5401071Y-15040452D02*
X5410595Y-15030928D01*
X5410595Y-15030928D02*
X5410595Y-15049976D01*
X5543929Y-14849976D02*
X5562976Y-14849976D01*
X5562976Y-14849976D02*
X5582024Y-14859500D01*
X5582024Y-14859500D02*
X5591548Y-14869024D01*
X5591548Y-14869024D02*
X5601071Y-14888071D01*
X5601071Y-14888071D02*
X5610595Y-14926167D01*
X5610595Y-14926167D02*
X5610595Y-14973786D01*
X5610595Y-14973786D02*
X5601071Y-15011881D01*
X5601071Y-15011881D02*
X5591548Y-15030928D01*
X5591548Y-15030928D02*
X5582024Y-15040452D01*
X5582024Y-15040452D02*
X5562976Y-15049976D01*
X5562976Y-15049976D02*
X5543929Y-15049976D01*
X5543929Y-15049976D02*
X5524881Y-15040452D01*
X5524881Y-15040452D02*
X5515357Y-15030928D01*
X5515357Y-15030928D02*
X5505833Y-15011881D01*
X5505833Y-15011881D02*
X5496310Y-14973786D01*
X5496310Y-14973786D02*
X5496310Y-14926167D01*
X5496310Y-14926167D02*
X5505833Y-14888071D01*
X5505833Y-14888071D02*
X5515357Y-14869024D01*
X5515357Y-14869024D02*
X5524881Y-14859500D01*
X5524881Y-14859500D02*
X5543929Y-14849976D01*
X5734405Y-14849976D02*
X5753452Y-14849976D01*
X5753452Y-14849976D02*
X5772500Y-14859500D01*
X5772500Y-14859500D02*
X5782024Y-14869024D01*
X5782024Y-14869024D02*
X5791548Y-14888071D01*
X5791548Y-14888071D02*
X5801071Y-14926167D01*
X5801071Y-14926167D02*
X5801071Y-14973786D01*
X5801071Y-14973786D02*
X5791548Y-15011881D01*
X5791548Y-15011881D02*
X5782024Y-15030928D01*
X5782024Y-15030928D02*
X5772500Y-15040452D01*
X5772500Y-15040452D02*
X5753452Y-15049976D01*
X5753452Y-15049976D02*
X5734405Y-15049976D01*
X5734405Y-15049976D02*
X5715357Y-15040452D01*
X5715357Y-15040452D02*
X5705833Y-15030928D01*
X5705833Y-15030928D02*
X5696309Y-15011881D01*
X5696309Y-15011881D02*
X5686786Y-14973786D01*
X5686786Y-14973786D02*
X5686786Y-14926167D01*
X5686786Y-14926167D02*
X5696309Y-14888071D01*
X5696309Y-14888071D02*
X5705833Y-14869024D01*
X5705833Y-14869024D02*
X5715357Y-14859500D01*
X5715357Y-14859500D02*
X5734405Y-14849976D01*
X5924881Y-14849976D02*
X5943929Y-14849976D01*
X5943929Y-14849976D02*
X5962976Y-14859500D01*
X5962976Y-14859500D02*
X5972500Y-14869024D01*
X5972500Y-14869024D02*
X5982024Y-14888071D01*
X5982024Y-14888071D02*
X5991548Y-14926167D01*
X5991548Y-14926167D02*
X5991548Y-14973786D01*
X5991548Y-14973786D02*
X5982024Y-15011881D01*
X5982024Y-15011881D02*
X5972500Y-15030928D01*
X5972500Y-15030928D02*
X5962976Y-15040452D01*
X5962976Y-15040452D02*
X5943929Y-15049976D01*
X5943929Y-15049976D02*
X5924881Y-15049976D01*
X5924881Y-15049976D02*
X5905833Y-15040452D01*
X5905833Y-15040452D02*
X5896309Y-15030928D01*
X5896309Y-15030928D02*
X5886786Y-15011881D01*
X5886786Y-15011881D02*
X5877262Y-14973786D01*
X5877262Y-14973786D02*
X5877262Y-14926167D01*
X5877262Y-14926167D02*
X5886786Y-14888071D01*
X5886786Y-14888071D02*
X5896309Y-14869024D01*
X5896309Y-14869024D02*
X5905833Y-14859500D01*
X5905833Y-14859500D02*
X5924881Y-14849976D01*
X6077262Y-15049976D02*
X6077262Y-14916643D01*
X6077262Y-14935690D02*
X6086786Y-14926167D01*
X6086786Y-14926167D02*
X6105833Y-14916643D01*
X6105833Y-14916643D02*
X6134405Y-14916643D01*
X6134405Y-14916643D02*
X6153452Y-14926167D01*
X6153452Y-14926167D02*
X6162976Y-14945214D01*
X6162976Y-14945214D02*
X6162976Y-15049976D01*
X6162976Y-14945214D02*
X6172500Y-14926167D01*
X6172500Y-14926167D02*
X6191548Y-14916643D01*
X6191548Y-14916643D02*
X6220119Y-14916643D01*
X6220119Y-14916643D02*
X6239167Y-14926167D01*
X6239167Y-14926167D02*
X6248690Y-14945214D01*
X6248690Y-14945214D02*
X6248690Y-15049976D01*
X6343929Y-15049976D02*
X6343929Y-14916643D01*
X6343929Y-14935690D02*
X6353452Y-14926167D01*
X6353452Y-14926167D02*
X6372500Y-14916643D01*
X6372500Y-14916643D02*
X6401071Y-14916643D01*
X6401071Y-14916643D02*
X6420119Y-14926167D01*
X6420119Y-14926167D02*
X6429643Y-14945214D01*
X6429643Y-14945214D02*
X6429643Y-15049976D01*
X6429643Y-14945214D02*
X6439167Y-14926167D01*
X6439167Y-14926167D02*
X6458214Y-14916643D01*
X6458214Y-14916643D02*
X6486786Y-14916643D01*
X6486786Y-14916643D02*
X6505833Y-14926167D01*
X6505833Y-14926167D02*
X6515357Y-14945214D01*
X6515357Y-14945214D02*
X6515357Y-15049976D01*
X6873452Y-14840452D02*
X6702024Y-15097595D01*
X7098214Y-14849976D02*
X7117262Y-14849976D01*
X7117262Y-14849976D02*
X7136310Y-14859500D01*
X7136310Y-14859500D02*
X7145833Y-14869024D01*
X7145833Y-14869024D02*
X7155357Y-14888071D01*
X7155357Y-14888071D02*
X7164881Y-14926167D01*
X7164881Y-14926167D02*
X7164881Y-14973786D01*
X7164881Y-14973786D02*
X7155357Y-15011881D01*
X7155357Y-15011881D02*
X7145833Y-15030928D01*
X7145833Y-15030928D02*
X7136310Y-15040452D01*
X7136310Y-15040452D02*
X7117262Y-15049976D01*
X7117262Y-15049976D02*
X7098214Y-15049976D01*
X7098214Y-15049976D02*
X7079167Y-15040452D01*
X7079167Y-15040452D02*
X7069643Y-15030928D01*
X7069643Y-15030928D02*
X7060119Y-15011881D01*
X7060119Y-15011881D02*
X7050595Y-14973786D01*
X7050595Y-14973786D02*
X7050595Y-14926167D01*
X7050595Y-14926167D02*
X7060119Y-14888071D01*
X7060119Y-14888071D02*
X7069643Y-14869024D01*
X7069643Y-14869024D02*
X7079167Y-14859500D01*
X7079167Y-14859500D02*
X7098214Y-14849976D01*
X7250595Y-15030928D02*
X7260119Y-15040452D01*
X7260119Y-15040452D02*
X7250595Y-15049976D01*
X7250595Y-15049976D02*
X7241071Y-15040452D01*
X7241071Y-15040452D02*
X7250595Y-15030928D01*
X7250595Y-15030928D02*
X7250595Y-15049976D01*
X7383929Y-14849976D02*
X7402976Y-14849976D01*
X7402976Y-14849976D02*
X7422024Y-14859500D01*
X7422024Y-14859500D02*
X7431548Y-14869024D01*
X7431548Y-14869024D02*
X7441071Y-14888071D01*
X7441071Y-14888071D02*
X7450595Y-14926167D01*
X7450595Y-14926167D02*
X7450595Y-14973786D01*
X7450595Y-14973786D02*
X7441071Y-15011881D01*
X7441071Y-15011881D02*
X7431548Y-15030928D01*
X7431548Y-15030928D02*
X7422024Y-15040452D01*
X7422024Y-15040452D02*
X7402976Y-15049976D01*
X7402976Y-15049976D02*
X7383929Y-15049976D01*
X7383929Y-15049976D02*
X7364881Y-15040452D01*
X7364881Y-15040452D02*
X7355357Y-15030928D01*
X7355357Y-15030928D02*
X7345833Y-15011881D01*
X7345833Y-15011881D02*
X7336310Y-14973786D01*
X7336310Y-14973786D02*
X7336310Y-14926167D01*
X7336310Y-14926167D02*
X7345833Y-14888071D01*
X7345833Y-14888071D02*
X7355357Y-14869024D01*
X7355357Y-14869024D02*
X7364881Y-14859500D01*
X7364881Y-14859500D02*
X7383929Y-14849976D01*
X7517262Y-14849976D02*
X7641071Y-14849976D01*
X7641071Y-14849976D02*
X7574405Y-14926167D01*
X7574405Y-14926167D02*
X7602976Y-14926167D01*
X7602976Y-14926167D02*
X7622024Y-14935690D01*
X7622024Y-14935690D02*
X7631548Y-14945214D01*
X7631548Y-14945214D02*
X7641071Y-14964262D01*
X7641071Y-14964262D02*
X7641071Y-15011881D01*
X7641071Y-15011881D02*
X7631548Y-15030928D01*
X7631548Y-15030928D02*
X7622024Y-15040452D01*
X7622024Y-15040452D02*
X7602976Y-15049976D01*
X7602976Y-15049976D02*
X7545833Y-15049976D01*
X7545833Y-15049976D02*
X7526786Y-15040452D01*
X7526786Y-15040452D02*
X7517262Y-15030928D01*
X7736310Y-15049976D02*
X7774405Y-15049976D01*
X7774405Y-15049976D02*
X7793452Y-15040452D01*
X7793452Y-15040452D02*
X7802976Y-15030928D01*
X7802976Y-15030928D02*
X7822024Y-15002357D01*
X7822024Y-15002357D02*
X7831548Y-14964262D01*
X7831548Y-14964262D02*
X7831548Y-14888071D01*
X7831548Y-14888071D02*
X7822024Y-14869024D01*
X7822024Y-14869024D02*
X7812500Y-14859500D01*
X7812500Y-14859500D02*
X7793452Y-14849976D01*
X7793452Y-14849976D02*
X7755357Y-14849976D01*
X7755357Y-14849976D02*
X7736310Y-14859500D01*
X7736310Y-14859500D02*
X7726786Y-14869024D01*
X7726786Y-14869024D02*
X7717262Y-14888071D01*
X7717262Y-14888071D02*
X7717262Y-14935690D01*
X7717262Y-14935690D02*
X7726786Y-14954738D01*
X7726786Y-14954738D02*
X7736310Y-14964262D01*
X7736310Y-14964262D02*
X7755357Y-14973786D01*
X7755357Y-14973786D02*
X7793452Y-14973786D01*
X7793452Y-14973786D02*
X7812500Y-14964262D01*
X7812500Y-14964262D02*
X7822024Y-14954738D01*
X7822024Y-14954738D02*
X7831548Y-14935690D01*
X8002976Y-14916643D02*
X8002976Y-15049976D01*
X7955357Y-14840452D02*
X7907738Y-14983309D01*
X7907738Y-14983309D02*
X8031548Y-14983309D01*
X8098214Y-14849976D02*
X8098214Y-14888071D01*
X8174405Y-14849976D02*
X8174405Y-14888071D01*
X8437262Y-15126167D02*
X8427738Y-15116643D01*
X8427738Y-15116643D02*
X8408691Y-15088071D01*
X8408691Y-15088071D02*
X8399167Y-15069024D01*
X8399167Y-15069024D02*
X8389643Y-15040452D01*
X8389643Y-15040452D02*
X8380119Y-14992833D01*
X8380119Y-14992833D02*
X8380119Y-14954738D01*
X8380119Y-14954738D02*
X8389643Y-14907119D01*
X8389643Y-14907119D02*
X8399167Y-14878548D01*
X8399167Y-14878548D02*
X8408691Y-14859500D01*
X8408691Y-14859500D02*
X8427738Y-14830928D01*
X8427738Y-14830928D02*
X8437262Y-14821405D01*
X8503929Y-14869024D02*
X8513453Y-14859500D01*
X8513453Y-14859500D02*
X8532500Y-14849976D01*
X8532500Y-14849976D02*
X8580119Y-14849976D01*
X8580119Y-14849976D02*
X8599167Y-14859500D01*
X8599167Y-14859500D02*
X8608691Y-14869024D01*
X8608691Y-14869024D02*
X8618214Y-14888071D01*
X8618214Y-14888071D02*
X8618214Y-14907119D01*
X8618214Y-14907119D02*
X8608691Y-14935690D01*
X8608691Y-14935690D02*
X8494405Y-15049976D01*
X8494405Y-15049976D02*
X8618214Y-15049976D01*
X8799167Y-14849976D02*
X8703929Y-14849976D01*
X8703929Y-14849976D02*
X8694405Y-14945214D01*
X8694405Y-14945214D02*
X8703929Y-14935690D01*
X8703929Y-14935690D02*
X8722976Y-14926167D01*
X8722976Y-14926167D02*
X8770595Y-14926167D01*
X8770595Y-14926167D02*
X8789643Y-14935690D01*
X8789643Y-14935690D02*
X8799167Y-14945214D01*
X8799167Y-14945214D02*
X8808691Y-14964262D01*
X8808691Y-14964262D02*
X8808691Y-15011881D01*
X8808691Y-15011881D02*
X8799167Y-15030928D01*
X8799167Y-15030928D02*
X8789643Y-15040452D01*
X8789643Y-15040452D02*
X8770595Y-15049976D01*
X8770595Y-15049976D02*
X8722976Y-15049976D01*
X8722976Y-15049976D02*
X8703929Y-15040452D01*
X8703929Y-15040452D02*
X8694405Y-15030928D01*
X9014405Y-15049976D02*
X9014405Y-14849976D01*
X9100119Y-15049976D02*
X9100119Y-14945214D01*
X9100119Y-14945214D02*
X9090595Y-14926167D01*
X9090595Y-14926167D02*
X9071548Y-14916643D01*
X9071548Y-14916643D02*
X9042976Y-14916643D01*
X9042976Y-14916643D02*
X9023929Y-14926167D01*
X9023929Y-14926167D02*
X9014405Y-14935690D01*
X9223929Y-15049976D02*
X9204881Y-15040452D01*
X9204881Y-15040452D02*
X9195357Y-15030928D01*
X9195357Y-15030928D02*
X9185834Y-15011881D01*
X9185834Y-15011881D02*
X9185834Y-14954738D01*
X9185834Y-14954738D02*
X9195357Y-14935690D01*
X9195357Y-14935690D02*
X9204881Y-14926167D01*
X9204881Y-14926167D02*
X9223929Y-14916643D01*
X9223929Y-14916643D02*
X9252500Y-14916643D01*
X9252500Y-14916643D02*
X9271548Y-14926167D01*
X9271548Y-14926167D02*
X9281072Y-14935690D01*
X9281072Y-14935690D02*
X9290595Y-14954738D01*
X9290595Y-14954738D02*
X9290595Y-15011881D01*
X9290595Y-15011881D02*
X9281072Y-15030928D01*
X9281072Y-15030928D02*
X9271548Y-15040452D01*
X9271548Y-15040452D02*
X9252500Y-15049976D01*
X9252500Y-15049976D02*
X9223929Y-15049976D01*
X9404881Y-15049976D02*
X9385834Y-15040452D01*
X9385834Y-15040452D02*
X9376310Y-15021405D01*
X9376310Y-15021405D02*
X9376310Y-14849976D01*
X9557262Y-15040452D02*
X9538215Y-15049976D01*
X9538215Y-15049976D02*
X9500119Y-15049976D01*
X9500119Y-15049976D02*
X9481072Y-15040452D01*
X9481072Y-15040452D02*
X9471548Y-15021405D01*
X9471548Y-15021405D02*
X9471548Y-14945214D01*
X9471548Y-14945214D02*
X9481072Y-14926167D01*
X9481072Y-14926167D02*
X9500119Y-14916643D01*
X9500119Y-14916643D02*
X9538215Y-14916643D01*
X9538215Y-14916643D02*
X9557262Y-14926167D01*
X9557262Y-14926167D02*
X9566786Y-14945214D01*
X9566786Y-14945214D02*
X9566786Y-14964262D01*
X9566786Y-14964262D02*
X9471548Y-14983309D01*
X9642976Y-15040452D02*
X9662024Y-15049976D01*
X9662024Y-15049976D02*
X9700119Y-15049976D01*
X9700119Y-15049976D02*
X9719167Y-15040452D01*
X9719167Y-15040452D02*
X9728691Y-15021405D01*
X9728691Y-15021405D02*
X9728691Y-15011881D01*
X9728691Y-15011881D02*
X9719167Y-14992833D01*
X9719167Y-14992833D02*
X9700119Y-14983309D01*
X9700119Y-14983309D02*
X9671548Y-14983309D01*
X9671548Y-14983309D02*
X9652500Y-14973786D01*
X9652500Y-14973786D02*
X9642976Y-14954738D01*
X9642976Y-14954738D02*
X9642976Y-14945214D01*
X9642976Y-14945214D02*
X9652500Y-14926167D01*
X9652500Y-14926167D02*
X9671548Y-14916643D01*
X9671548Y-14916643D02*
X9700119Y-14916643D01*
X9700119Y-14916643D02*
X9719167Y-14926167D01*
X9795357Y-15126167D02*
X9804881Y-15116643D01*
X9804881Y-15116643D02*
X9823929Y-15088071D01*
X9823929Y-15088071D02*
X9833453Y-15069024D01*
X9833453Y-15069024D02*
X9842976Y-15040452D01*
X9842976Y-15040452D02*
X9852500Y-14992833D01*
X9852500Y-14992833D02*
X9852500Y-14954738D01*
X9852500Y-14954738D02*
X9842976Y-14907119D01*
X9842976Y-14907119D02*
X9833453Y-14878548D01*
X9833453Y-14878548D02*
X9823929Y-14859500D01*
X9823929Y-14859500D02*
X9804881Y-14830928D01*
X9804881Y-14830928D02*
X9795357Y-14821405D01*
M02*
