%TF.GenerationSoftware,KiCad,Pcbnew,(7.0.0)*%
%TF.CreationDate,2023-04-15T15:54:35-07:00*%
%TF.ProjectId,FaultSignalGenerator_Isaiah_16Channel,4661756c-7453-4696-976e-616c47656e65,rev?*%
%TF.SameCoordinates,Original*%
%TF.FileFunction,Copper,L3,Inr*%
%TF.FilePolarity,Positive*%
%FSLAX46Y46*%
G04 Gerber Fmt 4.6, Leading zero omitted, Abs format (unit mm)*
G04 Created by KiCad (PCBNEW (7.0.0)) date 2023-04-15 15:54:35*
%MOMM*%
%LPD*%
G01*
G04 APERTURE LIST*
%TA.AperFunction,ComponentPad*%
%ADD10R,1.600000X1.600000*%
%TD*%
%TA.AperFunction,ComponentPad*%
%ADD11C,1.600000*%
%TD*%
%TA.AperFunction,ViaPad*%
%ADD12C,0.600000*%
%TD*%
%TA.AperFunction,Conductor*%
%ADD13C,0.760000*%
%TD*%
%TA.AperFunction,Conductor*%
%ADD14C,0.200000*%
%TD*%
G04 APERTURE END LIST*
D10*
%TO.N,/Amplification Stage/out13*%
%TO.C,J3*%
X129724999Y-39430330D03*
D11*
%TO.N,/Amplification Stage/out12*%
X132495000Y-39430331D03*
%TO.N,/Amplification Stage/out11*%
X135265000Y-39430331D03*
%TO.N,/Amplification Stage/out10*%
X138035000Y-39430331D03*
%TO.N,/Amplification Stage/out9*%
X140805000Y-39430331D03*
%TO.N,/Amplification Stage/out8*%
X143575000Y-39430331D03*
%TO.N,/Amplification Stage/out7*%
X146345000Y-39430331D03*
%TO.N,/Amplification Stage/out6*%
X149115000Y-39430331D03*
%TO.N,/Amplification Stage/out5*%
X151885000Y-39430331D03*
%TO.N,/Amplification Stage/out4*%
X154655000Y-39430331D03*
%TO.N,/Amplification Stage/out3*%
X157425000Y-39430331D03*
%TO.N,/Amplification Stage/out2*%
X160195000Y-39430331D03*
%TO.N,/Amplification Stage/out1*%
X162965000Y-39430331D03*
%TO.N,unconnected-(J3-P14-Pad14)*%
X131110000Y-36890331D03*
%TO.N,unconnected-(J3-P15-Pad15)*%
X133880000Y-36890331D03*
%TO.N,unconnected-(J3-P16-Pad16)*%
X136650000Y-36890331D03*
%TO.N,0*%
X139420000Y-36890331D03*
%TO.N,unconnected-(J3-P18-Pad18)*%
X142190000Y-36890331D03*
%TO.N,unconnected-(J3-P19-Pad19)*%
X144960000Y-36890331D03*
%TO.N,unconnected-(J3-P20-Pad20)*%
X147730000Y-36890331D03*
%TO.N,unconnected-(J3-P21-Pad21)*%
X150500000Y-36890331D03*
%TO.N,unconnected-(J3-P22-Pad22)*%
X153270000Y-36890331D03*
%TO.N,/Amplification Stage/out16*%
X156040000Y-36890331D03*
%TO.N,/Amplification Stage/out15*%
X158810000Y-36890331D03*
%TO.N,/Amplification Stage/out14*%
X161580000Y-36890331D03*
%TD*%
D12*
%TO.N,+5V*%
X76795673Y-122225443D03*
X81745629Y-121719997D03*
X84884724Y-123646075D03*
X101700000Y-73000000D03*
X114300000Y-76200000D03*
%TO.N,Channel10*%
X164600500Y-78338000D03*
X155700000Y-60100000D03*
X154150000Y-58100000D03*
%TO.N,Channel8*%
X124635500Y-108990370D03*
%TO.N,+5V*%
X135351000Y-64873800D03*
X137201000Y-66346960D03*
%TO.N,+6V*%
X146575500Y-116538000D03*
X146575500Y-111588000D03*
X140800000Y-86200000D03*
X140700000Y-89150000D03*
%TO.N,+12V*%
X121415500Y-55588000D03*
X146500000Y-66900000D03*
%TO.N,0*%
X147850000Y-116550000D03*
%TO.N,Channel14*%
X164550500Y-59088000D03*
%TO.N,+5V*%
X137050000Y-110663500D03*
%TO.N,0*%
X81900000Y-131600000D03*
X63500000Y-119350000D03*
X69900000Y-119800000D03*
X66750000Y-122550000D03*
X67050000Y-116800000D03*
X63250000Y-116250000D03*
X70550000Y-116550000D03*
X68650000Y-122300000D03*
X63450000Y-122100000D03*
%TO.N,+12V*%
X64000000Y-126900000D03*
%TO.N,0*%
X57600000Y-130500000D03*
X65300000Y-134850000D03*
X68600000Y-134650000D03*
X84397720Y-129697720D03*
X85834724Y-125921075D03*
X81450000Y-124800000D03*
X86000000Y-86000000D03*
X89446614Y-91396614D03*
%TO.N,+5V*%
X131300000Y-73309100D03*
%TO.N,+6V*%
X119761506Y-103708569D03*
%TO.N,0*%
X138950000Y-73300000D03*
%TO.N,+6V*%
X122748417Y-60601583D03*
%TO.N,Net-(C1-Pad1)*%
X98123800Y-94048400D03*
%TO.N,gain7*%
X109321144Y-115279237D03*
%TO.N,0*%
X87370030Y-82886478D03*
X69551421Y-108525966D03*
X69531048Y-69195872D03*
X164967812Y-90499253D03*
X60817161Y-32307718D03*
X70904204Y-49109904D03*
X164834511Y-61483950D03*
X91301902Y-49072951D03*
X81158482Y-49072951D03*
X111539234Y-110938284D03*
X84008385Y-98608385D03*
X60797736Y-48999047D03*
X55666575Y-79564560D03*
X55698312Y-49146856D03*
X164767860Y-51775154D03*
X94325500Y-86188000D03*
X164812294Y-66327239D03*
X76087720Y-81011147D03*
X126369744Y-85120944D03*
X164878945Y-85611529D03*
X129272891Y-107392601D03*
X76225343Y-48980570D03*
X78648795Y-104399780D03*
X120632937Y-112546522D03*
X76060006Y-85002001D03*
X164945595Y-109783543D03*
X164767860Y-75924950D03*
X164901161Y-117359514D03*
X65878684Y-49035999D03*
X139164190Y-55057335D03*
X80771430Y-91875138D03*
X56359432Y-61744289D03*
X112025376Y-62397035D03*
X78502500Y-65126922D03*
X104961715Y-108868952D03*
X66752281Y-119195957D03*
X65861157Y-32335433D03*
X112188886Y-45843042D03*
X121402667Y-60599240D03*
X146509120Y-71954602D03*
X164878945Y-100074747D03*
X115565048Y-117190265D03*
X164790077Y-71081661D03*
X61403428Y-66871427D03*
X91247422Y-32280004D03*
X86258855Y-32390861D03*
X71016010Y-32335433D03*
X95857702Y-122346848D03*
X164945595Y-114582399D03*
X84725500Y-92688000D03*
X164834511Y-56640660D03*
X140278920Y-114164508D03*
X81187144Y-32363147D03*
X121121710Y-119322684D03*
X55745450Y-32335433D03*
X61347999Y-105006254D03*
X57080003Y-97329403D03*
X75949149Y-32280004D03*
X131701806Y-59893627D03*
X101697400Y-63819400D03*
X164901161Y-80723806D03*
X86128573Y-49109904D03*
X109699495Y-50702122D03*
X120271198Y-68891481D03*
X122215618Y-63204381D03*
X66585995Y-128701950D03*
X101735900Y-74425900D03*
X95319996Y-112360001D03*
X135761021Y-69925207D03*
X164856728Y-104962471D03*
X164901161Y-95209241D03*
X56359432Y-71943138D03*
X164945595Y-124580015D03*
X134293915Y-102593745D03*
%TO.N,gain13*%
X133923903Y-55051958D03*
%TO.N,Channel3*%
X144047010Y-115930360D03*
X133667054Y-123554667D03*
%TO.N,gain3*%
X123131724Y-116496848D03*
%TO.N,gain4*%
X95770292Y-119287144D03*
%TO.N,Channel4*%
X141414035Y-123635390D03*
%TO.N,Channel11*%
X117609410Y-61019824D03*
%TO.N,gain11*%
X120419148Y-63955612D03*
%TO.N,gain12*%
X113426168Y-67270861D03*
%TO.N,Channel12*%
X125210472Y-59914725D03*
%TO.N,Channel2*%
X150652437Y-113279681D03*
%TO.N,gain2*%
X106365148Y-96508684D03*
%TO.N,gain1*%
X103316261Y-91653050D03*
%TO.N,Channel1*%
X141054726Y-104948334D03*
%TO.N,gain10*%
X110419748Y-48890734D03*
%TO.N,gain9*%
X112615500Y-48888000D03*
%TO.N,Channel9*%
X125178613Y-55609097D03*
%TO.N,Channel7*%
X117010498Y-108821485D03*
%TO.N,gain8*%
X121154938Y-124355321D03*
%TO.N,Channel15*%
X142062298Y-68810829D03*
%TO.N,gain15*%
X144864565Y-74840578D03*
%TO.N,gain16*%
X126305720Y-79819433D03*
%TO.N,Channel16*%
X150275155Y-70914031D03*
%TO.N,Channel6*%
X118750554Y-96847238D03*
%TO.N,gain6*%
X127464655Y-100317269D03*
X125038929Y-95917504D03*
X117828668Y-98878563D03*
%TO.N,gain5*%
X126951586Y-102422046D03*
X116470861Y-98928750D03*
X122186569Y-98789341D03*
%TO.N,Channel5*%
X118654011Y-98105927D03*
%TO.N,gain14*%
X136110543Y-60597372D03*
%TO.N,Channel13*%
X150341535Y-66189502D03*
%TO.N,Net-(C58-Pad1)*%
X126815238Y-59937651D03*
%TO.N,Net-(C57-Pad1)*%
X97602281Y-62314440D03*
%TO.N,Net-(C56-Pad1)*%
X117195505Y-68740611D03*
%TO.N,Net-(C55-Pad1)*%
X102108569Y-50901144D03*
%TO.N,Net-(C54-Pad1)*%
X97642278Y-57530379D03*
%TO.N,/Amplification Stage/out14*%
X167675500Y-59088000D03*
%TO.N,Net-(C2-Pad1)*%
X111491278Y-91439754D03*
%TO.N,Net-(C3-Pad1)*%
X110328602Y-116466178D03*
%TO.N,Net-(C4-Pad1)*%
X98703686Y-112276659D03*
%TO.N,Net-(C5-Pad1)*%
X126516504Y-104761562D03*
%TO.N,Net-(C17-Pad1)*%
X137317871Y-102503127D03*
%TO.N,Net-(C18-Pad1)*%
X134760876Y-124868565D03*
%TO.N,Net-(C19-Pad1)*%
X97379313Y-113747459D03*
%TO.N,Net-(U15-BCK)*%
X72737365Y-64475012D03*
%TO.N,TDMA_BCLK*%
X69739854Y-103799139D03*
%TO.N,Net-(U14-BCK)*%
X72650500Y-103788000D03*
%TO.N,TDMB_DATA*%
X56455751Y-104794749D03*
%TO.N,Net-(U15-DATA1)*%
X72833017Y-62275032D03*
%TO.N,+12V*%
X87348918Y-91615410D03*
X147850838Y-111475041D03*
X120425500Y-102513000D03*
X82396967Y-82804935D03*
%TO.N,Net-(U13-3IN+)*%
X87193027Y-88693330D03*
%TO.N,Net-(U13-3IN-)*%
X87278797Y-85319842D03*
%TO.N,+6V*%
X145250065Y-71412638D03*
X122660561Y-55625987D03*
X98385347Y-86199599D03*
X119563024Y-109480057D03*
X145216607Y-66460812D03*
X87713831Y-86574946D03*
X91355346Y-85820567D03*
%TO.N,TDMA_DATA*%
X69781425Y-101387998D03*
%TO.N,Net-(U14-DATA1)*%
X72650500Y-101438000D03*
%TO.N,TDMB_LRCLK*%
X61458856Y-99770858D03*
%TO.N,Net-(U15-LRCK)*%
X72785191Y-66866296D03*
%TO.N,TDMB_SCK*%
X56482723Y-69295003D03*
%TO.N,Net-(U15-SCK)*%
X72785191Y-59931574D03*
%TO.N,TDMA_LRCLK*%
X69698282Y-105960851D03*
%TO.N,Net-(U14-LRCK)*%
X72650500Y-106088000D03*
%TO.N,Net-(U14-SCK)*%
X72650500Y-99088000D03*
%TO.N,Net-(C70-Pad1)*%
X139163666Y-57690218D03*
%TO.N,Net-(C71-Pad1)*%
X139874575Y-79790065D03*
%TO.N,Net-(C72-Pad1)*%
X126640188Y-77206477D03*
%TO.N,/Amplification Stage/out16*%
X167800000Y-49500000D03*
%TO.N,+5V*%
X111742472Y-102523808D03*
X111365841Y-54931100D03*
X104931092Y-101588009D03*
X104943239Y-99096952D03*
X83875428Y-103647003D03*
X84065190Y-68072857D03*
X113903236Y-113789774D03*
X84374285Y-120498282D03*
X84025569Y-64025922D03*
X109308969Y-62490520D03*
X56434285Y-59177523D03*
X130984935Y-111288383D03*
X83819999Y-107545476D03*
X56452761Y-56664763D03*
X138317483Y-119025990D03*
%TO.N,/Amplification Stage/out15*%
X167675500Y-54238000D03*
%TO.N,SCL*%
X123232326Y-73633047D03*
X137269488Y-113977009D03*
X61984005Y-61754001D03*
X74130668Y-57636893D03*
X104521840Y-59173534D03*
X91734735Y-76974586D03*
X74516485Y-97480260D03*
X111757438Y-108200988D03*
X124933379Y-112466842D03*
X134915466Y-113417396D03*
X119380000Y-83820000D03*
X145964959Y-105543870D03*
%TO.N,SDA*%
X91651030Y-75342338D03*
X73273791Y-97502158D03*
X121920000Y-83820000D03*
X146742072Y-106425700D03*
X124933379Y-113297691D03*
X62011719Y-59204289D03*
X67840004Y-59204763D03*
X112761898Y-108176186D03*
X123219926Y-74463896D03*
X137959265Y-114924084D03*
X102300401Y-59608700D03*
X134952668Y-114297848D03*
%TO.N,+1*%
X103659334Y-101619313D03*
%TO.N,COM1*%
X79294721Y-81096717D03*
X84073325Y-101922051D03*
%TO.N,COM2*%
X84397944Y-62627524D03*
X79230954Y-84827119D03*
%TO.N,+10*%
X82452930Y-85374288D03*
%TO.N,+3.3V*%
X72785191Y-69257579D03*
X61447721Y-56682291D03*
X71415618Y-56655999D03*
X62491625Y-77013900D03*
X72638000Y-108438000D03*
%TD*%
D13*
%TO.N,+5V*%
X54000000Y-61611808D02*
X54000000Y-121397646D01*
X54000000Y-121397646D02*
X63180074Y-130577720D01*
X63180074Y-130577720D02*
X68443396Y-130577720D01*
X56434285Y-59177523D02*
X54000000Y-61611808D01*
X68443396Y-130577720D02*
X76795673Y-122225443D01*
X111365841Y-60433648D02*
X109308969Y-62490520D01*
X77301119Y-121719997D02*
X76795673Y-122225443D01*
X81745629Y-121719997D02*
X77301119Y-121719997D01*
X84374285Y-120498282D02*
X82967344Y-120498282D01*
X82967344Y-120498282D02*
X81745629Y-121719997D01*
X84374285Y-120498282D02*
X84374285Y-123135636D01*
X84374285Y-123135636D02*
X84884724Y-123646075D01*
X83819999Y-103702432D02*
X83875428Y-103647003D01*
X83819999Y-107545476D02*
X83819999Y-103702432D01*
X92999647Y-73000000D02*
X101700000Y-73000000D01*
X84025569Y-64025922D02*
X92999647Y-73000000D01*
X104931092Y-99109099D02*
X104943239Y-99096952D01*
X104931092Y-101588009D02*
X104931092Y-99109099D01*
X108315616Y-99096952D02*
X104943239Y-99096952D01*
X111742472Y-102523808D02*
X108315616Y-99096952D01*
X136824160Y-66346960D02*
X135351000Y-64873800D01*
X137201000Y-66346960D02*
X136824160Y-66346960D01*
X136200000Y-67000000D02*
X136853040Y-66346960D01*
X136200000Y-67000000D02*
X134620000Y-68580000D01*
X137332610Y-65867390D02*
X136200000Y-67000000D01*
X136853040Y-66346960D02*
X137201000Y-66346960D01*
%TO.N,+6V*%
X128693308Y-86200000D02*
X140800000Y-86200000D01*
X122748600Y-80255292D02*
X128693308Y-86200000D01*
X98705292Y-80255292D02*
X122748600Y-80255292D01*
X98705292Y-80255292D02*
X105209865Y-73750718D01*
X94560292Y-84400292D02*
X98705292Y-80255292D01*
X146575500Y-111588000D02*
X146575500Y-116538000D01*
X146575500Y-109224600D02*
X146575500Y-111588000D01*
X140700000Y-89150000D02*
X140700000Y-103349100D01*
X140700000Y-103349100D02*
X146575500Y-109224600D01*
X145744565Y-81255435D02*
X140800000Y-86200000D01*
X145250065Y-73981570D02*
X145744565Y-74476070D01*
X145250065Y-71412638D02*
X145250065Y-73981570D01*
X145744565Y-74476070D02*
X145744565Y-81255435D01*
%TO.N,+12V*%
X138600812Y-65500812D02*
X127765987Y-54665987D01*
X122262916Y-54665987D02*
X121415500Y-55513403D01*
X145614253Y-65500812D02*
X138600812Y-65500812D01*
X146500000Y-66386559D02*
X145614253Y-65500812D01*
X127765987Y-54665987D02*
X122262916Y-54665987D01*
X146500000Y-66900000D02*
X146500000Y-66386559D01*
X121415500Y-55513403D02*
X121415500Y-55588000D01*
X146300000Y-66900000D02*
X146500000Y-67100000D01*
X146500000Y-66900000D02*
X146300000Y-66900000D01*
X146500000Y-67100000D02*
X146500000Y-66900000D01*
X147389120Y-67989120D02*
X146500000Y-67100000D01*
X147389120Y-81486960D02*
X147389120Y-67989120D01*
X141108040Y-87768040D02*
X147389120Y-81486960D01*
%TO.N,+5V*%
X135216500Y-110663500D02*
X137050000Y-110663500D01*
X132080000Y-113800000D02*
X135216500Y-110663500D01*
X132080000Y-113800000D02*
X132080000Y-114300000D01*
X132080000Y-112383448D02*
X132080000Y-113800000D01*
X84374078Y-64025922D02*
X84025569Y-64025922D01*
X85799282Y-62600718D02*
X84374078Y-64025922D01*
X85799282Y-56044214D02*
X85799282Y-62600718D01*
X103052997Y-103647003D02*
X104931092Y-101768908D01*
X83875428Y-103647003D02*
X103052997Y-103647003D01*
X104931092Y-101768908D02*
X104931092Y-101588009D01*
%TO.N,+6V*%
X110186657Y-94133720D02*
X110186657Y-89131870D01*
X119761506Y-103708569D02*
X110186657Y-94133720D01*
%TO.N,+12V*%
X62227999Y-104465501D02*
X70505500Y-96188000D01*
X62227999Y-125127999D02*
X62227999Y-104465501D01*
X64000000Y-126900000D02*
X62227999Y-125127999D01*
%TO.N,+3.3V*%
X72638000Y-120049225D02*
X72638000Y-108438000D01*
X62362413Y-128402413D02*
X64284812Y-128402413D01*
X58420000Y-124460000D02*
X62362413Y-128402413D01*
X64284812Y-128402413D02*
X72638000Y-120049225D01*
X62491625Y-100003383D02*
X58420000Y-104075008D01*
X62491625Y-77013900D02*
X62491625Y-100003383D01*
X58420000Y-104075008D02*
X58420000Y-124460000D01*
D14*
%TO.N,+5V*%
X131300000Y-73309100D02*
X131300000Y-76050000D01*
X131300000Y-76050000D02*
X131450000Y-76200000D01*
D13*
X131450000Y-76200000D02*
X135242270Y-76200000D01*
X114300000Y-76200000D02*
X131450000Y-76200000D01*
%TO.N,+6V*%
X119737525Y-103708569D02*
X119761506Y-103708569D01*
X119563024Y-103883070D02*
X119737525Y-103708569D01*
X119563024Y-109480057D02*
X119563024Y-103883070D01*
%TO.N,+12V*%
X120800000Y-102138500D02*
X120425500Y-102513000D01*
X120800000Y-92589201D02*
X120800000Y-102138500D01*
X121058621Y-92330580D02*
X120800000Y-92589201D01*
%TO.N,+5V*%
X134620000Y-74749146D02*
X135656562Y-75785708D01*
X135242270Y-76200000D02*
X135656562Y-75785708D01*
X134620000Y-68580000D02*
X134620000Y-74749146D01*
X137332610Y-65867390D02*
X137121889Y-66078111D01*
X137121889Y-66078111D02*
X137121889Y-66348300D01*
%TO.N,+6V*%
X122748417Y-60601583D02*
X124090779Y-61943944D01*
X122652155Y-60505320D02*
X122748417Y-60601583D01*
%TO.N,+12V*%
X122814692Y-92330580D02*
X121058621Y-92330580D01*
X67965500Y-93648000D02*
X70505500Y-96188000D01*
X84921840Y-96188000D02*
X87348918Y-93760922D01*
X88326107Y-93760922D02*
X97538163Y-84548866D01*
X126385500Y-92330580D02*
X122814692Y-92330580D01*
X87348918Y-93760922D02*
X88326107Y-93760922D01*
X70505500Y-96188000D02*
X84921840Y-96188000D01*
X67965500Y-88568000D02*
X73728565Y-82804935D01*
X147850838Y-94510838D02*
X147850838Y-111475041D01*
X130948040Y-87768040D02*
X141108040Y-87768040D01*
X126385500Y-92330580D02*
X130948040Y-87768040D01*
X97538163Y-84548866D02*
X115032978Y-84548866D01*
X87348918Y-93760922D02*
X87348918Y-91615410D01*
X67965500Y-93648000D02*
X67965500Y-88568000D01*
X141108040Y-87768040D02*
X147850838Y-94510838D01*
X73728565Y-82804935D02*
X82396967Y-82804935D01*
X115032978Y-84548866D02*
X122814692Y-92330580D01*
%TO.N,+6V*%
X122660561Y-60496914D02*
X122660561Y-55625987D01*
X87933139Y-86637110D02*
X87870975Y-86637110D01*
X98385347Y-86199599D02*
X107254386Y-86199599D01*
X145216607Y-66460812D02*
X145250065Y-66494270D01*
X92323473Y-86637110D02*
X94560292Y-84400292D01*
X145250065Y-66494270D02*
X145250065Y-71412638D01*
X91355346Y-85820567D02*
X93140017Y-85820567D01*
X93140017Y-85820567D02*
X94560292Y-84400292D01*
X107254386Y-86199599D02*
X110186657Y-89131870D01*
X87995303Y-86637110D02*
X92323473Y-86637110D01*
X117118726Y-73750718D02*
X105209865Y-73750718D01*
X128925500Y-61943944D02*
X117118726Y-73750718D01*
X124090779Y-61943944D02*
X128925500Y-61943944D01*
X87713831Y-86574946D02*
X87995303Y-86637110D01*
X87870975Y-86637110D02*
X87713831Y-86574946D01*
X122652155Y-60505320D02*
X122660561Y-60496914D01*
%TO.N,+5V*%
X138317483Y-119025990D02*
X136669488Y-117377995D01*
X59777524Y-53340000D02*
X56452761Y-56664763D01*
X132080000Y-114300000D02*
X135157995Y-117377995D01*
X56452761Y-56664763D02*
X56434285Y-56683239D01*
X109774741Y-53340000D02*
X86360000Y-53340000D01*
X83819999Y-119943996D02*
X84374285Y-120498282D01*
X111365841Y-54931100D02*
X109774741Y-53340000D01*
X113903236Y-113789774D02*
X114413462Y-114300000D01*
X113903236Y-104684572D02*
X111742472Y-102523808D01*
X83095068Y-53340000D02*
X59777524Y-53340000D01*
X84727534Y-54972466D02*
X83095068Y-53340000D01*
X86360000Y-53340000D02*
X84727534Y-54972466D01*
X127973318Y-114300000D02*
X130984935Y-111288383D01*
X111365841Y-54931100D02*
X111365841Y-60433648D01*
X130984935Y-111288383D02*
X132080000Y-112383448D01*
X135157995Y-117377995D02*
X136669488Y-117377995D01*
X56434285Y-56683239D02*
X56434285Y-59177523D01*
X85799282Y-56044214D02*
X84727534Y-54972466D01*
X114413462Y-114300000D02*
X127973318Y-114300000D01*
X83819999Y-107545476D02*
X83819999Y-119943996D01*
X113903236Y-113789774D02*
X113903236Y-104684572D01*
%TO.N,+3.3V*%
X71389326Y-56682291D02*
X71415618Y-56655999D01*
X61447721Y-56682291D02*
X71389326Y-56682291D01*
X72785191Y-69257579D02*
X71415618Y-67888006D01*
X71415618Y-67888006D02*
X71415618Y-56655999D01*
X72785191Y-69257579D02*
X65028870Y-77013900D01*
X65028870Y-77013900D02*
X62491625Y-77013900D01*
%TD*%
M02*
