%TF.GenerationSoftware,KiCad,Pcbnew,(7.0.0)*%
%TF.CreationDate,2023-04-15T15:54:35-07:00*%
%TF.ProjectId,FaultSignalGenerator_Isaiah_16Channel,4661756c-7453-4696-976e-616c47656e65,rev?*%
%TF.SameCoordinates,Original*%
%TF.FileFunction,Copper,L1,Top*%
%TF.FilePolarity,Positive*%
%FSLAX46Y46*%
G04 Gerber Fmt 4.6, Leading zero omitted, Abs format (unit mm)*
G04 Created by KiCad (PCBNEW (7.0.0)) date 2023-04-15 15:54:35*
%MOMM*%
%LPD*%
G01*
G04 APERTURE LIST*
G04 Aperture macros list*
%AMRoundRect*
0 Rectangle with rounded corners*
0 $1 Rounding radius*
0 $2 $3 $4 $5 $6 $7 $8 $9 X,Y pos of 4 corners*
0 Add a 4 corners polygon primitive as box body*
4,1,4,$2,$3,$4,$5,$6,$7,$8,$9,$2,$3,0*
0 Add four circle primitives for the rounded corners*
1,1,$1+$1,$2,$3*
1,1,$1+$1,$4,$5*
1,1,$1+$1,$6,$7*
1,1,$1+$1,$8,$9*
0 Add four rect primitives between the rounded corners*
20,1,$1+$1,$2,$3,$4,$5,0*
20,1,$1+$1,$4,$5,$6,$7,0*
20,1,$1+$1,$6,$7,$8,$9,0*
20,1,$1+$1,$8,$9,$2,$3,0*%
G04 Aperture macros list end*
%TA.AperFunction,SMDPad,CuDef*%
%ADD10RoundRect,0.250000X-1.075000X0.375000X-1.075000X-0.375000X1.075000X-0.375000X1.075000X0.375000X0*%
%TD*%
%TA.AperFunction,SMDPad,CuDef*%
%ADD11RoundRect,0.150000X-0.150000X0.825000X-0.150000X-0.825000X0.150000X-0.825000X0.150000X0.825000X0*%
%TD*%
%TA.AperFunction,SMDPad,CuDef*%
%ADD12RoundRect,0.250000X-0.312500X-0.625000X0.312500X-0.625000X0.312500X0.625000X-0.312500X0.625000X0*%
%TD*%
%TA.AperFunction,SMDPad,CuDef*%
%ADD13RoundRect,0.100000X-0.637500X-0.100000X0.637500X-0.100000X0.637500X0.100000X-0.637500X0.100000X0*%
%TD*%
%TA.AperFunction,SMDPad,CuDef*%
%ADD14R,2.850000X5.400000*%
%TD*%
%TA.AperFunction,SMDPad,CuDef*%
%ADD15RoundRect,0.250000X0.625000X-0.312500X0.625000X0.312500X-0.625000X0.312500X-0.625000X-0.312500X0*%
%TD*%
%TA.AperFunction,SMDPad,CuDef*%
%ADD16RoundRect,0.250000X1.400000X1.000000X-1.400000X1.000000X-1.400000X-1.000000X1.400000X-1.000000X0*%
%TD*%
%TA.AperFunction,SMDPad,CuDef*%
%ADD17RoundRect,0.250000X-0.412500X-0.650000X0.412500X-0.650000X0.412500X0.650000X-0.412500X0.650000X0*%
%TD*%
%TA.AperFunction,SMDPad,CuDef*%
%ADD18RoundRect,0.250000X0.412500X0.650000X-0.412500X0.650000X-0.412500X-0.650000X0.412500X-0.650000X0*%
%TD*%
%TA.AperFunction,SMDPad,CuDef*%
%ADD19RoundRect,0.250000X1.050000X0.550000X-1.050000X0.550000X-1.050000X-0.550000X1.050000X-0.550000X0*%
%TD*%
%TA.AperFunction,ComponentPad*%
%ADD20R,1.600000X1.600000*%
%TD*%
%TA.AperFunction,ComponentPad*%
%ADD21C,1.600000*%
%TD*%
%TA.AperFunction,SMDPad,CuDef*%
%ADD22RoundRect,0.250000X-0.625000X0.312500X-0.625000X-0.312500X0.625000X-0.312500X0.625000X0.312500X0*%
%TD*%
%TA.AperFunction,SMDPad,CuDef*%
%ADD23RoundRect,0.100000X0.100000X-0.637500X0.100000X0.637500X-0.100000X0.637500X-0.100000X-0.637500X0*%
%TD*%
%TA.AperFunction,SMDPad,CuDef*%
%ADD24RoundRect,0.250000X0.650000X-0.412500X0.650000X0.412500X-0.650000X0.412500X-0.650000X-0.412500X0*%
%TD*%
%TA.AperFunction,SMDPad,CuDef*%
%ADD25RoundRect,0.250000X-0.650000X0.412500X-0.650000X-0.412500X0.650000X-0.412500X0.650000X0.412500X0*%
%TD*%
%TA.AperFunction,SMDPad,CuDef*%
%ADD26RoundRect,0.250000X0.550000X-1.050000X0.550000X1.050000X-0.550000X1.050000X-0.550000X-1.050000X0*%
%TD*%
%TA.AperFunction,SMDPad,CuDef*%
%ADD27RoundRect,0.250000X0.312500X0.625000X-0.312500X0.625000X-0.312500X-0.625000X0.312500X-0.625000X0*%
%TD*%
%TA.AperFunction,SMDPad,CuDef*%
%ADD28RoundRect,0.250000X0.300000X-2.050000X0.300000X2.050000X-0.300000X2.050000X-0.300000X-2.050000X0*%
%TD*%
%TA.AperFunction,SMDPad,CuDef*%
%ADD29RoundRect,0.250000X2.375000X-2.025000X2.375000X2.025000X-2.375000X2.025000X-2.375000X-2.025000X0*%
%TD*%
%TA.AperFunction,SMDPad,CuDef*%
%ADD30RoundRect,0.250002X5.149998X-4.449998X5.149998X4.449998X-5.149998X4.449998X-5.149998X-4.449998X0*%
%TD*%
%TA.AperFunction,SMDPad,CuDef*%
%ADD31RoundRect,0.150000X0.150000X-0.512500X0.150000X0.512500X-0.150000X0.512500X-0.150000X-0.512500X0*%
%TD*%
%TA.AperFunction,SMDPad,CuDef*%
%ADD32RoundRect,0.250000X-0.550000X1.050000X-0.550000X-1.050000X0.550000X-1.050000X0.550000X1.050000X0*%
%TD*%
%TA.AperFunction,SMDPad,CuDef*%
%ADD33RoundRect,0.200000X0.200000X0.275000X-0.200000X0.275000X-0.200000X-0.275000X0.200000X-0.275000X0*%
%TD*%
%TA.AperFunction,SMDPad,CuDef*%
%ADD34RoundRect,0.150000X-0.825000X-0.150000X0.825000X-0.150000X0.825000X0.150000X-0.825000X0.150000X0*%
%TD*%
%TA.AperFunction,SMDPad,CuDef*%
%ADD35R,3.000000X1.000000*%
%TD*%
%TA.AperFunction,SMDPad,CuDef*%
%ADD36R,1.000000X3.000000*%
%TD*%
%TA.AperFunction,ViaPad*%
%ADD37C,0.600000*%
%TD*%
%TA.AperFunction,Conductor*%
%ADD38C,0.760000*%
%TD*%
%TA.AperFunction,Conductor*%
%ADD39C,0.200000*%
%TD*%
G04 APERTURE END LIST*
D10*
%TO.P,L1,1,1*%
%TO.N,+5V*%
X76795673Y-122225443D03*
%TO.P,L1,2,2*%
%TO.N,Net-(D1-A)*%
X76795673Y-125025443D03*
%TD*%
D11*
%TO.P,U10,1,1OUT*%
%TO.N,Channel5*%
X124635500Y-104288000D03*
%TO.P,U10,2,1IN-*%
%TO.N,-5gain*%
X123365500Y-104288000D03*
%TO.P,U10,3,1IN+*%
%TO.N,+6V*%
X122095500Y-104288000D03*
%TO.P,U10,4,VCC+*%
%TO.N,+12V*%
X120825500Y-104288000D03*
%TO.P,U10,5,2IN+*%
%TO.N,+6V*%
X119555500Y-104288000D03*
%TO.P,U10,6,2IN-*%
%TO.N,-6gain*%
X118285500Y-104288000D03*
%TO.P,U10,7,2OUT*%
%TO.N,Channel6*%
X117015500Y-104288000D03*
%TO.P,U10,8,3OUT*%
%TO.N,Channel7*%
X117015500Y-109238000D03*
%TO.P,U10,9,3IN-*%
%TO.N,-7gain*%
X118285500Y-109238000D03*
%TO.P,U10,10,3IN+*%
%TO.N,+6V*%
X119555500Y-109238000D03*
%TO.P,U10,11,VCC-*%
%TO.N,0*%
X120825500Y-109238000D03*
%TO.P,U10,12,4IN+*%
%TO.N,+6V*%
X122095500Y-109238000D03*
%TO.P,U10,13,4IN-*%
%TO.N,-8gain*%
X123365500Y-109238000D03*
%TO.P,U10,14,4OUT*%
%TO.N,Channel8*%
X124635500Y-109238000D03*
%TD*%
D12*
%TO.P,R50,1*%
%TO.N,DAC2*%
X94843592Y-96518621D03*
%TO.P,R50,2*%
%TO.N,Net-(C2-Pad1)*%
X97768592Y-96518621D03*
%TD*%
D13*
%TO.P,U14,1,ZR1/ZR1/FMT0*%
%TO.N,unconnected-(U14-ZR1{slash}ZR1{slash}FMT0-Pad1)*%
X75798613Y-100408812D03*
%TO.P,U14,2,\u002AMS/ADR/FMT1*%
%TO.N,0*%
X75798613Y-101058812D03*
%TO.P,U14,3,MC/SCL/DEMP*%
%TO.N,SCL*%
X75798613Y-101708812D03*
%TO.P,U14,4,MD/SDA/MUTE*%
%TO.N,SDA*%
X75798613Y-102358812D03*
%TO.P,U14,5,SCK*%
%TO.N,Net-(U14-SCK)*%
X75798613Y-103008812D03*
%TO.P,U14,6,DATA1*%
%TO.N,Net-(U14-DATA1)*%
X75798613Y-103658812D03*
%TO.P,U14,7,BCK*%
%TO.N,Net-(U14-BCK)*%
X75798613Y-104308812D03*
%TO.P,U14,8,LRCK*%
%TO.N,Net-(U14-LRCK)*%
X75798613Y-104958812D03*
%TO.P,U14,9,VDD*%
%TO.N,+3.3V*%
X75798613Y-105608812D03*
%TO.P,U14,10,DGND*%
%TO.N,0*%
X75798613Y-106258812D03*
%TO.P,U14,11,DATA2*%
%TO.N,unconnected-(U14-DATA2-Pad11)*%
X75798613Y-106908812D03*
%TO.P,U14,12,DATA3*%
%TO.N,unconnected-(U14-DATA3-Pad12)*%
X75798613Y-107558812D03*
%TO.P,U14,13,DATA4*%
%TO.N,unconnected-(U14-DATA4-Pad13)*%
X75798613Y-108208812D03*
%TO.P,U14,14,MSEL*%
%TO.N,0*%
X75798613Y-108858812D03*
%TO.P,U14,15,VOUT8*%
%TO.N,Net-(U14-VOUT8)*%
X81523613Y-108858812D03*
%TO.P,U14,16,VOUT7*%
%TO.N,Net-(U14-VOUT7)*%
X81523613Y-108208812D03*
%TO.P,U14,17,VCC1*%
%TO.N,+5V*%
X81523613Y-107558812D03*
%TO.P,U14,18,AGND1*%
%TO.N,0*%
X81523613Y-106908812D03*
%TO.P,U14,19,VOUT6*%
%TO.N,Net-(U14-VOUT6)*%
X81523613Y-106258812D03*
%TO.P,U14,20,VOUT5*%
%TO.N,Net-(U14-VOUT5)*%
X81523613Y-105608812D03*
%TO.P,U14,21,VOUT4*%
%TO.N,Net-(U14-VOUT4)*%
X81523613Y-104958812D03*
%TO.P,U14,22,VOUT3*%
%TO.N,Net-(U14-VOUT3)*%
X81523613Y-104308812D03*
%TO.P,U14,23,VCC2*%
%TO.N,+5V*%
X81523613Y-103658812D03*
%TO.P,U14,24,AGND2*%
%TO.N,0*%
X81523613Y-103008812D03*
%TO.P,U14,25,VCOM*%
%TO.N,COM1*%
X81523613Y-102358812D03*
%TO.P,U14,26,VOUT2*%
%TO.N,Net-(U14-VOUT2)*%
X81523613Y-101708812D03*
%TO.P,U14,27,VOUT1*%
%TO.N,Net-(U14-VOUT1)*%
X81523613Y-101058812D03*
%TO.P,U14,28,ZR2*%
%TO.N,unconnected-(U14-ZR2-Pad28)*%
X81523613Y-100408812D03*
D14*
%TO.P,U14,29,EPAD*%
%TO.N,0*%
X78661112Y-104633811D03*
%TD*%
D12*
%TO.P,R127,1*%
%TO.N,DAC16*%
X94758500Y-73074000D03*
%TO.P,R127,2*%
%TO.N,Net-(C72-Pad1)*%
X97683500Y-73074000D03*
%TD*%
%TO.P,R103,1*%
%TO.N,DAC12*%
X94716082Y-62421099D03*
%TO.P,R103,2*%
%TO.N,Net-(C57-Pad1)*%
X97641082Y-62421099D03*
%TD*%
D15*
%TO.P,R11,1*%
%TO.N,0*%
X65890751Y-49002500D03*
%TO.P,R11,2*%
%TO.N,Net-(J2-Pin_10)*%
X65890751Y-46077500D03*
%TD*%
%TO.P,R48,1*%
%TO.N,Net-(U4-P0A)*%
X140775500Y-63663000D03*
%TO.P,R48,2*%
%TO.N,Channel13*%
X140775500Y-60738000D03*
%TD*%
D16*
%TO.P,D1,1,K*%
%TO.N,Net-(D1-K)*%
X76710500Y-134805500D03*
%TO.P,D1,2,A*%
%TO.N,Net-(D1-A)*%
X76710500Y-128005500D03*
%TD*%
D11*
%TO.P,U11,1,1OUT*%
%TO.N,Channel9*%
X125225500Y-55588000D03*
%TO.P,U11,2,1IN-*%
%TO.N,-9gain*%
X123955500Y-55588000D03*
%TO.P,U11,3,1IN+*%
%TO.N,+6V*%
X122685500Y-55588000D03*
%TO.P,U11,4,VCC+*%
%TO.N,+12V*%
X121415500Y-55588000D03*
%TO.P,U11,5,2IN+*%
%TO.N,+6V*%
X120145500Y-55588000D03*
%TO.P,U11,6,2IN-*%
%TO.N,-10gain*%
X118875500Y-55588000D03*
%TO.P,U11,7,2OUT*%
%TO.N,Channel10*%
X117605500Y-55588000D03*
%TO.P,U11,8,3OUT*%
%TO.N,Channel11*%
X117605500Y-60538000D03*
%TO.P,U11,9,3IN-*%
%TO.N,-11gain*%
X118875500Y-60538000D03*
%TO.P,U11,10,3IN+*%
%TO.N,+6V*%
X120145500Y-60538000D03*
%TO.P,U11,11,VCC-*%
%TO.N,0*%
X121415500Y-60538000D03*
%TO.P,U11,12,4IN+*%
%TO.N,+6V*%
X122685500Y-60538000D03*
%TO.P,U11,13,4IN-*%
%TO.N,-12gain*%
X123955500Y-60538000D03*
%TO.P,U11,14,4OUT*%
%TO.N,Channel12*%
X125225500Y-60538000D03*
%TD*%
D12*
%TO.P,R52,1*%
%TO.N,DAC4*%
X94774024Y-102088317D03*
%TO.P,R52,2*%
%TO.N,Net-(C4-Pad1)*%
X97699024Y-102088317D03*
%TD*%
D15*
%TO.P,R44,1*%
%TO.N,Net-(U3-P0A)*%
X115175500Y-100963000D03*
%TO.P,R44,2*%
%TO.N,Channel5*%
X115175500Y-98038000D03*
%TD*%
D12*
%TO.P,R74,1*%
%TO.N,DAC6*%
X94857116Y-107663856D03*
%TO.P,R74,2*%
%TO.N,Net-(C17-Pad1)*%
X97782116Y-107663856D03*
%TD*%
%TO.P,R104,1*%
%TO.N,DAC13*%
X94758500Y-65014992D03*
%TO.P,R104,2*%
%TO.N,Net-(C58-Pad1)*%
X97683500Y-65014992D03*
%TD*%
D17*
%TO.P,C45,1*%
%TO.N,Net-(U15-VOUT4)*%
X89470386Y-62586922D03*
%TO.P,C45,2*%
%TO.N,DAC12*%
X92595386Y-62586922D03*
%TD*%
D18*
%TO.P,C80,1*%
%TO.N,0*%
X65338000Y-134690500D03*
%TO.P,C80,2*%
%TO.N,+12V*%
X62213000Y-134690500D03*
%TD*%
D15*
%TO.P,R24,1*%
%TO.N,Channel12*%
X115165500Y-66975500D03*
%TO.P,R24,2*%
%TO.N,Net-(U2-P1A)*%
X115165500Y-64050500D03*
%TD*%
D19*
%TO.P,C27,1*%
%TO.N,+6V*%
X97925500Y-86188000D03*
%TO.P,C27,2*%
%TO.N,0*%
X94325500Y-86188000D03*
%TD*%
D15*
%TO.P,R14,1*%
%TO.N,0*%
X81190751Y-49052500D03*
%TO.P,R14,2*%
%TO.N,Net-(J2-Pin_22)*%
X81190751Y-46127500D03*
%TD*%
D20*
%TO.P,J3,1,1*%
%TO.N,/Amplification Stage/out13*%
X129724999Y-39430330D03*
D21*
%TO.P,J3,2,2*%
%TO.N,/Amplification Stage/out12*%
X132495000Y-39430331D03*
%TO.P,J3,3,3*%
%TO.N,/Amplification Stage/out11*%
X135265000Y-39430331D03*
%TO.P,J3,4,4*%
%TO.N,/Amplification Stage/out10*%
X138035000Y-39430331D03*
%TO.P,J3,5,5*%
%TO.N,/Amplification Stage/out9*%
X140805000Y-39430331D03*
%TO.P,J3,6,6*%
%TO.N,/Amplification Stage/out8*%
X143575000Y-39430331D03*
%TO.P,J3,7,7*%
%TO.N,/Amplification Stage/out7*%
X146345000Y-39430331D03*
%TO.P,J3,8,8*%
%TO.N,/Amplification Stage/out6*%
X149115000Y-39430331D03*
%TO.P,J3,9,9*%
%TO.N,/Amplification Stage/out5*%
X151885000Y-39430331D03*
%TO.P,J3,10,10*%
%TO.N,/Amplification Stage/out4*%
X154655000Y-39430331D03*
%TO.P,J3,11,11*%
%TO.N,/Amplification Stage/out3*%
X157425000Y-39430331D03*
%TO.P,J3,12,12*%
%TO.N,/Amplification Stage/out2*%
X160195000Y-39430331D03*
%TO.P,J3,13,13*%
%TO.N,/Amplification Stage/out1*%
X162965000Y-39430331D03*
%TO.P,J3,14,P14*%
%TO.N,unconnected-(J3-P14-Pad14)*%
X131110000Y-36890331D03*
%TO.P,J3,15,P15*%
%TO.N,unconnected-(J3-P15-Pad15)*%
X133880000Y-36890331D03*
%TO.P,J3,16,P16*%
%TO.N,unconnected-(J3-P16-Pad16)*%
X136650000Y-36890331D03*
%TO.P,J3,17,P17*%
%TO.N,0*%
X139420000Y-36890331D03*
%TO.P,J3,18,P18*%
%TO.N,unconnected-(J3-P18-Pad18)*%
X142190000Y-36890331D03*
%TO.P,J3,19,P19*%
%TO.N,unconnected-(J3-P19-Pad19)*%
X144960000Y-36890331D03*
%TO.P,J3,20,P20*%
%TO.N,unconnected-(J3-P20-Pad20)*%
X147730000Y-36890331D03*
%TO.P,J3,21,P21*%
%TO.N,unconnected-(J3-P21-Pad21)*%
X150500000Y-36890331D03*
%TO.P,J3,22,P22*%
%TO.N,unconnected-(J3-P22-Pad22)*%
X153270000Y-36890331D03*
%TO.P,J3,23,P23*%
%TO.N,/Amplification Stage/out16*%
X156040000Y-36890331D03*
%TO.P,J3,24,P24*%
%TO.N,/Amplification Stage/out15*%
X158810000Y-36890331D03*
%TO.P,J3,25,P25*%
%TO.N,/Amplification Stage/out14*%
X161580000Y-36890331D03*
%TD*%
D15*
%TO.P,R40,1*%
%TO.N,Channel16*%
X141314205Y-77435948D03*
%TO.P,R40,2*%
%TO.N,Net-(U4-P1A)*%
X141314205Y-74510948D03*
%TD*%
D12*
%TO.P,R76,1*%
%TO.N,DAC8*%
X94504500Y-113714000D03*
%TO.P,R76,2*%
%TO.N,Net-(C19-Pad1)*%
X97429500Y-113714000D03*
%TD*%
D15*
%TO.P,R33,1*%
%TO.N,Channel7*%
X107638285Y-115302965D03*
%TO.P,R33,2*%
%TO.N,Net-(U3-P3A)*%
X107638285Y-112377965D03*
%TD*%
D12*
%TO.P,R53,1*%
%TO.N,DAC5*%
X94766705Y-104867220D03*
%TO.P,R53,2*%
%TO.N,Net-(C5-Pad1)*%
X97691705Y-104867220D03*
%TD*%
D15*
%TO.P,R41,1*%
%TO.N,Net-(U3-P2A)*%
X108375500Y-100913000D03*
%TO.P,R41,2*%
%TO.N,Channel6*%
X108375500Y-97988000D03*
%TD*%
D22*
%TO.P,R6,1*%
%TO.N,0*%
X81140751Y-32327500D03*
%TO.P,R6,2*%
%TO.N,Net-(J2-Pin_21)*%
X81140751Y-35252500D03*
%TD*%
D15*
%TO.P,R9,1*%
%TO.N,0*%
X55640751Y-49152500D03*
%TO.P,R9,2*%
%TO.N,Net-(J2-Pin_2)*%
X55640751Y-46227500D03*
%TD*%
%TO.P,R42,1*%
%TO.N,Net-(U3-P2B)*%
X110675500Y-100963000D03*
%TO.P,R42,2*%
%TO.N,gain6*%
X110675500Y-98038000D03*
%TD*%
D23*
%TO.P,U1,1,P3A*%
%TO.N,Net-(U1-P3A)*%
X134670500Y-117125500D03*
%TO.P,U1,2,P3W*%
%TO.N,-3gain*%
X135320500Y-117125500D03*
%TO.P,U1,3,P3B*%
%TO.N,Net-(U1-P3B)*%
X135970500Y-117125500D03*
%TO.P,U1,4,HVC/A0*%
%TO.N,+5V*%
X136620500Y-117125500D03*
%TO.P,U1,5,SCL*%
%TO.N,SCL*%
X137270500Y-117125500D03*
%TO.P,U1,6,SDA*%
%TO.N,SDA*%
X137920500Y-117125500D03*
%TO.P,U1,7,VSS*%
%TO.N,0*%
X138570500Y-117125500D03*
%TO.P,U1,8,P1B*%
%TO.N,Net-(U1-P1B)*%
X139220500Y-117125500D03*
%TO.P,U1,9,P1W*%
%TO.N,-4gain*%
X139870500Y-117125500D03*
%TO.P,U1,10,P1A*%
%TO.N,Net-(U1-P1A)*%
X140520500Y-117125500D03*
%TO.P,U1,11,P0A*%
%TO.N,Net-(U1-P0A)*%
X140520500Y-111400500D03*
%TO.P,U1,12,P0W*%
%TO.N,-1gain*%
X139870500Y-111400500D03*
%TO.P,U1,13,P0B*%
%TO.N,Net-(U1-P0B)*%
X139220500Y-111400500D03*
%TO.P,U1,14,NC*%
%TO.N,unconnected-(U1-NC-Pad14)*%
X138570500Y-111400500D03*
%TO.P,U1,15,\u002ARESET*%
%TO.N,unconnected-(U1-\u002ARESET-Pad15)*%
X137920500Y-111400500D03*
%TO.P,U1,16,A1*%
%TO.N,+5V*%
X137270500Y-111400500D03*
%TO.P,U1,17,VDD*%
X136620500Y-111400500D03*
%TO.P,U1,18,P2B*%
%TO.N,Net-(U1-P2B)*%
X135970500Y-111400500D03*
%TO.P,U1,19,P2W*%
%TO.N,-2gain*%
X135320500Y-111400500D03*
%TO.P,U1,20,P2A*%
%TO.N,Net-(U1-P2A)*%
X134670500Y-111400500D03*
%TD*%
D12*
%TO.P,R102,1*%
%TO.N,DAC11*%
X94712745Y-59979614D03*
%TO.P,R102,2*%
%TO.N,Net-(C56-Pad1)*%
X97637745Y-59979614D03*
%TD*%
D15*
%TO.P,R46,1*%
%TO.N,Net-(U4-P2B)*%
X136125500Y-63563000D03*
%TO.P,R46,2*%
%TO.N,gain14*%
X136125500Y-60638000D03*
%TD*%
%TO.P,R27,1*%
%TO.N,Net-(U1-P0B)*%
X138909500Y-107914000D03*
%TO.P,R27,2*%
%TO.N,gain1*%
X138909500Y-104989000D03*
%TD*%
D22*
%TO.P,R4,1*%
%TO.N,0*%
X71040751Y-32327500D03*
%TO.P,R4,2*%
%TO.N,Net-(J2-Pin_13)*%
X71040751Y-35252500D03*
%TD*%
D15*
%TO.P,R17,1*%
%TO.N,Channel3*%
X133782240Y-123560790D03*
%TO.P,R17,2*%
%TO.N,Net-(U1-P3A)*%
X133782240Y-120635790D03*
%TD*%
%TO.P,R21,1*%
%TO.N,Channel11*%
X107222558Y-66958598D03*
%TO.P,R21,2*%
%TO.N,Net-(U2-P3A)*%
X107222558Y-64033598D03*
%TD*%
%TO.P,R43,1*%
%TO.N,Net-(U3-P0B)*%
X112925500Y-101013000D03*
%TO.P,R43,2*%
%TO.N,gain5*%
X112925500Y-98088000D03*
%TD*%
D17*
%TO.P,C35,1*%
%TO.N,Net-(U14-VOUT7)*%
X89206980Y-110641551D03*
%TO.P,C35,2*%
%TO.N,DAC7*%
X92331980Y-110641551D03*
%TD*%
D24*
%TO.P,C81,1*%
%TO.N,0*%
X81745629Y-124844997D03*
%TO.P,C81,2*%
%TO.N,+5V*%
X81745629Y-121719997D03*
%TD*%
D15*
%TO.P,R13,1*%
%TO.N,0*%
X76140751Y-49002500D03*
%TO.P,R13,2*%
%TO.N,Net-(J2-Pin_18)*%
X76140751Y-46077500D03*
%TD*%
D12*
%TO.P,R51,1*%
%TO.N,DAC3*%
X94840844Y-99217890D03*
%TO.P,R51,2*%
%TO.N,Net-(C3-Pad1)*%
X97765844Y-99217890D03*
%TD*%
D17*
%TO.P,C32,1*%
%TO.N,Net-(U14-VOUT2)*%
X89539936Y-96533812D03*
%TO.P,C32,2*%
%TO.N,DAC2*%
X92664936Y-96533812D03*
%TD*%
D15*
%TO.P,R18,1*%
%TO.N,gain3*%
X136182240Y-123623290D03*
%TO.P,R18,2*%
%TO.N,Net-(U1-P3B)*%
X136182240Y-120698290D03*
%TD*%
D22*
%TO.P,R3,1*%
%TO.N,0*%
X65940751Y-32327500D03*
%TO.P,R3,2*%
%TO.N,Net-(J2-Pin_9)*%
X65940751Y-35252500D03*
%TD*%
D17*
%TO.P,C37,1*%
%TO.N,Net-(U15-VOUT3)*%
X89470386Y-60046922D03*
%TO.P,C37,2*%
%TO.N,DAC11*%
X92595386Y-60046922D03*
%TD*%
D25*
%TO.P,C28,1*%
%TO.N,Net-(U13-3IN+)*%
X80825500Y-88725500D03*
%TO.P,C28,2*%
%TO.N,0*%
X80825500Y-91850500D03*
%TD*%
D26*
%TO.P,C79,1*%
%TO.N,+12V*%
X57425500Y-133950500D03*
%TO.P,C79,2*%
%TO.N,0*%
X57425500Y-130350500D03*
%TD*%
D11*
%TO.P,U9,1,1OUT*%
%TO.N,Channel1*%
X151655500Y-111588000D03*
%TO.P,U9,2,1IN-*%
%TO.N,-1gain*%
X150385500Y-111588000D03*
%TO.P,U9,3,1IN+*%
%TO.N,+6V*%
X149115500Y-111588000D03*
%TO.P,U9,4,VCC+*%
%TO.N,+12V*%
X147845500Y-111588000D03*
%TO.P,U9,5,2IN+*%
%TO.N,+6V*%
X146575500Y-111588000D03*
%TO.P,U9,6,2IN-*%
%TO.N,-2gain*%
X145305500Y-111588000D03*
%TO.P,U9,7,2OUT*%
%TO.N,Channel2*%
X144035500Y-111588000D03*
%TO.P,U9,8,3OUT*%
%TO.N,Channel3*%
X144035500Y-116538000D03*
%TO.P,U9,9,3IN-*%
%TO.N,-3gain*%
X145305500Y-116538000D03*
%TO.P,U9,10,3IN+*%
%TO.N,+6V*%
X146575500Y-116538000D03*
%TO.P,U9,11,VCC-*%
%TO.N,0*%
X147845500Y-116538000D03*
%TO.P,U9,12,4IN+*%
%TO.N,+6V*%
X149115500Y-116538000D03*
%TO.P,U9,13,4IN-*%
%TO.N,-4gain*%
X150385500Y-116538000D03*
%TO.P,U9,14,4OUT*%
%TO.N,Channel4*%
X151655500Y-116538000D03*
%TD*%
D27*
%TO.P,R140,1*%
%TO.N,Boost_Shutdown*%
X87297224Y-120612426D03*
%TO.P,R140,2*%
%TO.N,+5V*%
X84372224Y-120612426D03*
%TD*%
D17*
%TO.P,C40,1*%
%TO.N,Net-(U14-VOUT1)*%
X89619025Y-93845568D03*
%TO.P,C40,2*%
%TO.N,DAC1*%
X92744025Y-93845568D03*
%TD*%
D15*
%TO.P,R19,1*%
%TO.N,gain4*%
X138995500Y-123663000D03*
%TO.P,R19,2*%
%TO.N,Net-(U1-P1B)*%
X138995500Y-120738000D03*
%TD*%
%TO.P,R47,1*%
%TO.N,Net-(U4-P0B)*%
X138475500Y-63613000D03*
%TO.P,R47,2*%
%TO.N,gain13*%
X138475500Y-60688000D03*
%TD*%
D12*
%TO.P,R125,1*%
%TO.N,DAC14*%
X94870430Y-67589397D03*
%TO.P,R125,2*%
%TO.N,Net-(C70-Pad1)*%
X97795430Y-67589397D03*
%TD*%
%TO.P,R49,1*%
%TO.N,DAC1*%
X94838274Y-93891669D03*
%TO.P,R49,2*%
%TO.N,Net-(C1-Pad1)*%
X97763274Y-93891669D03*
%TD*%
D23*
%TO.P,U4,1,P3A*%
%TO.N,Net-(U4-P3A)*%
X134650500Y-71850500D03*
%TO.P,U4,2,P3W*%
%TO.N,-15gain*%
X135300500Y-71850500D03*
%TO.P,U4,3,P3B*%
%TO.N,Net-(U4-P3B)*%
X135950500Y-71850500D03*
%TO.P,U4,4,HVC/A0*%
%TO.N,+5V*%
X136600500Y-71850500D03*
%TO.P,U4,5,SCL*%
%TO.N,SCL*%
X137250500Y-71850500D03*
%TO.P,U4,6,SDA*%
%TO.N,SDA*%
X137900500Y-71850500D03*
%TO.P,U4,7,VSS*%
%TO.N,0*%
X138550500Y-71850500D03*
%TO.P,U4,8,P1B*%
%TO.N,Net-(U4-P1B)*%
X139200500Y-71850500D03*
%TO.P,U4,9,P1W*%
%TO.N,-16gain*%
X139850500Y-71850500D03*
%TO.P,U4,10,P1A*%
%TO.N,Net-(U4-P1A)*%
X140500500Y-71850500D03*
%TO.P,U4,11,P0A*%
%TO.N,Net-(U4-P0A)*%
X140500500Y-66125500D03*
%TO.P,U4,12,P0W*%
%TO.N,-13gain*%
X139850500Y-66125500D03*
%TO.P,U4,13,P0B*%
%TO.N,Net-(U4-P0B)*%
X139200500Y-66125500D03*
%TO.P,U4,14,NC*%
%TO.N,unconnected-(U4-NC-Pad14)*%
X138550500Y-66125500D03*
%TO.P,U4,15,\u002ARESET*%
%TO.N,unconnected-(U4-\u002ARESET-Pad15)*%
X137900500Y-66125500D03*
%TO.P,U4,16,A1*%
%TO.N,+5V*%
X137250500Y-66125500D03*
%TO.P,U4,17,VDD*%
X136600500Y-66125500D03*
%TO.P,U4,18,P2B*%
%TO.N,Net-(U4-P2B)*%
X135950500Y-66125500D03*
%TO.P,U4,19,P2W*%
%TO.N,-14gain*%
X135300500Y-66125500D03*
%TO.P,U4,20,P2A*%
%TO.N,Net-(U4-P2A)*%
X134650500Y-66125500D03*
%TD*%
D28*
%TO.P,U16,1,OUTPUT*%
%TO.N,+12V*%
X64010500Y-128715500D03*
%TO.P,U16,2,COMMON*%
%TO.N,0*%
X66550500Y-128715500D03*
%TO.P,U16,3,INPUT*%
%TO.N,Net-(D1-K)*%
X69090500Y-128715500D03*
D29*
%TO.P,U16,4,EPAD*%
%TO.N,0*%
X63775500Y-121990500D03*
X69325500Y-121990500D03*
D30*
X66550500Y-119565500D03*
D29*
X63775500Y-117140500D03*
X69325500Y-117140500D03*
%TD*%
D25*
%TO.P,C83,1*%
%TO.N,0*%
X81790500Y-131680500D03*
%TO.P,C83,2*%
%TO.N,Net-(D1-K)*%
X81790500Y-134805500D03*
%TD*%
D23*
%TO.P,U2,1,P3A*%
%TO.N,Net-(U2-P3A)*%
X109040500Y-60625500D03*
%TO.P,U2,2,P3W*%
%TO.N,-11gain*%
X109690500Y-60625500D03*
%TO.P,U2,3,P3B*%
%TO.N,Net-(U2-P3B)*%
X110340500Y-60625500D03*
%TO.P,U2,4,HVC/A0*%
%TO.N,+5V*%
X110990500Y-60625500D03*
%TO.P,U2,5,SCL*%
%TO.N,SCL*%
X111640500Y-60625500D03*
%TO.P,U2,6,SDA*%
%TO.N,SDA*%
X112290500Y-60625500D03*
%TO.P,U2,7,VSS*%
%TO.N,0*%
X112940500Y-60625500D03*
%TO.P,U2,8,P1B*%
%TO.N,Net-(U2-P1B)*%
X113590500Y-60625500D03*
%TO.P,U2,9,P1W*%
%TO.N,-12gain*%
X114240500Y-60625500D03*
%TO.P,U2,10,P1A*%
%TO.N,Net-(U2-P1A)*%
X114890500Y-60625500D03*
%TO.P,U2,11,P0A*%
%TO.N,Net-(U2-P0A)*%
X114890500Y-54900500D03*
%TO.P,U2,12,P0W*%
%TO.N,-9gain*%
X114240500Y-54900500D03*
%TO.P,U2,13,P0B*%
%TO.N,Net-(U2-P0B)*%
X113590500Y-54900500D03*
%TO.P,U2,14,NC*%
%TO.N,unconnected-(U2-NC-Pad14)*%
X112940500Y-54900500D03*
%TO.P,U2,15,\u002ARESET*%
%TO.N,unconnected-(U2-\u002ARESET-Pad15)*%
X112290500Y-54900500D03*
%TO.P,U2,16,A1*%
%TO.N,+5V*%
X111640500Y-54900500D03*
%TO.P,U2,17,VDD*%
X110990500Y-54900500D03*
%TO.P,U2,18,P2B*%
%TO.N,Net-(U2-P2B)*%
X110340500Y-54900500D03*
%TO.P,U2,19,P2W*%
%TO.N,-10gain*%
X109690500Y-54900500D03*
%TO.P,U2,20,P2A*%
%TO.N,Net-(U2-P2A)*%
X109040500Y-54900500D03*
%TD*%
D15*
%TO.P,R23,1*%
%TO.N,gain12*%
X112915320Y-66969390D03*
%TO.P,R23,2*%
%TO.N,Net-(U2-P1B)*%
X112915320Y-64044390D03*
%TD*%
%TO.P,R25,1*%
%TO.N,Net-(U1-P2A)*%
X134277500Y-107838000D03*
%TO.P,R25,2*%
%TO.N,Channel2*%
X134277500Y-104913000D03*
%TD*%
%TO.P,R34,1*%
%TO.N,gain7*%
X109888285Y-115302965D03*
%TO.P,R34,2*%
%TO.N,Net-(U3-P3B)*%
X109888285Y-112377965D03*
%TD*%
%TO.P,R31,1*%
%TO.N,Net-(U2-P0B)*%
X112615500Y-51813000D03*
%TO.P,R31,2*%
%TO.N,gain9*%
X112615500Y-48888000D03*
%TD*%
D17*
%TO.P,C84,1*%
%TO.N,0*%
X68563000Y-134690500D03*
%TO.P,C84,2*%
%TO.N,Net-(D1-K)*%
X71688000Y-134690500D03*
%TD*%
%TO.P,C47,1*%
%TO.N,Net-(U15-VOUT8)*%
X89470386Y-72746922D03*
%TO.P,C47,2*%
%TO.N,DAC16*%
X92595386Y-72746922D03*
%TD*%
%TO.P,C34,1*%
%TO.N,Net-(U14-VOUT5)*%
X89346445Y-104903273D03*
%TO.P,C34,2*%
%TO.N,DAC5*%
X92471445Y-104903273D03*
%TD*%
D12*
%TO.P,R141,1*%
%TO.N,0*%
X84300485Y-129794954D03*
%TO.P,R141,2*%
%TO.N,Net-(C82-Pad1)*%
X87225485Y-129794954D03*
%TD*%
D17*
%TO.P,C43,1*%
%TO.N,Net-(U14-VOUT8)*%
X89213438Y-113653611D03*
%TO.P,C43,2*%
%TO.N,DAC8*%
X92338438Y-113653611D03*
%TD*%
D31*
%TO.P,U18,1,SW*%
%TO.N,Net-(D1-A)*%
X84884724Y-125921075D03*
%TO.P,U18,2,GND*%
%TO.N,0*%
X85834724Y-125921075D03*
%TO.P,U18,3,FB*%
%TO.N,Net-(U18-FB)*%
X86784724Y-125921075D03*
%TO.P,U18,4,SHDN*%
%TO.N,Boost_Shutdown*%
X86784724Y-123646075D03*
%TO.P,U18,5,Vin*%
%TO.N,+5V*%
X84884724Y-123646075D03*
%TD*%
D15*
%TO.P,R26,1*%
%TO.N,Net-(U1-P2B)*%
X136577500Y-107888000D03*
%TO.P,R26,2*%
%TO.N,gain2*%
X136577500Y-104963000D03*
%TD*%
%TO.P,R12,1*%
%TO.N,0*%
X70890751Y-49152500D03*
%TO.P,R12,2*%
%TO.N,Net-(J2-Pin_14)*%
X70890751Y-46227500D03*
%TD*%
D17*
%TO.P,C42,1*%
%TO.N,Net-(U14-VOUT6)*%
X89252113Y-108189812D03*
%TO.P,C42,2*%
%TO.N,DAC6*%
X92377113Y-108189812D03*
%TD*%
D15*
%TO.P,R39,1*%
%TO.N,gain16*%
X139034662Y-77488889D03*
%TO.P,R39,2*%
%TO.N,Net-(U4-P1B)*%
X139034662Y-74563889D03*
%TD*%
D18*
%TO.P,C82,1*%
%TO.N,Net-(C82-Pad1)*%
X87455500Y-132265500D03*
%TO.P,C82,2*%
%TO.N,Net-(D1-K)*%
X84330500Y-132265500D03*
%TD*%
D32*
%TO.P,C29,1*%
%TO.N,Net-(U13-3IN+)*%
X84725500Y-89088000D03*
%TO.P,C29,2*%
%TO.N,0*%
X84725500Y-92688000D03*
%TD*%
D12*
%TO.P,R126,1*%
%TO.N,DAC15*%
X94877831Y-70387664D03*
%TO.P,R126,2*%
%TO.N,Net-(C71-Pad1)*%
X97802831Y-70387664D03*
%TD*%
D33*
%TO.P,R142,1*%
%TO.N,Net-(U18-FB)*%
X86618000Y-134805500D03*
%TO.P,R142,2*%
%TO.N,Net-(D1-K)*%
X84968000Y-134805500D03*
%TD*%
D15*
%TO.P,R45,1*%
%TO.N,Net-(U4-P2A)*%
X133707919Y-63571862D03*
%TO.P,R45,2*%
%TO.N,Channel14*%
X133707919Y-60646862D03*
%TD*%
D22*
%TO.P,R7,1*%
%TO.N,0*%
X86221428Y-32349567D03*
%TO.P,R7,2*%
%TO.N,Net-(J2-Pin_25)*%
X86221428Y-35274567D03*
%TD*%
D12*
%TO.P,R101,1*%
%TO.N,DAC9*%
X94679661Y-54966922D03*
%TO.P,R101,2*%
%TO.N,Net-(C55-Pad1)*%
X97604661Y-54966922D03*
%TD*%
D22*
%TO.P,R5,1*%
%TO.N,0*%
X76090751Y-32327500D03*
%TO.P,R5,2*%
%TO.N,Net-(J2-Pin_17)*%
X76090751Y-35252500D03*
%TD*%
D15*
%TO.P,R37,1*%
%TO.N,Channel15*%
X132092400Y-77639849D03*
%TO.P,R37,2*%
%TO.N,Net-(U4-P3A)*%
X132092400Y-74714849D03*
%TD*%
%TO.P,R16,1*%
%TO.N,0*%
X91240751Y-49052500D03*
%TO.P,R16,2*%
%TO.N,Net-(J2-Pin_30)*%
X91240751Y-46127500D03*
%TD*%
D23*
%TO.P,U3,1,P3A*%
%TO.N,Net-(U3-P3A)*%
X109100500Y-109675500D03*
%TO.P,U3,2,P3W*%
%TO.N,-7gain*%
X109750500Y-109675500D03*
%TO.P,U3,3,P3B*%
%TO.N,Net-(U3-P3B)*%
X110400500Y-109675500D03*
%TO.P,U3,4,HVC/A0*%
%TO.N,+5V*%
X111050500Y-109675500D03*
%TO.P,U3,5,SCL*%
%TO.N,SCL*%
X111700500Y-109675500D03*
%TO.P,U3,6,SDA*%
%TO.N,SDA*%
X112350500Y-109675500D03*
%TO.P,U3,7,VSS*%
%TO.N,0*%
X113000500Y-109675500D03*
%TO.P,U3,8,P1B*%
%TO.N,Net-(U3-P1B)*%
X113650500Y-109675500D03*
%TO.P,U3,9,P1W*%
%TO.N,-8gain*%
X114300500Y-109675500D03*
%TO.P,U3,10,P1A*%
%TO.N,Net-(U3-P1A)*%
X114950500Y-109675500D03*
%TO.P,U3,11,P0A*%
%TO.N,Net-(U3-P0A)*%
X114950500Y-103950500D03*
%TO.P,U3,12,P0W*%
%TO.N,-5gain*%
X114300500Y-103950500D03*
%TO.P,U3,13,P0B*%
%TO.N,Net-(U3-P0B)*%
X113650500Y-103950500D03*
%TO.P,U3,14,NC*%
%TO.N,unconnected-(U3-NC-Pad14)*%
X113000500Y-103950500D03*
%TO.P,U3,15,\u002ARESET*%
%TO.N,unconnected-(U3-\u002ARESET-Pad15)*%
X112350500Y-103950500D03*
%TO.P,U3,16,A1*%
%TO.N,+5V*%
X111700500Y-103950500D03*
%TO.P,U3,17,VDD*%
X111050500Y-103950500D03*
%TO.P,U3,18,P2B*%
%TO.N,Net-(U3-P2B)*%
X110400500Y-103950500D03*
%TO.P,U3,19,P2W*%
%TO.N,-6gain*%
X109750500Y-103950500D03*
%TO.P,U3,20,P2A*%
%TO.N,Net-(U3-P2A)*%
X109100500Y-103950500D03*
%TD*%
D12*
%TO.P,R100,1*%
%TO.N,DAC10*%
X94679661Y-57506922D03*
%TO.P,R100,2*%
%TO.N,Net-(C54-Pad1)*%
X97604661Y-57506922D03*
%TD*%
D22*
%TO.P,R1,1*%
%TO.N,0*%
X55790751Y-32327500D03*
%TO.P,R1,2*%
%TO.N,Net-(J2-Pin_1)*%
X55790751Y-35252500D03*
%TD*%
D15*
%TO.P,R28,1*%
%TO.N,Net-(U1-P0A)*%
X141195500Y-107914000D03*
%TO.P,R28,2*%
%TO.N,Channel1*%
X141195500Y-104989000D03*
%TD*%
%TO.P,R29,1*%
%TO.N,Net-(U2-P2A)*%
X107965500Y-51713000D03*
%TO.P,R29,2*%
%TO.N,Channel10*%
X107965500Y-48788000D03*
%TD*%
D17*
%TO.P,C33,1*%
%TO.N,Net-(U14-VOUT3)*%
X89497165Y-99217589D03*
%TO.P,C33,2*%
%TO.N,DAC3*%
X92622165Y-99217589D03*
%TD*%
%TO.P,C36,1*%
%TO.N,Net-(U15-VOUT2)*%
X89470386Y-57506922D03*
%TO.P,C36,2*%
%TO.N,DAC10*%
X92595386Y-57506922D03*
%TD*%
D15*
%TO.P,R38,1*%
%TO.N,gain15*%
X135155383Y-77662500D03*
%TO.P,R38,2*%
%TO.N,Net-(U4-P3B)*%
X135155383Y-74737500D03*
%TD*%
D17*
%TO.P,C46,1*%
%TO.N,Net-(U15-VOUT6)*%
X89640000Y-67579466D03*
%TO.P,C46,2*%
%TO.N,DAC14*%
X92765000Y-67579466D03*
%TD*%
%TO.P,C44,1*%
%TO.N,Net-(U15-VOUT1)*%
X89470386Y-54966922D03*
%TO.P,C44,2*%
%TO.N,DAC9*%
X92595386Y-54966922D03*
%TD*%
D34*
%TO.P,U13,1,1OUT*%
%TO.N,+1*%
X82425500Y-79038000D03*
%TO.P,U13,2,1IN-*%
X82425500Y-80308000D03*
%TO.P,U13,3,1IN+*%
%TO.N,COM1*%
X82425500Y-81578000D03*
%TO.P,U13,4,VCC+*%
%TO.N,+12V*%
X82425500Y-82848000D03*
%TO.P,U13,5,2IN+*%
%TO.N,COM2*%
X82425500Y-84118000D03*
%TO.P,U13,6,2IN-*%
%TO.N,+10*%
X82425500Y-85388000D03*
%TO.P,U13,7,2OUT*%
X82425500Y-86658000D03*
%TO.P,U13,8,3OUT*%
%TO.N,+6V*%
X87375500Y-86658000D03*
%TO.P,U13,9,3IN-*%
%TO.N,Net-(U13-3IN-)*%
X87375500Y-85388000D03*
%TO.P,U13,10,3IN+*%
%TO.N,Net-(U13-3IN+)*%
X87375500Y-84118000D03*
%TO.P,U13,11,VCC-*%
%TO.N,0*%
X87375500Y-82848000D03*
%TO.P,U13,12,4IN+*%
%TO.N,unconnected-(U13-4IN+-Pad12)*%
X87375500Y-81578000D03*
%TO.P,U13,13,4IN-*%
%TO.N,unconnected-(U13-4IN--Pad13)*%
X87375500Y-80308000D03*
%TO.P,U13,14,4OUT*%
%TO.N,unconnected-(U13-4OUT-Pad14)*%
X87375500Y-79038000D03*
%TD*%
D17*
%TO.P,C39,1*%
%TO.N,Net-(U15-VOUT7)*%
X89445192Y-70188162D03*
%TO.P,C39,2*%
%TO.N,DAC15*%
X92570192Y-70188162D03*
%TD*%
D15*
%TO.P,R30,1*%
%TO.N,Net-(U2-P2B)*%
X110365500Y-51763000D03*
%TO.P,R30,2*%
%TO.N,gain10*%
X110365500Y-48838000D03*
%TD*%
D35*
%TO.P,J1,1,Pin_1*%
%TO.N,+3.3V*%
X61449999Y-56669999D03*
%TO.P,J1,2,Pin_2*%
%TO.N,+5V*%
X56409999Y-56669999D03*
%TO.P,J1,3,Pin_3*%
%TO.N,SDA*%
X61449999Y-59209999D03*
%TO.P,J1,4,Pin_4*%
%TO.N,+5V*%
X56409999Y-59209999D03*
%TO.P,J1,5,Pin_5*%
%TO.N,SCL*%
X61449999Y-61749999D03*
%TO.P,J1,6,Pin_6*%
%TO.N,0*%
X56409999Y-61749999D03*
%TO.P,J1,7,Pin_7*%
%TO.N,LED13*%
X61449999Y-64289999D03*
%TO.P,J1,8,Pin_8*%
%TO.N,LED1*%
X56409999Y-64289999D03*
%TO.P,J1,9,Pin_9*%
%TO.N,0*%
X61449999Y-66829999D03*
%TO.P,J1,10,Pin_10*%
%TO.N,LED2*%
X56409999Y-66829999D03*
%TO.P,J1,11,Pin_11*%
%TO.N,LED14*%
X61449999Y-69369999D03*
%TO.P,J1,12,Pin_12*%
%TO.N,TDMB_SCK*%
X56409999Y-69369999D03*
%TO.P,J1,13,Pin_13*%
%TO.N,LED15*%
X61449999Y-71909999D03*
%TO.P,J1,14,Pin_14*%
%TO.N,0*%
X56409999Y-71909999D03*
%TO.P,J1,15,Pin_15*%
%TO.N,LED16*%
X61449999Y-74449999D03*
%TO.P,J1,16,Pin_16*%
%TO.N,LED3*%
X56409999Y-74449999D03*
%TO.P,J1,17,Pin_17*%
%TO.N,+3.3V*%
X61449999Y-76989999D03*
%TO.P,J1,18,Pin_18*%
%TO.N,LED4*%
X56409999Y-76989999D03*
%TO.P,J1,19,Pin_19*%
%TO.N,unconnected-(J1-Pin_19-Pad19)*%
X61449999Y-79529999D03*
%TO.P,J1,20,Pin_20*%
%TO.N,0*%
X56409999Y-79529999D03*
%TO.P,J1,21,Pin_21*%
%TO.N,TDMA_DATA*%
X61449999Y-82069999D03*
%TO.P,J1,22,Pin_22*%
%TO.N,LED5*%
X56409999Y-82069999D03*
%TO.P,J1,23,Pin_23*%
%TO.N,TDMA_BCLK*%
X61449999Y-84609999D03*
%TO.P,J1,24,Pin_24*%
%TO.N,LED6*%
X56409999Y-84609999D03*
%TO.P,J1,25,Pin_25*%
%TO.N,TDMA_LRCLK*%
X61449999Y-87149999D03*
%TO.P,J1,26,Pin_26*%
%TO.N,LED7*%
X56409999Y-87149999D03*
%TO.P,J1,27,Pin_27*%
%TO.N,LED12*%
X61449999Y-89689999D03*
%TO.P,J1,28,Pin_28*%
%TO.N,LED8*%
X56409999Y-89689999D03*
%TO.P,J1,29,Pin_29*%
%TO.N,LED11*%
X61449999Y-92229999D03*
%TO.P,J1,30,Pin_30*%
%TO.N,unconnected-(J1-Pin_30-Pad30)*%
X56409999Y-92229999D03*
%TO.P,J1,31,Pin_31*%
%TO.N,LED10*%
X61449999Y-94769999D03*
%TO.P,J1,32,Pin_32*%
%TO.N,unconnected-(J1-Pin_32-Pad32)*%
X56409999Y-94769999D03*
%TO.P,J1,33,Pin_33*%
%TO.N,LED9*%
X61449999Y-97309999D03*
%TO.P,J1,34,Pin_34*%
%TO.N,0*%
X56409999Y-97309999D03*
%TO.P,J1,35,Pin_35*%
%TO.N,TDMB_LRCLK*%
X61449999Y-99849999D03*
%TO.P,J1,36,Pin_36*%
%TO.N,unconnected-(J1-Pin_36-Pad36)*%
X56409999Y-99849999D03*
%TO.P,J1,37,Pin_37*%
%TO.N,TDM_MCLK*%
X61449999Y-102389999D03*
%TO.P,J1,38,Pin_38*%
%TO.N,unconnected-(J1-Pin_38-Pad38)*%
X56409999Y-102389999D03*
%TO.P,J1,39,Pin_39*%
%TO.N,0*%
X61449999Y-104929999D03*
%TO.P,J1,40,Pin_40*%
%TO.N,TDMB_DATA*%
X56409999Y-104929999D03*
%TD*%
D15*
%TO.P,R22,1*%
%TO.N,gain11*%
X110121921Y-66918249D03*
%TO.P,R22,2*%
%TO.N,Net-(U2-P3B)*%
X110121921Y-63993249D03*
%TD*%
D17*
%TO.P,C41,1*%
%TO.N,Net-(U14-VOUT4)*%
X89447557Y-102017996D03*
%TO.P,C41,2*%
%TO.N,DAC4*%
X92572557Y-102017996D03*
%TD*%
D15*
%TO.P,R10,1*%
%TO.N,0*%
X60840751Y-49002500D03*
%TO.P,R10,2*%
%TO.N,Net-(J2-Pin_6)*%
X60840751Y-46077500D03*
%TD*%
D22*
%TO.P,R8,1*%
%TO.N,0*%
X91290751Y-32327500D03*
%TO.P,R8,2*%
%TO.N,Net-(J2-Pin_29)*%
X91290751Y-35252500D03*
%TD*%
D13*
%TO.P,U15,1,ZR1/ZR1/FMT0*%
%TO.N,unconnected-(U15-ZR1{slash}ZR1{slash}FMT0-Pad1)*%
X75640000Y-60901922D03*
%TO.P,U15,2,\u002AMS/ADR/FMT1*%
%TO.N,+3.3V*%
X75640000Y-61551922D03*
%TO.P,U15,3,MC/SCL/DEMP*%
%TO.N,SCL*%
X75640000Y-62201922D03*
%TO.P,U15,4,MD/SDA/MUTE*%
%TO.N,SDA*%
X75640000Y-62851922D03*
%TO.P,U15,5,SCK*%
%TO.N,Net-(U15-SCK)*%
X75640000Y-63501922D03*
%TO.P,U15,6,DATA1*%
%TO.N,Net-(U15-DATA1)*%
X75640000Y-64151922D03*
%TO.P,U15,7,BCK*%
%TO.N,Net-(U15-BCK)*%
X75640000Y-64801922D03*
%TO.P,U15,8,LRCK*%
%TO.N,Net-(U15-LRCK)*%
X75640000Y-65451922D03*
%TO.P,U15,9,VDD*%
%TO.N,+3.3V*%
X75640000Y-66101922D03*
%TO.P,U15,10,DGND*%
%TO.N,0*%
X75640000Y-66751922D03*
%TO.P,U15,11,DATA2*%
%TO.N,unconnected-(U15-DATA2-Pad11)*%
X75640000Y-67401922D03*
%TO.P,U15,12,DATA3*%
%TO.N,unconnected-(U15-DATA3-Pad12)*%
X75640000Y-68051922D03*
%TO.P,U15,13,DATA4*%
%TO.N,unconnected-(U15-DATA4-Pad13)*%
X75640000Y-68701922D03*
%TO.P,U15,14,MSEL*%
%TO.N,0*%
X75640000Y-69351922D03*
%TO.P,U15,15,VOUT8*%
%TO.N,Net-(U15-VOUT8)*%
X81365000Y-69351922D03*
%TO.P,U15,16,VOUT7*%
%TO.N,Net-(U15-VOUT7)*%
X81365000Y-68701922D03*
%TO.P,U15,17,VCC1*%
%TO.N,+5V*%
X81365000Y-68051922D03*
%TO.P,U15,18,AGND1*%
%TO.N,0*%
X81365000Y-67401922D03*
%TO.P,U15,19,VOUT6*%
%TO.N,Net-(U15-VOUT6)*%
X81365000Y-66751922D03*
%TO.P,U15,20,VOUT5*%
%TO.N,Net-(U15-VOUT5)*%
X81365000Y-66101922D03*
%TO.P,U15,21,VOUT4*%
%TO.N,Net-(U15-VOUT4)*%
X81365000Y-65451922D03*
%TO.P,U15,22,VOUT3*%
%TO.N,Net-(U15-VOUT3)*%
X81365000Y-64801922D03*
%TO.P,U15,23,VCC2*%
%TO.N,+5V*%
X81365000Y-64151922D03*
%TO.P,U15,24,AGND2*%
%TO.N,0*%
X81365000Y-63501922D03*
%TO.P,U15,25,VCOM*%
%TO.N,COM2*%
X81365000Y-62851922D03*
%TO.P,U15,26,VOUT2*%
%TO.N,Net-(U15-VOUT2)*%
X81365000Y-62201922D03*
%TO.P,U15,27,VOUT1*%
%TO.N,Net-(U15-VOUT1)*%
X81365000Y-61551922D03*
%TO.P,U15,28,ZR2*%
%TO.N,unconnected-(U15-ZR2-Pad28)*%
X81365000Y-60901922D03*
D14*
%TO.P,U15,29,EPAD*%
%TO.N,0*%
X78502499Y-65126921D03*
%TD*%
D12*
%TO.P,R75,1*%
%TO.N,DAC7*%
X94700490Y-110655228D03*
%TO.P,R75,2*%
%TO.N,Net-(C18-Pad1)*%
X97625490Y-110655228D03*
%TD*%
D15*
%TO.P,R32,1*%
%TO.N,Net-(U2-P0A)*%
X114915500Y-51763000D03*
%TO.P,R32,2*%
%TO.N,Channel9*%
X114915500Y-48838000D03*
%TD*%
%TO.P,R35,1*%
%TO.N,gain8*%
X112825500Y-115263000D03*
%TO.P,R35,2*%
%TO.N,Net-(U3-P1B)*%
X112825500Y-112338000D03*
%TD*%
D11*
%TO.P,U12,1,1OUT*%
%TO.N,Channel13*%
X150305500Y-66438000D03*
%TO.P,U12,2,1IN-*%
%TO.N,-13gain*%
X149035500Y-66438000D03*
%TO.P,U12,3,1IN+*%
%TO.N,+6V*%
X147765500Y-66438000D03*
%TO.P,U12,4,VCC+*%
%TO.N,+12V*%
X146495500Y-66438000D03*
%TO.P,U12,5,2IN+*%
%TO.N,+6V*%
X145225500Y-66438000D03*
%TO.P,U12,6,2IN-*%
%TO.N,-14gain*%
X143955500Y-66438000D03*
%TO.P,U12,7,2OUT*%
%TO.N,Channel14*%
X142685500Y-66438000D03*
%TO.P,U12,8,3OUT*%
%TO.N,Channel15*%
X142685500Y-71388000D03*
%TO.P,U12,9,3IN-*%
%TO.N,-15gain*%
X143955500Y-71388000D03*
%TO.P,U12,10,3IN+*%
%TO.N,+6V*%
X145225500Y-71388000D03*
%TO.P,U12,11,VCC-*%
%TO.N,0*%
X146495500Y-71388000D03*
%TO.P,U12,12,4IN+*%
%TO.N,+6V*%
X147765500Y-71388000D03*
%TO.P,U12,13,4IN-*%
%TO.N,-16gain*%
X149035500Y-71388000D03*
%TO.P,U12,14,4OUT*%
%TO.N,Channel16*%
X150305500Y-71388000D03*
%TD*%
D22*
%TO.P,R2,1*%
%TO.N,0*%
X60865067Y-32372307D03*
%TO.P,R2,2*%
%TO.N,Net-(J2-Pin_5)*%
X60865067Y-35297307D03*
%TD*%
D15*
%TO.P,R15,1*%
%TO.N,0*%
X86140751Y-49052500D03*
%TO.P,R15,2*%
%TO.N,Net-(J2-Pin_26)*%
X86140751Y-46127500D03*
%TD*%
D36*
%TO.P,J2,1,Pin_1*%
%TO.N,Net-(J2-Pin_1)*%
X55770750Y-38139999D03*
%TO.P,J2,2,Pin_2*%
%TO.N,Net-(J2-Pin_2)*%
X55770750Y-43179999D03*
%TO.P,J2,3,Pin_3*%
%TO.N,LED1*%
X58310750Y-38139999D03*
%TO.P,J2,4,Pin_4*%
%TO.N,LED9*%
X58310750Y-43179999D03*
%TO.P,J2,5,Pin_5*%
%TO.N,Net-(J2-Pin_5)*%
X60850750Y-38139999D03*
%TO.P,J2,6,Pin_6*%
%TO.N,Net-(J2-Pin_6)*%
X60850750Y-43179999D03*
%TO.P,J2,7,Pin_7*%
%TO.N,LED2*%
X63390750Y-38139999D03*
%TO.P,J2,8,Pin_8*%
%TO.N,LED10*%
X63390750Y-43179999D03*
%TO.P,J2,9,Pin_9*%
%TO.N,Net-(J2-Pin_9)*%
X65930750Y-38139999D03*
%TO.P,J2,10,Pin_10*%
%TO.N,Net-(J2-Pin_10)*%
X65930750Y-43179999D03*
%TO.P,J2,11,Pin_11*%
%TO.N,LED3*%
X68470750Y-38139999D03*
%TO.P,J2,12,Pin_12*%
%TO.N,LED11*%
X68470750Y-43179999D03*
%TO.P,J2,13,Pin_13*%
%TO.N,Net-(J2-Pin_13)*%
X71010750Y-38139999D03*
%TO.P,J2,14,Pin_14*%
%TO.N,Net-(J2-Pin_14)*%
X71010750Y-43179999D03*
%TO.P,J2,15,Pin_15*%
%TO.N,LED4*%
X73550750Y-38139999D03*
%TO.P,J2,16,Pin_16*%
%TO.N,LED12*%
X73550750Y-43179999D03*
%TO.P,J2,17,Pin_17*%
%TO.N,Net-(J2-Pin_17)*%
X76090750Y-38139999D03*
%TO.P,J2,18,Pin_18*%
%TO.N,Net-(J2-Pin_18)*%
X76090750Y-43179999D03*
%TO.P,J2,19,Pin_19*%
%TO.N,LED5*%
X78630750Y-38139999D03*
%TO.P,J2,20,Pin_20*%
%TO.N,LED13*%
X78630750Y-43179999D03*
%TO.P,J2,21,Pin_21*%
%TO.N,Net-(J2-Pin_21)*%
X81170750Y-38139999D03*
%TO.P,J2,22,Pin_22*%
%TO.N,Net-(J2-Pin_22)*%
X81170750Y-43179999D03*
%TO.P,J2,23,Pin_23*%
%TO.N,LED6*%
X83710750Y-38139999D03*
%TO.P,J2,24,Pin_24*%
%TO.N,LED14*%
X83710750Y-43179999D03*
%TO.P,J2,25,Pin_25*%
%TO.N,Net-(J2-Pin_25)*%
X86250750Y-38139999D03*
%TO.P,J2,26,Pin_26*%
%TO.N,Net-(J2-Pin_26)*%
X86250750Y-43179999D03*
%TO.P,J2,27,Pin_27*%
%TO.N,LED7*%
X88790750Y-38139999D03*
%TO.P,J2,28,Pin_28*%
%TO.N,LED15*%
X88790750Y-43179999D03*
%TO.P,J2,29,Pin_29*%
%TO.N,Net-(J2-Pin_29)*%
X91330750Y-38139999D03*
%TO.P,J2,30,Pin_30*%
%TO.N,Net-(J2-Pin_30)*%
X91330750Y-43179999D03*
%TO.P,J2,31,Pin_31*%
%TO.N,LED8*%
X93870750Y-38139999D03*
%TO.P,J2,32,Pin_32*%
%TO.N,LED16*%
X93870750Y-43179999D03*
%TD*%
D15*
%TO.P,R20,1*%
%TO.N,Channel4*%
X141445500Y-123625500D03*
%TO.P,R20,2*%
%TO.N,Net-(U1-P1A)*%
X141445500Y-120700500D03*
%TD*%
D17*
%TO.P,C38,1*%
%TO.N,Net-(U15-VOUT5)*%
X89471542Y-65020650D03*
%TO.P,C38,2*%
%TO.N,DAC13*%
X92596542Y-65020650D03*
%TD*%
D15*
%TO.P,R36,1*%
%TO.N,Channel8*%
X115075500Y-115213000D03*
%TO.P,R36,2*%
%TO.N,Net-(U3-P1A)*%
X115075500Y-112288000D03*
%TD*%
D37*
%TO.N,+5V*%
X76795673Y-122225443D03*
X81745629Y-121719997D03*
X84884724Y-123646075D03*
X101700000Y-73000000D03*
X114300000Y-76200000D03*
%TO.N,Channel10*%
X164600500Y-78338000D03*
X155700000Y-60100000D03*
X154150000Y-58100000D03*
%TO.N,Channel8*%
X124635500Y-108990370D03*
%TO.N,+5V*%
X135351000Y-64873800D03*
X137201000Y-66346960D03*
%TO.N,+6V*%
X146575500Y-116538000D03*
X146575500Y-111588000D03*
X140800000Y-86200000D03*
X140700000Y-89150000D03*
%TO.N,+12V*%
X121415500Y-55588000D03*
X146500000Y-66900000D03*
%TO.N,0*%
X147850000Y-116550000D03*
%TO.N,Channel14*%
X164550500Y-59088000D03*
%TO.N,+5V*%
X137050000Y-110663500D03*
%TO.N,0*%
X81900000Y-131600000D03*
X63500000Y-119350000D03*
X69900000Y-119800000D03*
X66750000Y-122550000D03*
X67050000Y-116800000D03*
X63250000Y-116250000D03*
X70550000Y-116550000D03*
X68650000Y-122300000D03*
X63450000Y-122100000D03*
%TO.N,+12V*%
X64000000Y-126900000D03*
%TO.N,0*%
X57600000Y-130500000D03*
X65300000Y-134850000D03*
X68600000Y-134650000D03*
X84397720Y-129697720D03*
X85834724Y-125921075D03*
X81450000Y-124800000D03*
X86000000Y-86000000D03*
X89446614Y-91396614D03*
%TO.N,+5V*%
X131300000Y-73309100D03*
%TO.N,+6V*%
X119761506Y-103708569D03*
%TO.N,0*%
X138950000Y-73300000D03*
%TO.N,+6V*%
X122748417Y-60601583D03*
%TO.N,Net-(C1-Pad1)*%
X98123800Y-94048400D03*
%TO.N,gain7*%
X109321144Y-115279237D03*
%TO.N,0*%
X87370030Y-82886478D03*
X69551421Y-108525966D03*
X69531048Y-69195872D03*
X164967812Y-90499253D03*
X60817161Y-32307718D03*
X70904204Y-49109904D03*
X164834511Y-61483950D03*
X91301902Y-49072951D03*
X81158482Y-49072951D03*
X111539234Y-110938284D03*
X84008385Y-98608385D03*
X60797736Y-48999047D03*
X55666575Y-79564560D03*
X55698312Y-49146856D03*
X164767860Y-51775154D03*
X94325500Y-86188000D03*
X164812294Y-66327239D03*
X76087720Y-81011147D03*
X126369744Y-85120944D03*
X164878945Y-85611529D03*
X129272891Y-107392601D03*
X76225343Y-48980570D03*
X78648795Y-104399780D03*
X120632937Y-112546522D03*
X76060006Y-85002001D03*
X164945595Y-109783543D03*
X164767860Y-75924950D03*
X164901161Y-117359514D03*
X65878684Y-49035999D03*
X139164190Y-55057335D03*
X80771430Y-91875138D03*
X56359432Y-61744289D03*
X112025376Y-62397035D03*
X78502500Y-65126922D03*
X104961715Y-108868952D03*
X66752281Y-119195957D03*
X65861157Y-32335433D03*
X112188886Y-45843042D03*
X121402667Y-60599240D03*
X146509120Y-71954602D03*
X164878945Y-100074747D03*
X115565048Y-117190265D03*
X164790077Y-71081661D03*
X61403428Y-66871427D03*
X91247422Y-32280004D03*
X86258855Y-32390861D03*
X71016010Y-32335433D03*
X95857702Y-122346848D03*
X164945595Y-114582399D03*
X84725500Y-92688000D03*
X164834511Y-56640660D03*
X140278920Y-114164508D03*
X81187144Y-32363147D03*
X121121710Y-119322684D03*
X55745450Y-32335433D03*
X61347999Y-105006254D03*
X57080003Y-97329403D03*
X75949149Y-32280004D03*
X131701806Y-59893627D03*
X101697400Y-63819400D03*
X164901161Y-80723806D03*
X86128573Y-49109904D03*
X109699495Y-50702122D03*
X120271198Y-68891481D03*
X122215618Y-63204381D03*
X66585995Y-128701950D03*
X101735900Y-74425900D03*
X95319996Y-112360001D03*
X135761021Y-69925207D03*
X164856728Y-104962471D03*
X164901161Y-95209241D03*
X56359432Y-71943138D03*
X164945595Y-124580015D03*
X134293915Y-102593745D03*
%TO.N,gain13*%
X133923903Y-55051958D03*
%TO.N,Channel3*%
X144047010Y-115930360D03*
X133667054Y-123554667D03*
%TO.N,gain3*%
X123131724Y-116496848D03*
%TO.N,gain4*%
X95770292Y-119287144D03*
%TO.N,Channel4*%
X141414035Y-123635390D03*
%TO.N,Channel11*%
X117609410Y-61019824D03*
%TO.N,gain11*%
X120419148Y-63955612D03*
%TO.N,gain12*%
X113426168Y-67270861D03*
%TO.N,Channel12*%
X125210472Y-59914725D03*
%TO.N,Channel2*%
X150652437Y-113279681D03*
%TO.N,gain2*%
X106365148Y-96508684D03*
%TO.N,gain1*%
X103316261Y-91653050D03*
%TO.N,Channel1*%
X141054726Y-104948334D03*
%TO.N,gain10*%
X110419748Y-48890734D03*
%TO.N,gain9*%
X112615500Y-48888000D03*
%TO.N,Channel9*%
X125178613Y-55609097D03*
%TO.N,Channel7*%
X117010498Y-108821485D03*
%TO.N,gain8*%
X121154938Y-124355321D03*
%TO.N,Channel15*%
X142062298Y-68810829D03*
%TO.N,gain15*%
X144864565Y-74840578D03*
%TO.N,gain16*%
X126305720Y-79819433D03*
%TO.N,Channel16*%
X150275155Y-70914031D03*
%TO.N,Channel6*%
X118750554Y-96847238D03*
%TO.N,gain6*%
X127464655Y-100317269D03*
X125038929Y-95917504D03*
X117828668Y-98878563D03*
%TO.N,gain5*%
X126951586Y-102422046D03*
X116470861Y-98928750D03*
X122186569Y-98789341D03*
%TO.N,Channel5*%
X118654011Y-98105927D03*
%TO.N,gain14*%
X136110543Y-60597372D03*
%TO.N,Channel13*%
X150341535Y-66189502D03*
%TO.N,Net-(C58-Pad1)*%
X126815238Y-59937651D03*
%TO.N,Net-(C57-Pad1)*%
X97602281Y-62314440D03*
%TO.N,Net-(C56-Pad1)*%
X117195505Y-68740611D03*
%TO.N,Net-(C55-Pad1)*%
X102108569Y-50901144D03*
%TO.N,Net-(C54-Pad1)*%
X97642278Y-57530379D03*
%TO.N,/Amplification Stage/out14*%
X167675500Y-59088000D03*
%TO.N,Net-(C2-Pad1)*%
X111491278Y-91439754D03*
%TO.N,Net-(C3-Pad1)*%
X110328602Y-116466178D03*
%TO.N,Net-(C4-Pad1)*%
X98703686Y-112276659D03*
%TO.N,Net-(C5-Pad1)*%
X126516504Y-104761562D03*
%TO.N,Net-(C17-Pad1)*%
X137317871Y-102503127D03*
%TO.N,Net-(C18-Pad1)*%
X134760876Y-124868565D03*
%TO.N,Net-(C19-Pad1)*%
X97379313Y-113747459D03*
%TO.N,Net-(U15-BCK)*%
X72737365Y-64475012D03*
%TO.N,TDMA_BCLK*%
X69739854Y-103799139D03*
%TO.N,Net-(U14-BCK)*%
X72650500Y-103788000D03*
%TO.N,TDMB_DATA*%
X56455751Y-104794749D03*
%TO.N,Net-(U15-DATA1)*%
X72833017Y-62275032D03*
%TO.N,+12V*%
X87348918Y-91615410D03*
X147850838Y-111475041D03*
X120425500Y-102513000D03*
X82396967Y-82804935D03*
%TO.N,Net-(U13-3IN+)*%
X87193027Y-88693330D03*
%TO.N,Net-(U13-3IN-)*%
X87278797Y-85319842D03*
%TO.N,+6V*%
X145250065Y-71412638D03*
X122660561Y-55625987D03*
X98385347Y-86199599D03*
X119563024Y-109480057D03*
X145216607Y-66460812D03*
X87713831Y-86574946D03*
X91355346Y-85820567D03*
%TO.N,TDMA_DATA*%
X69781425Y-101387998D03*
%TO.N,Net-(U14-DATA1)*%
X72650500Y-101438000D03*
%TO.N,TDMB_LRCLK*%
X61458856Y-99770858D03*
%TO.N,Net-(U15-LRCK)*%
X72785191Y-66866296D03*
%TO.N,TDMB_SCK*%
X56482723Y-69295003D03*
%TO.N,Net-(U15-SCK)*%
X72785191Y-59931574D03*
%TO.N,TDMA_LRCLK*%
X69698282Y-105960851D03*
%TO.N,Net-(U14-LRCK)*%
X72650500Y-106088000D03*
%TO.N,Net-(U14-SCK)*%
X72650500Y-99088000D03*
%TO.N,Net-(C70-Pad1)*%
X139163666Y-57690218D03*
%TO.N,Net-(C71-Pad1)*%
X139874575Y-79790065D03*
%TO.N,Net-(C72-Pad1)*%
X126640188Y-77206477D03*
%TO.N,/Amplification Stage/out16*%
X167800000Y-49500000D03*
%TO.N,+5V*%
X111742472Y-102523808D03*
X111365841Y-54931100D03*
X104931092Y-101588009D03*
X104943239Y-99096952D03*
X83875428Y-103647003D03*
X84065190Y-68072857D03*
X113903236Y-113789774D03*
X84374285Y-120498282D03*
X84025569Y-64025922D03*
X109308969Y-62490520D03*
X56434285Y-59177523D03*
X130984935Y-111288383D03*
X83819999Y-107545476D03*
X56452761Y-56664763D03*
X138317483Y-119025990D03*
%TO.N,/Amplification Stage/out15*%
X167675500Y-54238000D03*
%TO.N,SCL*%
X123232326Y-73633047D03*
X137269488Y-113977009D03*
X61984005Y-61754001D03*
X74130668Y-57636893D03*
X104521840Y-59173534D03*
X91734735Y-76974586D03*
X74516485Y-97480260D03*
X111757438Y-108200988D03*
X124933379Y-112466842D03*
X134915466Y-113417396D03*
X119380000Y-83820000D03*
X145964959Y-105543870D03*
%TO.N,SDA*%
X91651030Y-75342338D03*
X73273791Y-97502158D03*
X121920000Y-83820000D03*
X146742072Y-106425700D03*
X124933379Y-113297691D03*
X62011719Y-59204289D03*
X67840004Y-59204763D03*
X112761898Y-108176186D03*
X123219926Y-74463896D03*
X137959265Y-114924084D03*
X102300401Y-59608700D03*
X134952668Y-114297848D03*
%TO.N,+1*%
X103659334Y-101619313D03*
%TO.N,COM1*%
X79294721Y-81096717D03*
X84073325Y-101922051D03*
%TO.N,COM2*%
X84397944Y-62627524D03*
X79230954Y-84827119D03*
%TO.N,+10*%
X82452930Y-85374288D03*
%TO.N,+3.3V*%
X72785191Y-69257579D03*
X61447721Y-56682291D03*
X71415618Y-56655999D03*
X62491625Y-77013900D03*
X72638000Y-108438000D03*
%TD*%
D38*
%TO.N,Net-(D1-A)*%
X76710500Y-128005500D02*
X76710500Y-125110616D01*
X82800299Y-128005500D02*
X84884724Y-125921075D01*
X76710500Y-128005500D02*
X82800299Y-128005500D01*
%TO.N,Net-(U18-FB)*%
X88698000Y-127834352D02*
X86784724Y-125921075D01*
X88698000Y-133259297D02*
X88698000Y-127834352D01*
X87151797Y-134805500D02*
X88698000Y-133259297D01*
X86618000Y-134805500D02*
X87151797Y-134805500D01*
%TO.N,Net-(C82-Pad1)*%
X87455500Y-130024969D02*
X87225485Y-129794954D01*
X87455500Y-132265500D02*
X87455500Y-130024969D01*
%TO.N,Net-(D1-K)*%
X84968000Y-132903000D02*
X84330500Y-132265500D01*
X84968000Y-134805500D02*
X84968000Y-132903000D01*
X81790500Y-134805500D02*
X84968000Y-134805500D01*
X76710500Y-134805500D02*
X81790500Y-134805500D01*
X71688000Y-134690500D02*
X76595500Y-134690500D01*
X69090500Y-132093000D02*
X71688000Y-134690500D01*
X69090500Y-128715500D02*
X69090500Y-132093000D01*
D39*
%TO.N,Net-(C70-Pad1)*%
X99079402Y-57972272D02*
X124932514Y-57972272D01*
D38*
%TO.N,+5V*%
X101700000Y-73000000D02*
X111100000Y-73000000D01*
X111100000Y-73000000D02*
X114300000Y-76200000D01*
D39*
%TO.N,Channel10*%
X155700000Y-69437500D02*
X164600500Y-78338000D01*
X155700000Y-60100000D02*
X155700000Y-69437500D01*
X144025500Y-47975500D02*
X154150000Y-58100000D01*
X109512683Y-47975500D02*
X144025500Y-47975500D01*
X109190500Y-48297683D02*
X109512683Y-47975500D01*
X109190500Y-49378317D02*
X109190500Y-48297683D01*
X109562683Y-49750500D02*
X109190500Y-49378317D01*
X108928000Y-49750500D02*
X109562683Y-49750500D01*
X107965500Y-48788000D02*
X108928000Y-49750500D01*
%TO.N,0*%
X138570500Y-115872928D02*
X140278920Y-114164508D01*
X138570500Y-117125500D02*
X138570500Y-115872928D01*
D38*
%TO.N,+6V*%
X140800000Y-86200000D02*
X140800000Y-89050000D01*
X140800000Y-89050000D02*
X140700000Y-89150000D01*
D39*
%TO.N,Channel14*%
X135266781Y-59088000D02*
X164550500Y-59088000D01*
X133707919Y-60646862D02*
X135266781Y-59088000D01*
D38*
%TO.N,+5V*%
X137140500Y-110754000D02*
X137140500Y-111400500D01*
X137050000Y-110663500D02*
X137140500Y-110754000D01*
%TO.N,+12V*%
X57425500Y-133950500D02*
X61473000Y-133950500D01*
X61473000Y-133950500D02*
X62213000Y-134690500D01*
X64010500Y-128715500D02*
X64010500Y-132893000D01*
X64010500Y-132893000D02*
X62213000Y-134690500D01*
D39*
%TO.N,+5V*%
X130917400Y-73691700D02*
X131300000Y-73309100D01*
X130917400Y-75255166D02*
X130917400Y-73691700D01*
X136008200Y-75600000D02*
X131262234Y-75600000D01*
X136600500Y-75007700D02*
X136008200Y-75600000D01*
X131262234Y-75600000D02*
X130917400Y-75255166D01*
X136600500Y-71850500D02*
X136600500Y-75007700D01*
%TO.N,+12V*%
X120825500Y-102913000D02*
X120825500Y-104288000D01*
X120425500Y-102513000D02*
X120825500Y-102913000D01*
%TO.N,gain11*%
X118719011Y-65655749D02*
X120419148Y-63955612D01*
X110131751Y-66918249D02*
X111394251Y-65655749D01*
X111394251Y-65655749D02*
X118719011Y-65655749D01*
%TO.N,0*%
X138550000Y-72900000D02*
X138950000Y-73300000D01*
X138550000Y-71850000D02*
X138550000Y-72900000D01*
%TO.N,DAC9*%
X94679661Y-54966922D02*
X92595386Y-54966922D01*
%TO.N,Net-(U3-P3B)*%
X109888285Y-112377965D02*
X110400500Y-111865750D01*
X110400500Y-111865750D02*
X110400500Y-109675500D01*
%TO.N,0*%
X113000500Y-109022315D02*
X113784815Y-108238000D01*
X78198812Y-101058812D02*
X78661113Y-101521113D01*
X120040852Y-111028000D02*
X120825500Y-110243352D01*
X77336113Y-108858812D02*
X78661113Y-107533812D01*
X77177500Y-69351922D02*
X78502500Y-68026922D01*
X81365000Y-63501922D02*
X80127500Y-63501922D01*
X113000500Y-109675500D02*
X113000500Y-110328685D01*
X113000500Y-110328685D02*
X112390901Y-110938284D01*
X112940500Y-60625500D02*
X112940500Y-61481911D01*
X116470450Y-111028000D02*
X120040852Y-111028000D01*
X115891728Y-110449278D02*
X116470450Y-111028000D01*
X75640000Y-69351922D02*
X77177500Y-69351922D01*
X81523613Y-106908812D02*
X80870428Y-106908812D01*
X112390901Y-110938284D02*
X111539234Y-110938284D01*
X76877500Y-66751922D02*
X78502500Y-65126922D01*
X78661113Y-107533812D02*
X78661113Y-104633812D01*
X76451798Y-106258812D02*
X78076798Y-104633812D01*
X112940500Y-61481911D02*
X112025376Y-62397035D01*
X80870428Y-106908812D02*
X78661113Y-104699497D01*
X80127500Y-63501922D02*
X78502500Y-65126922D01*
X81365000Y-67401922D02*
X80677500Y-67401922D01*
X120825500Y-110243352D02*
X120825500Y-109238000D01*
X78661113Y-101521113D02*
X78661113Y-104387462D01*
X75798613Y-101058812D02*
X78198812Y-101058812D01*
X80286113Y-103008812D02*
X78661113Y-104633812D01*
X75798613Y-108858812D02*
X77336113Y-108858812D01*
X75640000Y-66751922D02*
X76877500Y-66751922D01*
X80677500Y-67401922D02*
X78502500Y-65226922D01*
X113784815Y-108238000D02*
X115381871Y-108238000D01*
X81523613Y-103008812D02*
X80286113Y-103008812D01*
X113000500Y-109675500D02*
X113000500Y-109022315D01*
X115381871Y-108238000D02*
X115891728Y-108747858D01*
X115891728Y-108747858D02*
X115891728Y-110449278D01*
X78502500Y-68026922D02*
X78502500Y-65126922D01*
X75798613Y-106258812D02*
X76451798Y-106258812D01*
%TO.N,gain13*%
X133923903Y-58467863D02*
X133923903Y-55051958D01*
X137654138Y-61509362D02*
X132855102Y-61509362D01*
X132855102Y-61509362D02*
X132524237Y-61178497D01*
X132524237Y-61178497D02*
X132524237Y-59867529D01*
X132524237Y-59867529D02*
X133923903Y-58467863D01*
X138475500Y-60688000D02*
X137654138Y-61509362D01*
%TO.N,Net-(J2-Pin_1)*%
X55770751Y-35272500D02*
X55770751Y-38140000D01*
%TO.N,Net-(J2-Pin_5)*%
X60850751Y-35212500D02*
X60850751Y-38140000D01*
%TO.N,Net-(J2-Pin_9)*%
X65930751Y-35262500D02*
X65930751Y-38140000D01*
%TO.N,Net-(J2-Pin_13)*%
X71010751Y-35282500D02*
X71010751Y-38140000D01*
%TO.N,Net-(J2-Pin_17)*%
X76090751Y-35252500D02*
X76090751Y-38140000D01*
%TO.N,Net-(J2-Pin_21)*%
X81170751Y-35282500D02*
X81170751Y-38140000D01*
%TO.N,Net-(J2-Pin_25)*%
X86250751Y-38140000D02*
X86250751Y-35303890D01*
%TO.N,Net-(J2-Pin_29)*%
X91330751Y-35292500D02*
X91330751Y-38140000D01*
%TO.N,Net-(J2-Pin_2)*%
X55770751Y-46097500D02*
X55770751Y-43180000D01*
%TO.N,Net-(J2-Pin_6)*%
X60850751Y-46067500D02*
X60850751Y-43180000D01*
%TO.N,Net-(J2-Pin_10)*%
X65930751Y-46037500D02*
X65930751Y-43180000D01*
%TO.N,Net-(J2-Pin_14)*%
X71010751Y-43180000D02*
X71010751Y-46107500D01*
%TO.N,Net-(J2-Pin_18)*%
X76090751Y-46027500D02*
X76090751Y-43180000D01*
%TO.N,Net-(J2-Pin_22)*%
X81170751Y-46107500D02*
X81170751Y-43180000D01*
%TO.N,Net-(J2-Pin_26)*%
X86250751Y-46017500D02*
X86250751Y-43180000D01*
%TO.N,Net-(J2-Pin_30)*%
X91330751Y-46037500D02*
X91330751Y-43180000D01*
%TO.N,Net-(U1-P3A)*%
X134670500Y-117125500D02*
X134219500Y-117576500D01*
X134219500Y-117576500D02*
X134219500Y-120638000D01*
%TO.N,gain3*%
X123834348Y-116496848D02*
X123131724Y-116496848D01*
X135009405Y-125468565D02*
X132806065Y-125468565D01*
X136182240Y-123623290D02*
X136182240Y-124295730D01*
X136182240Y-124295730D02*
X135009405Y-125468565D01*
X132806065Y-125468565D02*
X123834348Y-116496848D01*
%TO.N,Net-(U1-P3B)*%
X135970500Y-117125500D02*
X135970500Y-120051500D01*
X135970500Y-120051500D02*
X136619500Y-120700500D01*
%TO.N,gain4*%
X136789935Y-125868565D02*
X102351713Y-125868565D01*
X102351713Y-125868565D02*
X95770292Y-119287144D01*
X138995500Y-123663000D02*
X136789935Y-125868565D01*
%TO.N,Net-(U1-P1B)*%
X139220500Y-117125500D02*
X139220500Y-120513000D01*
%TO.N,Channel4*%
X144909396Y-123625500D02*
X141455390Y-123625500D01*
X151655500Y-116879396D02*
X144909396Y-123625500D01*
%TO.N,Net-(U1-P1A)*%
X140520500Y-117125500D02*
X141445500Y-118050500D01*
X141445500Y-118050500D02*
X141445500Y-120700500D01*
%TO.N,Channel11*%
X119475500Y-61640022D02*
X119475500Y-59527017D01*
X109590543Y-58772272D02*
X106047558Y-62315257D01*
X119244128Y-61871394D02*
X119475500Y-61640022D01*
X119475500Y-59527017D02*
X118720755Y-58772272D01*
X106047558Y-62315257D02*
X106047558Y-65783598D01*
X117605500Y-61444348D02*
X118032546Y-61871394D01*
X118720755Y-58772272D02*
X109590543Y-58772272D01*
X118032546Y-61871394D02*
X119244128Y-61871394D01*
X106047558Y-65783598D02*
X107222558Y-66958598D01*
X117605500Y-61023734D02*
X117605500Y-61444348D01*
%TO.N,Net-(U2-P3A)*%
X109040500Y-60625500D02*
X107470701Y-62195299D01*
X107470701Y-62195299D02*
X107470701Y-63785455D01*
%TO.N,Net-(U2-P3B)*%
X107870701Y-62966424D02*
X107870701Y-62360985D01*
X110121921Y-63993249D02*
X108897526Y-63993249D01*
X108897526Y-63993249D02*
X107870701Y-62966424D01*
X109956185Y-61663000D02*
X110340500Y-61278685D01*
X108568686Y-61663000D02*
X109956185Y-61663000D01*
X107870701Y-62360985D02*
X108568686Y-61663000D01*
X110340500Y-61278685D02*
X110340500Y-60625500D01*
%TO.N,Net-(U2-P1B)*%
X113590500Y-63325500D02*
X112865500Y-64050500D01*
X113590500Y-60625500D02*
X113590500Y-63325500D01*
%TO.N,Channel12*%
X119666544Y-66975500D02*
X125225500Y-61416544D01*
X115165500Y-66975500D02*
X119666544Y-66975500D01*
%TO.N,Net-(U2-P1A)*%
X115165500Y-60900500D02*
X115165500Y-64050500D01*
X114890500Y-60625500D02*
X115165500Y-60900500D01*
%TO.N,Net-(U1-P2A)*%
X134670500Y-111400500D02*
X134277500Y-111007500D01*
X134277500Y-111007500D02*
X134277500Y-107838000D01*
%TO.N,Channel2*%
X146545556Y-108623739D02*
X150302635Y-108623739D01*
X144494892Y-110305057D02*
X144035500Y-110764449D01*
X152280145Y-110601249D02*
X152280145Y-112574751D01*
X146445414Y-113320069D02*
X145975500Y-112850155D01*
X145975500Y-110646604D02*
X145633953Y-110305057D01*
X145633953Y-110305057D02*
X144494892Y-110305057D01*
X150302635Y-108623739D02*
X152280145Y-110601249D01*
X152280145Y-112574751D02*
X151534827Y-113320069D01*
X134277500Y-104913000D02*
X135090000Y-104100500D01*
X150612049Y-113320069D02*
X146445414Y-113320069D01*
X142022317Y-104100500D02*
X146545556Y-108623739D01*
X150652437Y-113279681D02*
X150612049Y-113320069D01*
X145975500Y-112850155D02*
X145975500Y-110646604D01*
X150692825Y-113320069D02*
X150652437Y-113279681D01*
X135090000Y-104100500D02*
X142022317Y-104100500D01*
X151534827Y-113320069D02*
X150692825Y-113320069D01*
%TO.N,Net-(U1-P2B)*%
X135970500Y-108495000D02*
X135970500Y-111400500D01*
X136577500Y-107888000D02*
X135970500Y-108495000D01*
%TO.N,gain2*%
X135765000Y-105775500D02*
X133424683Y-105775500D01*
X140042721Y-103700500D02*
X141397699Y-102345522D01*
X141397699Y-100388212D02*
X135523221Y-94513734D01*
X135523221Y-94513734D02*
X108360098Y-94513734D01*
X108360098Y-94513734D02*
X106365148Y-96508684D01*
X133102127Y-104373056D02*
X133774683Y-103700500D01*
X133102127Y-105452944D02*
X133102127Y-104373056D01*
X141397699Y-102345522D02*
X141397699Y-100388212D01*
X136577500Y-104963000D02*
X135765000Y-105775500D01*
X133774683Y-103700500D02*
X140042721Y-103700500D01*
X133424683Y-105775500D02*
X133102127Y-105452944D01*
%TO.N,Net-(U1-P0B)*%
X139220500Y-108225000D02*
X139220500Y-111400500D01*
%TO.N,gain1*%
X105723009Y-97108684D02*
X103316261Y-94701936D01*
X133258997Y-106175500D02*
X132702127Y-105618629D01*
X135138177Y-94913734D02*
X109677518Y-94913734D01*
X138909500Y-104989000D02*
X137723000Y-106175500D01*
X132702127Y-105618629D02*
X132702127Y-104207370D01*
X140997699Y-100773256D02*
X135138177Y-94913734D01*
X132702127Y-104207370D02*
X133608998Y-103300500D01*
X140997699Y-102179836D02*
X140997699Y-100773256D01*
X133608998Y-103300500D02*
X139877035Y-103300500D01*
X109677518Y-94913734D02*
X107482568Y-97108684D01*
X137723000Y-106175500D02*
X133258997Y-106175500D01*
X107482568Y-97108684D02*
X105723009Y-97108684D01*
X139877035Y-103300500D02*
X140997699Y-102179836D01*
X103316261Y-94701936D02*
X103316261Y-91653050D01*
%TO.N,Net-(U1-P0A)*%
X141195500Y-107914000D02*
X140520500Y-108589000D01*
X140520500Y-108589000D02*
X140520500Y-111400500D01*
%TO.N,Channel1*%
X149432635Y-109023739D02*
X145180873Y-109023739D01*
X151655500Y-111246604D02*
X149432635Y-109023739D01*
X145180873Y-109023739D02*
X141195500Y-105038366D01*
%TO.N,Net-(U2-P2A)*%
X107965500Y-51713000D02*
X109040500Y-52788000D01*
X109040500Y-52788000D02*
X109040500Y-54900500D01*
%TO.N,Channel10*%
X122760072Y-47975500D02*
X108778000Y-47975500D01*
X125825500Y-51040928D02*
X122760072Y-47975500D01*
X125161896Y-57263000D02*
X125825500Y-56599396D01*
X119161066Y-54262170D02*
X119475500Y-54576604D01*
X125825500Y-51124139D02*
X125837483Y-51112156D01*
X118589934Y-54262170D02*
X119161066Y-54262170D01*
X108778000Y-47975500D02*
X107965500Y-48788000D01*
X120150960Y-57263000D02*
X125161896Y-57263000D01*
X125825500Y-56599396D02*
X125825500Y-51124139D01*
X125825500Y-51100173D02*
X125825500Y-51040928D01*
X117605500Y-55246604D02*
X118589934Y-54262170D01*
X125837483Y-51112156D02*
X125825500Y-51100173D01*
X119475500Y-56587540D02*
X120150960Y-57263000D01*
X119475500Y-54576604D02*
X119475500Y-56587540D01*
%TO.N,Net-(U2-P2B)*%
X110340500Y-51788000D02*
X110340500Y-54900500D01*
%TO.N,Net-(U2-P0B)*%
X113590500Y-54247315D02*
X113590500Y-54900500D01*
X112615500Y-53272315D02*
X113590500Y-54247315D01*
X112615500Y-51813000D02*
X112615500Y-53272315D01*
%TO.N,Net-(U2-P0A)*%
X114915500Y-51763000D02*
X114915500Y-54875500D01*
%TO.N,Channel9*%
X118816896Y-48838000D02*
X125225500Y-55246604D01*
X114915500Y-48838000D02*
X118816896Y-48838000D01*
%TO.N,Channel7*%
X106065500Y-113730180D02*
X106065500Y-108888000D01*
X118621896Y-110513000D02*
X117949104Y-110513000D01*
X118935547Y-110199349D02*
X118621896Y-110513000D01*
X118935547Y-108151131D02*
X118935547Y-110199349D01*
X107781189Y-107172311D02*
X117956727Y-107172311D01*
X117956727Y-107172311D02*
X118935547Y-108151131D01*
X107638285Y-115302965D02*
X106065500Y-113730180D01*
X117949104Y-110513000D02*
X117015500Y-109579396D01*
X106065500Y-108888000D02*
X107781189Y-107172311D01*
%TO.N,Net-(U3-P3A)*%
X107638285Y-112377965D02*
X109100500Y-110915750D01*
X109100500Y-110915750D02*
X109100500Y-109675500D01*
%TO.N,Net-(D1-K)*%
X71803000Y-134805500D02*
X76710500Y-134805500D01*
%TO.N,gain8*%
X112825500Y-115263000D02*
X112825500Y-116025883D01*
X112825500Y-116025883D02*
X121154938Y-124355321D01*
%TO.N,Net-(U3-P1B)*%
X113650500Y-109675500D02*
X113650500Y-111513000D01*
X113650500Y-111513000D02*
X112825500Y-112338000D01*
%TO.N,Channel8*%
X115075500Y-115213000D02*
X120060500Y-115213000D01*
X120060500Y-115213000D02*
X124635500Y-110638000D01*
X124635500Y-110638000D02*
X124635184Y-108902745D01*
%TO.N,Net-(U3-P1A)*%
X114950500Y-109675500D02*
X114950500Y-112163000D01*
%TO.N,Channel15*%
X130455503Y-76016140D02*
X130468691Y-76016140D01*
X143320386Y-68773666D02*
X142099461Y-68773666D01*
X142025135Y-68773666D02*
X134054913Y-68773666D01*
X144136887Y-72818009D02*
X144555500Y-72399396D01*
X142062298Y-68810829D02*
X142025135Y-68773666D01*
X144555500Y-72399396D02*
X144555500Y-70008780D01*
X142099461Y-68773666D02*
X142062298Y-68810829D01*
X142685500Y-72018196D02*
X143485313Y-72818009D01*
X143485313Y-72818009D02*
X144136887Y-72818009D01*
X134054913Y-68773666D02*
X130455503Y-72373076D01*
X144555500Y-70008780D02*
X143320386Y-68773666D01*
X130468691Y-76016140D02*
X132092400Y-77639849D01*
X130455503Y-72373076D02*
X130455503Y-76016140D01*
%TO.N,Net-(U4-P3A)*%
X134650500Y-71850500D02*
X132092400Y-74408600D01*
%TO.N,gain15*%
X136740526Y-77613684D02*
X138100205Y-76254005D01*
X138100205Y-76254005D02*
X143451138Y-76254005D01*
X143451138Y-76254005D02*
X144864565Y-74840578D01*
X135181548Y-77613684D02*
X136740526Y-77613684D01*
%TO.N,Net-(U4-P3B)*%
X135950500Y-73970820D02*
X135433936Y-74487384D01*
X135950500Y-71850500D02*
X135950500Y-73970820D01*
%TO.N,gain16*%
X138237974Y-77532499D02*
X135838604Y-79931869D01*
X126418156Y-79931869D02*
X126305720Y-79819433D01*
X135838604Y-79931869D02*
X126418156Y-79931869D01*
%TO.N,Net-(U4-P1B)*%
X139819958Y-73123143D02*
X139200500Y-72503685D01*
X138745957Y-74578441D02*
X139819958Y-73504440D01*
X139819958Y-73504440D02*
X139819958Y-73123143D01*
X139200500Y-72503685D02*
X139200500Y-71850500D01*
%TO.N,Channel16*%
X141025500Y-77450500D02*
X141983000Y-78408000D01*
X141983000Y-78408000D02*
X146705500Y-78408000D01*
X146705500Y-78408000D02*
X150305500Y-74808000D01*
X150305500Y-74808000D02*
X150305500Y-71388000D01*
%TO.N,Net-(U4-P1A)*%
X140500500Y-71850500D02*
X141025500Y-72375500D01*
X141025500Y-72375500D02*
X141025500Y-74525500D01*
%TO.N,Net-(U3-P2A)*%
X109100500Y-103950500D02*
X108375500Y-103225500D01*
X108375500Y-103225500D02*
X108375500Y-100913000D01*
%TO.N,Channel6*%
X118132158Y-102523262D02*
X118955500Y-103346604D01*
X117015500Y-103179826D02*
X117672064Y-102523262D01*
X125235500Y-105299396D02*
X125235500Y-103263568D01*
X119126924Y-105572311D02*
X124962585Y-105572311D01*
X118750554Y-96847238D02*
X118776204Y-96804272D01*
X108375500Y-97988000D02*
X109559228Y-96804272D01*
X117015500Y-104288000D02*
X117015500Y-103179826D01*
X109559228Y-96804272D02*
X118750554Y-96847238D01*
X117672064Y-102523262D02*
X118132158Y-102523262D01*
X125235500Y-103263568D02*
X118776204Y-96804272D01*
X118955500Y-103346604D02*
X118955500Y-105400887D01*
X118955500Y-105400887D02*
X119126924Y-105572311D01*
X124962585Y-105572311D02*
X125235500Y-105299396D01*
%TO.N,Net-(U3-P2B)*%
X110400500Y-101238000D02*
X110400500Y-103950500D01*
%TO.N,gain6*%
X126385500Y-97264075D02*
X126385500Y-99238114D01*
X110675500Y-98038000D02*
X112575534Y-99938034D01*
X125038929Y-95917504D02*
X126385500Y-97264075D01*
X117811939Y-99196417D02*
X117811939Y-98895292D01*
X112575534Y-99938034D02*
X117070322Y-99938034D01*
X117811939Y-99196417D02*
X117070322Y-99938034D01*
X117811939Y-98895292D02*
X117828668Y-98878563D01*
X126385500Y-99238114D02*
X127464655Y-100317269D01*
%TO.N,Net-(U3-P0B)*%
X113650500Y-101738000D02*
X113650500Y-103950500D01*
X112925500Y-101013000D02*
X113650500Y-101738000D01*
%TO.N,gain5*%
X122186569Y-98789341D02*
X123318881Y-98789341D01*
X116442611Y-98900500D02*
X116470861Y-98928750D01*
X123318881Y-98789341D02*
X126951586Y-102422046D01*
X112925500Y-98088000D02*
X113738000Y-98900500D01*
X113738000Y-98900500D02*
X116442611Y-98900500D01*
%TO.N,Net-(U3-P0A)*%
X114950500Y-101188000D02*
X114950500Y-103950500D01*
%TO.N,Channel5*%
X118586084Y-98038000D02*
X118654011Y-98105927D01*
X118721938Y-98038000D02*
X118726896Y-98038000D01*
X115175500Y-98038000D02*
X118586084Y-98038000D01*
X118726896Y-98038000D02*
X124635500Y-103946604D01*
X118654011Y-98105927D02*
X118721938Y-98038000D01*
%TO.N,Net-(U4-P2A)*%
X134650500Y-64514443D02*
X134650500Y-66125500D01*
X133707919Y-63571862D02*
X134650500Y-64514443D01*
%TO.N,Channel14*%
X150092304Y-68184316D02*
X150052580Y-68144592D01*
X144555500Y-67394533D02*
X144555500Y-65426604D01*
X150052580Y-68144592D02*
X150012856Y-68184316D01*
X150170580Y-68184316D02*
X150092304Y-68184316D01*
X151350053Y-65197860D02*
X151350053Y-67004843D01*
X151350053Y-67004843D02*
X150170580Y-68184316D01*
X133707919Y-60646862D02*
X134579281Y-59775500D01*
X134579281Y-59775500D02*
X145927693Y-59775500D01*
X144291896Y-65163000D02*
X143095130Y-65163000D01*
X144555500Y-65426604D02*
X144291896Y-65163000D01*
X145927693Y-59775500D02*
X151350053Y-65197860D01*
X145345283Y-68184316D02*
X144555500Y-67394533D01*
X143095130Y-65163000D02*
X142685500Y-65572630D01*
X150012856Y-68184316D02*
X145345283Y-68184316D01*
%TO.N,Net-(U4-P2B)*%
X135950500Y-63738000D02*
X135950500Y-66125500D01*
%TO.N,Net-(U4-P0B)*%
X138475500Y-63613000D02*
X139200500Y-64338000D01*
X139200500Y-64338000D02*
X139200500Y-66125500D01*
%TO.N,Net-(U4-P0A)*%
X140500500Y-63938000D02*
X140500500Y-66125500D01*
%TO.N,Channel13*%
X140775500Y-60738000D02*
X144946896Y-60738000D01*
X144946896Y-60738000D02*
X150305500Y-66096604D01*
%TO.N,Net-(C58-Pad1)*%
X102009119Y-69340611D02*
X118817656Y-69340611D01*
X118817656Y-69340611D02*
X126815238Y-61343029D01*
X126815238Y-61343029D02*
X126815238Y-59937651D01*
X97683500Y-65014992D02*
X102009119Y-69340611D01*
%TO.N,Net-(C56-Pad1)*%
X125825500Y-61549396D02*
X125825500Y-59526604D01*
X118634285Y-68740611D02*
X125825500Y-61549396D01*
X124671168Y-58372272D02*
X99245087Y-58372272D01*
X125825500Y-59526604D02*
X124671168Y-58372272D01*
X117195505Y-68740611D02*
X118634285Y-68740611D01*
X99245087Y-58372272D02*
X97637745Y-59979614D01*
%TO.N,Net-(C55-Pad1)*%
X98042791Y-54966922D02*
X102108569Y-50901144D01*
%TO.N,DAC13*%
X92596542Y-65020650D02*
X94752842Y-65020650D01*
%TO.N,DAC12*%
X92595386Y-62586922D02*
X94550259Y-62586922D01*
%TO.N,DAC11*%
X92595386Y-60046922D02*
X94645437Y-60046922D01*
%TO.N,DAC10*%
X92595386Y-57506922D02*
X94679661Y-57506922D01*
%TO.N,/Amplification Stage/out14*%
X172050000Y-56850000D02*
X169812000Y-59088000D01*
X162711370Y-36890331D02*
X172050000Y-46228961D01*
X172050000Y-46228961D02*
X172050000Y-56850000D01*
X169812000Y-59088000D02*
X167675500Y-59088000D01*
X161580000Y-36890331D02*
X162711370Y-36890331D01*
%TO.N,DAC1*%
X92744025Y-93845568D02*
X94792173Y-93845568D01*
%TO.N,DAC2*%
X92664936Y-96533812D02*
X94828401Y-96533812D01*
%TO.N,Net-(C2-Pad1)*%
X100751168Y-93369614D02*
X100751168Y-92016909D01*
X100751168Y-92016909D02*
X101980760Y-90787317D01*
X110838841Y-90787317D02*
X111491278Y-91439754D01*
X101980760Y-90787317D02*
X110838841Y-90787317D01*
X97768592Y-96352190D02*
X100751168Y-93369614D01*
%TO.N,DAC3*%
X92622165Y-99217589D02*
X94840543Y-99217589D01*
%TO.N,Net-(C3-Pad1)*%
X110027889Y-116165465D02*
X110328602Y-116466178D01*
X97228259Y-112539000D02*
X98117498Y-112539000D01*
X101743963Y-116165465D02*
X110027889Y-116165465D01*
X96362990Y-111673731D02*
X97228259Y-112539000D01*
X96362990Y-100620744D02*
X96362990Y-111673731D01*
X97765844Y-99217890D02*
X96362990Y-100620744D01*
X98117498Y-112539000D02*
X101743963Y-116165465D01*
%TO.N,DAC4*%
X92572557Y-102017996D02*
X94703703Y-102017996D01*
%TO.N,Net-(C4-Pad1)*%
X98257255Y-111830228D02*
X98703686Y-112276659D01*
X97085173Y-111830228D02*
X98257255Y-111830228D01*
X96762990Y-111508045D02*
X97085173Y-111830228D01*
X97699024Y-102088317D02*
X96762990Y-103024351D01*
X96762990Y-103024351D02*
X96762990Y-111508045D01*
%TO.N,DAC5*%
X92471445Y-104903273D02*
X94730652Y-104903273D01*
%TO.N,Net-(C5-Pad1)*%
X125128270Y-105972311D02*
X126339019Y-104761562D01*
X110553440Y-105972311D02*
X125128270Y-105972311D01*
X110544129Y-105963000D02*
X110553440Y-105972311D01*
X98787485Y-105963000D02*
X110544129Y-105963000D01*
X126339019Y-104761562D02*
X126516504Y-104761562D01*
X97691705Y-104867220D02*
X98787485Y-105963000D01*
%TO.N,DAC6*%
X92903069Y-107663856D02*
X94857116Y-107663856D01*
%TO.N,Net-(C17-Pad1)*%
X129485357Y-106372311D02*
X99073661Y-106372311D01*
X133863923Y-101993745D02*
X129485357Y-106372311D01*
X99073661Y-106372311D02*
X97782116Y-107663856D01*
X136808489Y-101993745D02*
X133863923Y-101993745D01*
X137317871Y-102503127D02*
X136808489Y-101993745D01*
%TO.N,DAC7*%
X92331980Y-110641551D02*
X94686813Y-110641551D01*
%TO.N,Net-(C18-Pad1)*%
X136269488Y-113568359D02*
X136269488Y-114957396D01*
X135138884Y-116088000D02*
X134404815Y-116088000D01*
X101242718Y-107037282D02*
X101507689Y-106772311D01*
X135330421Y-112629292D02*
X136269488Y-113568359D01*
X134731253Y-124838942D02*
X134760876Y-124868565D01*
X101507689Y-106772311D02*
X127804072Y-106772311D01*
X101242718Y-107038000D02*
X101242718Y-107037282D01*
X97625490Y-110655228D02*
X101242718Y-107038000D01*
X127804072Y-106772311D02*
X133661053Y-112629292D01*
X133661053Y-112629292D02*
X135330421Y-112629292D01*
X136269488Y-114957396D02*
X135138884Y-116088000D01*
X132607240Y-124101107D02*
X133345075Y-124838942D01*
X133345075Y-124838942D02*
X134731253Y-124838942D01*
X134404815Y-116088000D02*
X132607240Y-117885575D01*
X132607240Y-117885575D02*
X132607240Y-124101107D01*
%TO.N,DAC8*%
X94504500Y-113714000D02*
X92398827Y-113714000D01*
%TO.N,Net-(U15-BCK)*%
X73064275Y-64801922D02*
X75640000Y-64801922D01*
X72737365Y-64475012D02*
X73064275Y-64801922D01*
%TO.N,TDMA_BCLK*%
X64610858Y-98670143D02*
X64610858Y-87770858D01*
X69739854Y-103799139D02*
X64610858Y-98670143D01*
X64610858Y-87770858D02*
X61450000Y-84610000D01*
%TO.N,Net-(U14-BCK)*%
X73171312Y-104308812D02*
X72650500Y-103788000D01*
X75798613Y-104308812D02*
X73171312Y-104308812D01*
%TO.N,Net-(U15-DATA1)*%
X74709907Y-64151922D02*
X75640000Y-64151922D01*
X72833017Y-62275032D02*
X74709907Y-64151922D01*
%TO.N,+12V*%
X120825500Y-103676295D02*
X120825500Y-103316931D01*
%TO.N,Net-(U13-3IN+)*%
X84725500Y-89088000D02*
X86798357Y-89088000D01*
X84725500Y-86426604D02*
X87034104Y-84118000D01*
X84725500Y-89088000D02*
X84725500Y-86426604D01*
X80825500Y-88725500D02*
X84363000Y-88725500D01*
X86798357Y-89088000D02*
X87193027Y-88693330D01*
%TO.N,+6V*%
X118745411Y-102570829D02*
X119555500Y-103380919D01*
X147765500Y-66779396D02*
X146760580Y-67784316D01*
X149115500Y-116196604D02*
X148181896Y-115263000D01*
X122095500Y-108896604D02*
X121161896Y-107963000D01*
X121058195Y-56863000D02*
X120145500Y-55950305D01*
X149115500Y-111929396D02*
X148181896Y-112863000D01*
X120445888Y-101592678D02*
X119080230Y-101592678D01*
X146760580Y-67784316D02*
X146230420Y-67784316D01*
X148181896Y-115263000D02*
X147509104Y-115263000D01*
X122095500Y-104288000D02*
X122095500Y-103242290D01*
X146831896Y-70113000D02*
X146159104Y-70113000D01*
X148181896Y-112863000D02*
X147159262Y-112863000D01*
X121161896Y-107963000D02*
X120489104Y-107963000D01*
X118745411Y-101927497D02*
X118745411Y-102570829D01*
X147159262Y-112863000D02*
X146575500Y-112279238D01*
X121751896Y-59263000D02*
X121079104Y-59263000D01*
X87375500Y-86658000D02*
X89617500Y-88900000D01*
X95213500Y-88900000D02*
X97925500Y-86188000D01*
X121079104Y-59263000D02*
X120145500Y-60196604D01*
X89617500Y-88900000D02*
X95213500Y-88900000D01*
X119080230Y-101592678D02*
X118745411Y-101927497D01*
X147509104Y-115263000D02*
X146575500Y-116196604D01*
X122685500Y-60196604D02*
X121751896Y-59263000D01*
X146230420Y-67784316D02*
X145225500Y-66779396D01*
X121751896Y-56863000D02*
X121058195Y-56863000D01*
X147765500Y-71046604D02*
X146831896Y-70113000D01*
X122095500Y-103242290D02*
X120445888Y-101592678D01*
X146159104Y-70113000D02*
X145225500Y-71046604D01*
X122685500Y-55929396D02*
X121751896Y-56863000D01*
X120489104Y-107963000D02*
X119555500Y-108896604D01*
%TO.N,TDMA_DATA*%
X65010858Y-85570858D02*
X61510000Y-82070000D01*
X65010858Y-96617431D02*
X65010858Y-85570858D01*
X69781425Y-101387998D02*
X65010858Y-96617431D01*
%TO.N,Net-(U14-DATA1)*%
X74871312Y-103658812D02*
X72650500Y-101438000D01*
X75798613Y-103658812D02*
X74871312Y-103658812D01*
%TO.N,Net-(U15-LRCK)*%
X72785191Y-66866296D02*
X74199565Y-65451922D01*
X74199565Y-65451922D02*
X75640000Y-65451922D01*
%TO.N,Net-(U15-SCK)*%
X72785191Y-59931574D02*
X72785191Y-61300298D01*
X75790000Y-63351922D02*
X75640000Y-63501922D01*
X74986815Y-63501922D02*
X75640000Y-63501922D01*
X75136815Y-63351922D02*
X75790000Y-63351922D01*
X72785191Y-61300298D02*
X74986815Y-63501922D01*
%TO.N,TDMA_LRCLK*%
X64210858Y-89082865D02*
X62277993Y-87150000D01*
X64210858Y-100473427D02*
X64210858Y-89082865D01*
X69698282Y-105960851D02*
X64210858Y-100473427D01*
%TO.N,Net-(U14-LRCK)*%
X75798613Y-104958812D02*
X74704688Y-104958812D01*
X72750500Y-105988000D02*
X72650500Y-106088000D01*
X73675500Y-105988000D02*
X72750500Y-105988000D01*
X74704688Y-104958812D02*
X73675500Y-105988000D01*
%TO.N,Net-(U14-SCK)*%
X72650500Y-100513884D02*
X72650500Y-99088000D01*
X75798613Y-103008812D02*
X75145428Y-103008812D01*
X75145428Y-103008812D02*
X72650500Y-100513884D01*
%TO.N,DAC14*%
X92765000Y-67579466D02*
X94860499Y-67579466D01*
%TO.N,Net-(C70-Pad1)*%
X96775245Y-66569212D02*
X96775245Y-59126797D01*
X96775245Y-59126797D02*
X97220120Y-58681922D01*
X135581186Y-54107738D02*
X139163666Y-57690218D01*
X124967050Y-58006808D02*
X124983774Y-58006808D01*
X124983774Y-58006808D02*
X128882844Y-54107738D01*
X97220120Y-58681922D02*
X98369751Y-58681922D01*
X98369751Y-58681922D02*
X99079402Y-57972272D01*
X128882844Y-54107738D02*
X135581186Y-54107738D01*
X97795430Y-67589397D02*
X96775245Y-66569212D01*
X124932514Y-57972272D02*
X124967050Y-58006808D01*
%TO.N,DAC15*%
X92769694Y-70387664D02*
X94877831Y-70387664D01*
%TO.N,Net-(C71-Pad1)*%
X104713709Y-82647833D02*
X137016807Y-82647833D01*
X139874575Y-79790065D02*
X137016807Y-82647833D01*
X96524144Y-74458268D02*
X104713709Y-82647833D01*
X97802831Y-70387664D02*
X96524144Y-71666351D01*
X96524144Y-71666351D02*
X96524144Y-74458268D01*
%TO.N,DAC16*%
X92922464Y-73074000D02*
X94758500Y-73074000D01*
%TO.N,Net-(C72-Pad1)*%
X101815977Y-77206477D02*
X126640188Y-77206477D01*
X97683500Y-73074000D02*
X101815977Y-77206477D01*
%TO.N,/Amplification Stage/out16*%
X157171370Y-36890331D02*
X159095000Y-38813961D01*
X159095000Y-38813961D02*
X159095000Y-40795000D01*
X159095000Y-40795000D02*
X167800000Y-49500000D01*
X156040000Y-36890331D02*
X157171370Y-36890331D01*
%TO.N,Boost_Shutdown*%
X87297224Y-123133575D02*
X86784724Y-123646075D01*
X87297224Y-120612426D02*
X87297224Y-123133575D01*
%TO.N,+5V*%
X136620500Y-117125500D02*
X136620500Y-117778685D01*
X110990500Y-61278685D02*
X109741713Y-62527472D01*
X111700500Y-102565780D02*
X111742472Y-102523808D01*
X112549639Y-113777456D02*
X113890918Y-113777456D01*
X109345921Y-62527472D02*
X109308969Y-62490520D01*
X111700500Y-103950500D02*
X111700500Y-102565780D01*
X113890918Y-113777456D02*
X113903236Y-113789774D01*
X111050500Y-103950500D02*
X111700500Y-103950500D01*
X111636825Y-112864642D02*
X112549639Y-113777456D01*
X111050500Y-109675500D02*
X110939234Y-109786766D01*
X136620500Y-117778685D02*
X137867805Y-119025990D01*
X137270500Y-111400500D02*
X136620500Y-111400500D01*
X81385935Y-68072857D02*
X84065190Y-68072857D01*
X110939234Y-109786766D02*
X110939234Y-111186813D01*
X81536949Y-107545476D02*
X83819999Y-107545476D01*
X110939234Y-111186813D02*
X111636825Y-111884404D01*
X110990500Y-60625500D02*
X110990500Y-61278685D01*
X137867805Y-119025990D02*
X138317483Y-119025990D01*
X109741713Y-62527472D02*
X109345921Y-62527472D01*
X81491000Y-64025922D02*
X84025569Y-64025922D01*
X111335241Y-54900500D02*
X111365841Y-54931100D01*
X137250500Y-66125500D02*
X136600500Y-66125500D01*
X110990500Y-54900500D02*
X111335241Y-54900500D01*
X111636825Y-111884404D02*
X111636825Y-112864642D01*
X81535422Y-103647003D02*
X83875428Y-103647003D01*
X81365000Y-64151922D02*
X81491000Y-64025922D01*
%TO.N,Net-(C82-Pad1)*%
X87225485Y-132035485D02*
X87225485Y-129794954D01*
%TO.N,/Amplification Stage/out15*%
X169929034Y-47950000D02*
X170350000Y-47950000D01*
X161865000Y-38813961D02*
X161865000Y-39885966D01*
X158810000Y-36890331D02*
X159941370Y-36890331D01*
X170350000Y-47950000D02*
X170350000Y-51563500D01*
X161865000Y-39885966D02*
X169929034Y-47950000D01*
X170350000Y-51563500D02*
X167675500Y-54238000D01*
X159941370Y-36890331D02*
X161865000Y-38813961D01*
%TO.N,-3gain*%
X135320500Y-116472070D02*
X135320500Y-117125500D01*
X136669488Y-113492253D02*
X136669488Y-115123082D01*
X145305500Y-116196604D02*
X142424732Y-113315836D01*
X142424732Y-113315836D02*
X136845905Y-113315836D01*
X136669488Y-115123082D02*
X135320500Y-116472070D01*
X136845905Y-113315836D02*
X136669488Y-113492253D01*
%TO.N,SCL*%
X137270500Y-113978021D02*
X137269488Y-113977009D01*
X124933379Y-112466842D02*
X132273133Y-112466842D01*
X110974738Y-64855749D02*
X111296921Y-64533566D01*
X75640000Y-62201922D02*
X76293185Y-62201922D01*
X76293185Y-62201922D02*
X76677500Y-61817607D01*
X123259279Y-73660000D02*
X123232326Y-73633047D01*
X104492907Y-59371048D02*
X104508575Y-59355380D01*
X68404001Y-56055999D02*
X67240004Y-57219996D01*
X67240004Y-57219996D02*
X67240004Y-70345689D01*
X110740500Y-62178685D02*
X111640500Y-61278685D01*
X135905091Y-76385708D02*
X134151172Y-76385708D01*
X104509523Y-59185851D02*
X104521840Y-59173534D01*
X108542857Y-66216311D02*
X108542857Y-67353616D01*
X108075375Y-67821098D02*
X106316913Y-67821098D01*
X67240004Y-70345689D02*
X68458843Y-71564528D01*
X104508575Y-59355380D02*
X104509523Y-59354432D01*
X104508575Y-59386716D02*
X104492907Y-59371048D01*
X108542857Y-67353616D02*
X108075375Y-67821098D01*
X104508575Y-66012760D02*
X106316913Y-67821098D01*
X86107936Y-76977451D02*
X91731870Y-76977451D01*
X134151172Y-76385708D02*
X133564138Y-76972743D01*
X111296921Y-64533566D02*
X111296921Y-63452932D01*
X145964959Y-105543870D02*
X145964959Y-104389787D01*
X110740500Y-62896511D02*
X110740500Y-62178685D01*
X121920000Y-86360000D02*
X119380000Y-83820000D01*
X137270500Y-117125500D02*
X137270500Y-113978021D01*
X137250500Y-71850500D02*
X137250500Y-75040299D01*
X127935172Y-86360000D02*
X121920000Y-86360000D01*
X145964959Y-104389787D02*
X127935172Y-86360000D01*
X104509523Y-59354432D02*
X104509523Y-59185851D01*
X104508575Y-66012760D02*
X104508575Y-59386716D01*
X133564138Y-77883428D02*
X132460577Y-78986989D01*
X132460577Y-78986989D02*
X130383424Y-78986989D01*
X125056435Y-73660000D02*
X130383424Y-78986989D01*
X80695013Y-71564528D02*
X86107936Y-76977451D01*
X123259279Y-73660000D02*
X125056435Y-73660000D01*
X75145428Y-101708812D02*
X74527433Y-101090817D01*
X72549774Y-56055999D02*
X68404001Y-56055999D01*
X111640500Y-61278685D02*
X111640500Y-60625500D01*
X111700500Y-109675500D02*
X111700500Y-108257926D01*
X111700500Y-108257926D02*
X111757438Y-108200988D01*
X111296921Y-63452932D02*
X110740500Y-62896511D01*
X74130668Y-57636893D02*
X72549774Y-56055999D01*
X76677500Y-61817607D02*
X76677500Y-60183725D01*
X75798613Y-101708812D02*
X75145428Y-101708812D01*
X74527433Y-97491208D02*
X74516485Y-97480260D01*
X68458843Y-71564528D02*
X80695013Y-71564528D01*
X109903418Y-64855749D02*
X108542857Y-66216311D01*
X110974738Y-64855749D02*
X109903418Y-64855749D01*
X76677500Y-60183725D02*
X74130668Y-57636893D01*
X133223687Y-113417396D02*
X134915466Y-113417396D01*
X74527433Y-101090817D02*
X74527433Y-97491208D01*
X133564138Y-76972743D02*
X133564138Y-77883428D01*
X132273133Y-112466842D02*
X133223687Y-113417396D01*
X91731870Y-76977451D02*
X91734735Y-76974586D01*
X137250500Y-75040299D02*
X135905091Y-76385708D01*
%TO.N,SDA*%
X137920500Y-114962849D02*
X137959265Y-114924084D01*
X73385191Y-59650525D02*
X72939429Y-59204763D01*
X67840004Y-70380004D02*
X68580000Y-71120000D01*
X68580000Y-71120000D02*
X81280000Y-71120000D01*
X111140500Y-62695259D02*
X111696921Y-63251680D01*
X74986815Y-62851922D02*
X73385191Y-61250298D01*
X111696921Y-64699252D02*
X111140423Y-65255749D01*
X130217738Y-79386989D02*
X125294645Y-74463896D01*
X124027101Y-85927101D02*
X128067958Y-85927101D01*
X75145428Y-102358812D02*
X73268316Y-100481700D01*
X108942857Y-66381997D02*
X110069104Y-65255749D01*
X111140423Y-65255749D02*
X110069104Y-65255749D01*
X108241060Y-68221098D02*
X108942857Y-67519302D01*
X111140500Y-62428685D02*
X111140500Y-62695259D01*
X73268316Y-100481700D02*
X73268316Y-97507633D01*
X73385191Y-61250298D02*
X73385191Y-59650525D01*
X125933536Y-114297848D02*
X134952668Y-114297848D01*
X146742072Y-106425700D02*
X146742072Y-104601215D01*
X75640000Y-62851922D02*
X74986815Y-62851922D01*
X137650500Y-73660000D02*
X137650500Y-75205985D01*
X111140500Y-62428685D02*
X112290500Y-61278685D01*
X111696921Y-63251680D02*
X111696921Y-64699252D01*
X137650500Y-75205985D02*
X136070777Y-76785708D01*
X124933379Y-113297691D02*
X125933536Y-114297848D01*
X112350500Y-109675500D02*
X112350500Y-108587584D01*
X132759889Y-79386989D02*
X130217738Y-79386989D01*
X133964138Y-77138428D02*
X133964138Y-78182740D01*
X67840004Y-59204763D02*
X67840004Y-70380004D01*
X134316858Y-76785708D02*
X133964138Y-77138428D01*
X137900500Y-71850500D02*
X137900500Y-73410000D01*
X137920500Y-117125500D02*
X137920500Y-114962849D01*
X102300401Y-64370272D02*
X106151227Y-68221098D01*
X85535952Y-75375952D02*
X91651030Y-75342338D01*
X75798613Y-102358812D02*
X75145428Y-102358812D01*
X102300401Y-59608700D02*
X102300401Y-64370272D01*
X125294645Y-74463896D02*
X123219926Y-74463896D01*
X146742072Y-104601215D02*
X128067958Y-85927101D01*
X73268316Y-97507633D02*
X73273791Y-97502158D01*
X108942857Y-67519302D02*
X108942857Y-66381997D01*
X137900500Y-73410000D02*
X137650500Y-73660000D01*
X133964138Y-78182740D02*
X132759889Y-79386989D01*
X106151227Y-68221098D02*
X108241060Y-68221098D01*
X112290500Y-60625500D02*
X112290500Y-61278685D01*
X72939429Y-59204763D02*
X67840004Y-59204763D01*
X112350500Y-108587584D02*
X112761898Y-108176186D01*
X81280000Y-71120000D02*
X85535952Y-75375952D01*
X124027101Y-85927101D02*
X121920000Y-83820000D01*
X136070777Y-76785708D02*
X134316858Y-76785708D01*
%TO.N,-4gain*%
X150385500Y-117583710D02*
X150385500Y-116538000D01*
X139870500Y-116453875D02*
X140236375Y-116088000D01*
X140811970Y-116088000D02*
X143466721Y-118742751D01*
X143466721Y-118742751D02*
X149226459Y-118742751D01*
X149226459Y-118742751D02*
X150385500Y-117583710D01*
X140236375Y-116088000D02*
X140811970Y-116088000D01*
X139870500Y-117125500D02*
X139870500Y-116453875D01*
%TO.N,-1gain*%
X148813363Y-109674467D02*
X143562879Y-109674467D01*
X143562879Y-109674467D02*
X140799346Y-112438000D01*
X139870500Y-112168555D02*
X139870500Y-111400500D01*
X150385500Y-111246604D02*
X148813363Y-109674467D01*
X140139945Y-112438000D02*
X139870500Y-112168555D01*
X140799346Y-112438000D02*
X140139945Y-112438000D01*
%TO.N,-2gain*%
X139964021Y-112915836D02*
X144319060Y-112915836D01*
X145305500Y-111929396D02*
X144319060Y-112915836D01*
X135704815Y-112438000D02*
X139486185Y-112438000D01*
X135320500Y-112053685D02*
X135704815Y-112438000D01*
X135320500Y-111400500D02*
X135320500Y-112053685D01*
X139486185Y-112438000D02*
X139964021Y-112915836D01*
%TO.N,-11gain*%
X109690500Y-59938000D02*
X109690500Y-60625500D01*
X117851168Y-59172272D02*
X110456228Y-59172272D01*
X118875500Y-60196604D02*
X117851168Y-59172272D01*
X110456228Y-59172272D02*
X109690500Y-59938000D01*
%TO.N,-12gain*%
X114240500Y-59881029D02*
X114545916Y-59575613D01*
X116586478Y-61520523D02*
X117337349Y-62271394D01*
X116586478Y-61018293D02*
X116586478Y-61520523D01*
X114545916Y-59575613D02*
X115143798Y-59575613D01*
X115143798Y-59575613D02*
X116586478Y-61018293D01*
X122563502Y-62271394D02*
X123955500Y-60879396D01*
X117337349Y-62271394D02*
X122563502Y-62271394D01*
X114240500Y-60625500D02*
X114240500Y-59881029D01*
%TO.N,-9gain*%
X114240500Y-54900500D02*
X114240500Y-55553685D01*
X123955500Y-54690784D02*
X123955500Y-55588000D01*
X114240500Y-55553685D02*
X114624815Y-55938000D01*
X121071835Y-51807119D02*
X123955500Y-54690784D01*
X114624815Y-55938000D02*
X115633719Y-55938000D01*
X115633719Y-55938000D02*
X119764600Y-51807119D01*
X119764600Y-51807119D02*
X121071835Y-51807119D01*
%TO.N,-10gain*%
X110975270Y-56961143D02*
X109690500Y-55676373D01*
X109690500Y-55676373D02*
X109690500Y-54900500D01*
X118875500Y-55929396D02*
X117843753Y-56961143D01*
X117843753Y-56961143D02*
X110975270Y-56961143D01*
%TO.N,-7gain*%
X109750500Y-108453685D02*
X110631874Y-107572311D01*
X110631874Y-107572311D02*
X116961207Y-107572311D01*
X116961207Y-107572311D02*
X118285500Y-108896604D01*
X109750500Y-109675500D02*
X109750500Y-108453685D01*
%TO.N,-8gain*%
X115216185Y-108638000D02*
X115491728Y-108913543D01*
X114300500Y-109675500D02*
X114300500Y-109022315D01*
X122282973Y-111428000D02*
X123365500Y-110345473D01*
X116250500Y-111403000D02*
X116225500Y-111428000D01*
X114300500Y-109022315D02*
X114684815Y-108638000D01*
X116225500Y-111428000D02*
X122282973Y-111428000D01*
X116250500Y-111373736D02*
X116250500Y-111403000D01*
X123365500Y-110345473D02*
X123365500Y-109238000D01*
X115491728Y-110614964D02*
X116250500Y-111373736D01*
X114684815Y-108638000D02*
X115216185Y-108638000D01*
X115491728Y-108913543D02*
X115491728Y-110614964D01*
%TO.N,-5gain*%
X115821491Y-103808149D02*
X118436962Y-101192678D01*
X115821491Y-104382694D02*
X115821491Y-103808149D01*
X120611574Y-101192678D02*
X123365500Y-103946604D01*
X114300500Y-104610641D02*
X114300500Y-103950500D01*
X114300500Y-103950500D02*
X114300500Y-104603685D01*
X118436962Y-101192678D02*
X120611574Y-101192678D01*
X115216185Y-104988000D02*
X115821491Y-104382694D01*
X114300500Y-104603685D02*
X114684815Y-104988000D01*
X114684815Y-104988000D02*
X115216185Y-104988000D01*
%TO.N,-6gain*%
X110709815Y-105563000D02*
X117538398Y-105563000D01*
X109750500Y-104603685D02*
X110709815Y-105563000D01*
X109750500Y-103950500D02*
X109750500Y-104603685D01*
X117538398Y-105563000D02*
X118285500Y-104815898D01*
%TO.N,-15gain*%
X139732527Y-70717864D02*
X135479951Y-70717864D01*
X135479951Y-70717864D02*
X135300500Y-70897315D01*
X135300500Y-70897315D02*
X135300500Y-71850500D01*
X140337391Y-70113000D02*
X139732527Y-70717864D01*
X143955500Y-71046604D02*
X143021896Y-70113000D01*
X143021896Y-70113000D02*
X140337391Y-70113000D01*
%TO.N,-16gain*%
X139850500Y-71165577D02*
X140203077Y-70813000D01*
X140203077Y-70813000D02*
X141172243Y-70813000D01*
X147407187Y-73357709D02*
X149035500Y-71729396D01*
X141476784Y-71117541D02*
X141476784Y-71882751D01*
X141476784Y-71882751D02*
X142951742Y-73357709D01*
X139850500Y-71850500D02*
X139850500Y-71165577D01*
X142951742Y-73357709D02*
X147407187Y-73357709D01*
X141172243Y-70813000D02*
X141476784Y-71117541D01*
%TO.N,-13gain*%
X140040616Y-67163000D02*
X139850500Y-66972884D01*
X146705500Y-63168000D02*
X143194965Y-63168000D01*
X141083551Y-66845634D02*
X141083551Y-65183689D01*
X140766185Y-67163000D02*
X141083551Y-66845634D01*
X143099240Y-63168000D02*
X143194965Y-63168000D01*
X141083551Y-65183689D02*
X143099240Y-63168000D01*
X139850500Y-66972884D02*
X139850500Y-66125500D01*
X149035500Y-65498000D02*
X146705500Y-63168000D01*
X140766185Y-67163000D02*
X140040616Y-67163000D01*
X149035500Y-66438000D02*
X149035500Y-65498000D01*
%TO.N,-14gain*%
X143021896Y-67713000D02*
X136007683Y-67713000D01*
X143955500Y-66779396D02*
X143021896Y-67713000D01*
X136007683Y-67713000D02*
X135300500Y-67005817D01*
X135300500Y-67005817D02*
X135300500Y-66125500D01*
%TO.N,+1*%
X97514275Y-97979621D02*
X100019642Y-97979621D01*
X99525500Y-90164914D02*
X96528786Y-93161628D01*
X96380362Y-82248000D02*
X99525500Y-85393138D01*
X99525500Y-85393138D02*
X99525500Y-90164914D01*
X100019642Y-97979621D02*
X103659334Y-101619313D01*
X84706896Y-82248000D02*
X96380362Y-82248000D01*
X96528786Y-93161628D02*
X96528786Y-96994132D01*
X82425500Y-80308000D02*
X82425500Y-79038000D01*
X96528786Y-96994132D02*
X97514275Y-97979621D01*
X82766896Y-80308000D02*
X84706896Y-82248000D01*
%TO.N,COM1*%
X79294721Y-81096717D02*
X81944217Y-81096717D01*
X81944217Y-81096717D02*
X82425500Y-81578000D01*
X83636564Y-102358812D02*
X84073325Y-101922051D01*
X81523613Y-102358812D02*
X83636564Y-102358812D01*
%TO.N,COM2*%
X79230954Y-84827119D02*
X79940073Y-84118000D01*
X79940073Y-84118000D02*
X82425500Y-84118000D01*
X81365000Y-62851922D02*
X84173546Y-62851922D01*
X84173546Y-62851922D02*
X84397944Y-62627524D01*
%TO.N,+10*%
X82425500Y-86658000D02*
X82452930Y-85374288D01*
%TO.N,+3.3V*%
X73196120Y-108438000D02*
X72638000Y-108438000D01*
X75640000Y-61551922D02*
X74986815Y-61551922D01*
X73956260Y-107677860D02*
X73196120Y-108438000D01*
X74986815Y-61551922D02*
X74602500Y-61167607D01*
X74602500Y-61167607D02*
X74602500Y-59362500D01*
X75798613Y-105608812D02*
X75145428Y-105608812D01*
X74986815Y-66101922D02*
X75640000Y-66101922D01*
X74602500Y-59362500D02*
X71895999Y-56655999D01*
X72785191Y-68303546D02*
X74986815Y-66101922D01*
X72785191Y-69257579D02*
X72785191Y-68303546D01*
X71895999Y-56655999D02*
X71415618Y-56655999D01*
X73956260Y-106797980D02*
X73956260Y-107677860D01*
X75145428Y-105608812D02*
X73956260Y-106797980D01*
%TO.N,Net-(U15-VOUT8)*%
X84760000Y-72746922D02*
X81365000Y-69351922D01*
X89470386Y-72746922D02*
X84760000Y-72746922D01*
%TO.N,Net-(U15-VOUT7)*%
X89445192Y-70188162D02*
X87958952Y-68701922D01*
X87958952Y-68701922D02*
X81365000Y-68701922D01*
%TO.N,Net-(U15-VOUT6)*%
X88812456Y-66751922D02*
X81365000Y-66751922D01*
X89640000Y-67579466D02*
X88812456Y-66751922D01*
%TO.N,Net-(U15-VOUT5)*%
X88390270Y-66101922D02*
X81365000Y-66101922D01*
X89471542Y-65020650D02*
X88390270Y-66101922D01*
%TO.N,Net-(U15-VOUT4)*%
X86605386Y-65451922D02*
X81365000Y-65451922D01*
X89470386Y-62586922D02*
X86605386Y-65451922D01*
%TO.N,Net-(U15-VOUT3)*%
X89470386Y-60046922D02*
X84715386Y-64801922D01*
X84715386Y-64801922D02*
X81365000Y-64801922D01*
%TO.N,Net-(U15-VOUT2)*%
X81365000Y-62201922D02*
X82801072Y-62201922D01*
X82801072Y-62201922D02*
X87496072Y-57506922D01*
X87496072Y-57506922D02*
X89470386Y-57506922D01*
%TO.N,Net-(U15-VOUT1)*%
X88603185Y-54966922D02*
X89470386Y-54966922D01*
X81365000Y-61551922D02*
X82018185Y-61551922D01*
X82018185Y-61551922D02*
X88603185Y-54966922D01*
%TO.N,Net-(U14-VOUT8)*%
X89213438Y-113653611D02*
X86318412Y-113653611D01*
X86318412Y-113653611D02*
X81523613Y-108858812D01*
%TO.N,Net-(U14-VOUT7)*%
X86774241Y-108208812D02*
X81523613Y-108208812D01*
X89206980Y-110641551D02*
X86774241Y-108208812D01*
%TO.N,Net-(U14-VOUT6)*%
X89252113Y-108189812D02*
X87321113Y-106258812D01*
X87321113Y-106258812D02*
X81523613Y-106258812D01*
%TO.N,Net-(U14-VOUT5)*%
X88640906Y-105608812D02*
X81523613Y-105608812D01*
X89346445Y-104903273D02*
X88640906Y-105608812D01*
%TO.N,Net-(U14-VOUT4)*%
X89447557Y-102017996D02*
X86506741Y-104958812D01*
X86506741Y-104958812D02*
X81523613Y-104958812D01*
%TO.N,Net-(U14-VOUT3)*%
X84405942Y-104308812D02*
X81523613Y-104308812D01*
X89497165Y-99217589D02*
X84405942Y-104308812D01*
%TO.N,Net-(U14-VOUT2)*%
X82697613Y-101708812D02*
X81523613Y-101708812D01*
X87872613Y-96533812D02*
X82697613Y-101708812D01*
X89539936Y-96533812D02*
X87872613Y-96533812D01*
%TO.N,Net-(U14-VOUT1)*%
X82405781Y-101058812D02*
X81523613Y-101058812D01*
X89619025Y-93845568D02*
X82405781Y-101058812D01*
%TO.N,LED4*%
X70614726Y-30186158D02*
X54519718Y-30186159D01*
X73550751Y-33122183D02*
X70614726Y-30186158D01*
X53265751Y-73845751D02*
X56410000Y-76990000D01*
X53265751Y-31440128D02*
X53265751Y-73845751D01*
X73550751Y-38140000D02*
X73550751Y-33122183D01*
X54519718Y-30186159D02*
X53265751Y-31440128D01*
%TO.N,LED5*%
X75264726Y-29786158D02*
X54354032Y-29786160D01*
X78630751Y-33152183D02*
X75264726Y-29786158D01*
X54354032Y-29786160D02*
X52865751Y-31274443D01*
X52865751Y-31274443D02*
X52865751Y-78525751D01*
X52865751Y-78525751D02*
X56410000Y-82070000D01*
X78630751Y-38140000D02*
X78630751Y-33152183D01*
%TO.N,LED6*%
X83710751Y-33182183D02*
X79914726Y-29386158D01*
X52465751Y-31108758D02*
X52465751Y-80725751D01*
X79914726Y-29386158D02*
X54188346Y-29386160D01*
X83710751Y-38140000D02*
X83710751Y-33182183D01*
X54188346Y-29386160D02*
X52465751Y-31108758D01*
X52465751Y-80725751D02*
X56350000Y-84610000D01*
%TO.N,LED1*%
X56564726Y-31386158D02*
X55016776Y-31386158D01*
X54465751Y-62345751D02*
X56410000Y-64290000D01*
X58310751Y-38140000D02*
X58310751Y-33132183D01*
X54465751Y-31937183D02*
X54465751Y-62345751D01*
X55016776Y-31386158D02*
X54465751Y-31937183D01*
X58310751Y-33132183D02*
X56564726Y-31386158D01*
%TO.N,LED2*%
X54851090Y-30986158D02*
X54065751Y-31771498D01*
X54065751Y-64485751D02*
X56410000Y-66830000D01*
X61194235Y-30986158D02*
X54851090Y-30986158D01*
X63390751Y-38140000D02*
X63390751Y-33182674D01*
X54065751Y-31771498D02*
X54065751Y-64485751D01*
X63390751Y-33182674D02*
X61194235Y-30986158D01*
%TO.N,LED3*%
X53665751Y-71705751D02*
X56410000Y-74450000D01*
X68470751Y-33142183D02*
X65914726Y-30586158D01*
X54685404Y-30586158D02*
X53665751Y-31605813D01*
X68470751Y-38140000D02*
X68470751Y-33142183D01*
X53665751Y-31605813D02*
X53665751Y-71705751D01*
X65914726Y-30586158D02*
X54685404Y-30586158D01*
%TO.N,LED7*%
X88790751Y-32910751D02*
X84866158Y-28986158D01*
X84866158Y-28986158D02*
X54022660Y-28986161D01*
X54022660Y-28986161D02*
X52065751Y-30943073D01*
X52065751Y-82805751D02*
X56410000Y-87150000D01*
X52065751Y-30943073D02*
X52065751Y-82805751D01*
X88790751Y-38140000D02*
X88790751Y-32910751D01*
%TO.N,LED12*%
X70573568Y-48260000D02*
X68580000Y-48260000D01*
X73550751Y-45282817D02*
X70573568Y-48260000D01*
X73550751Y-43180000D02*
X73550751Y-45282817D01*
X68580000Y-48260000D02*
X63500000Y-53340000D01*
X63500000Y-53340000D02*
X62180000Y-53340000D01*
X59510751Y-56009249D02*
X59510751Y-87750751D01*
X59510751Y-87750751D02*
X61450000Y-89690000D01*
X62180000Y-53340000D02*
X59510751Y-56009249D01*
%TO.N,LED14*%
X76200000Y-50800000D02*
X71524254Y-50800000D01*
X82043568Y-46990000D02*
X80010000Y-46990000D01*
X83710751Y-43180000D02*
X83710751Y-45322817D01*
X83710751Y-45322817D02*
X82043568Y-46990000D01*
X80010000Y-46990000D02*
X76200000Y-50800000D01*
X71524254Y-50800000D02*
X64269936Y-58054318D01*
X64269936Y-58054318D02*
X64269936Y-66550064D01*
X64269936Y-66550064D02*
X61450000Y-69370000D01*
%TO.N,LED15*%
X83768568Y-48190000D02*
X81536917Y-50421651D01*
X64669936Y-58220004D02*
X64669936Y-68690064D01*
X81536917Y-50421651D02*
X81454636Y-50421651D01*
X85793568Y-48190000D02*
X83768568Y-48190000D01*
X64669936Y-68690064D02*
X61450000Y-71910000D01*
X88790751Y-43180000D02*
X88790751Y-45192817D01*
X80676287Y-51200000D02*
X71689940Y-51200000D01*
X81454636Y-50421651D02*
X80676287Y-51200000D01*
X88790751Y-45192817D02*
X85793568Y-48190000D01*
X71689940Y-51200000D02*
X64669936Y-58220004D01*
%TO.N,LED16*%
X65069936Y-70830064D02*
X61450000Y-74450000D01*
X93870751Y-45212817D02*
X90893568Y-48190000D01*
X93870751Y-43180000D02*
X93870751Y-45212817D01*
X71858079Y-51600000D02*
X65069936Y-58388143D01*
X88718568Y-48190000D02*
X85308568Y-51600000D01*
X85308568Y-51600000D02*
X71858079Y-51600000D01*
X65069936Y-58388143D02*
X65069936Y-70830064D01*
X90893568Y-48190000D02*
X88718568Y-48190000D01*
%TO.N,LED8*%
X51665751Y-30777388D02*
X51665751Y-84945751D01*
X93870751Y-32910751D02*
X89546158Y-28586158D01*
X51665751Y-84945751D02*
X56410000Y-89690000D01*
X53856974Y-28586162D02*
X51665751Y-30777388D01*
X93870751Y-38140000D02*
X93870751Y-32910751D01*
X89546158Y-28586158D02*
X53856974Y-28586162D01*
%TO.N,LED13*%
X73768844Y-47989724D02*
X75943844Y-47989724D01*
X75943844Y-47989724D02*
X78630751Y-45302817D01*
X61450000Y-64290000D02*
X63869936Y-61870064D01*
X63869936Y-61870064D02*
X63869936Y-57888632D01*
X63869936Y-57888632D02*
X73768844Y-47989724D01*
X78630751Y-45302817D02*
X78630751Y-43180000D01*
%TO.N,LED9*%
X58310751Y-94170751D02*
X61450000Y-97310000D01*
X58310751Y-43180000D02*
X58310751Y-94170751D01*
%TO.N,LED10*%
X59754429Y-47187433D02*
X58710751Y-48231111D01*
X58710751Y-92030751D02*
X61450000Y-94770000D01*
X63390751Y-45242817D02*
X61446135Y-47187433D01*
X63390751Y-43180000D02*
X63390751Y-45242817D01*
X58710751Y-48231111D02*
X58710751Y-92030751D01*
X61446135Y-47187433D02*
X59754429Y-47187433D01*
%TO.N,LED11*%
X68470751Y-45212817D02*
X65543568Y-48140000D01*
X59110751Y-52476715D02*
X59110751Y-89890751D01*
X68470751Y-43180000D02*
X68470751Y-45212817D01*
X65543568Y-48140000D02*
X63447466Y-48140000D01*
X63447466Y-48140000D02*
X59110751Y-52476715D01*
X59110751Y-89890751D02*
X61450000Y-92230000D01*
%TD*%
M02*
